<svg width="85" height="30" viewBox="0 0 85 30" fill="none" xmlns="http://www.w3.org/2000/svg">
<g clip-path="url(#clip0_41_488)">
<path d="M41.8 29.4898L33.37 21.0298L25.38 29.0498L17.53 21.1798L9.84 28.8998L0 19.0298L3.11 15.9298L9.84 22.6898L17.53 14.9698L25.38 22.8398L33.37 14.8198L41.8 23.2798L50.53 14.5298L58.97 22.9898L65.85 16.0798L68.96 19.1798L58.97 29.1998L50.53 20.7398L41.8 29.4898Z" fill="#15A280"/>
<path d="M56.54 15.68L48.11 7.21996L40.12 15.23L32.27 7.35996L24.58 15.08L14.74 5.20996L17.85 2.11996L24.58 8.86996L32.27 1.14996L40.12 9.01996L48.11 0.999961L56.54 9.46996L65.27 0.709961L73.71 9.16996L80.59 2.26996L83.7 5.35996L73.71 15.38L65.27 6.91996L56.54 15.68Z" stroke="#15A280" stroke-miterlimit="10"/>
</g>
<defs>
<clipPath id="clip0_41_488">
<rect width="84.4" height="29.49" fill="white"/>
</clipPath>
</defs>
</svg>
