<svg width="93" height="92" viewBox="0 0 93 92" fill="none" xmlns="http://www.w3.org/2000/svg">
<g clip-path="url(#clip0_41_328)">
<path d="M44.35 65.6302C44.16 65.7602 43.96 65.9002 43.76 66.0302C43.29 66.3202 42.95 66.9702 42.36 66.9002C41.15 66.7602 39.86 66.7802 38.81 65.9802C38.3 65.6002 37.85 65.1702 37.93 64.4502C38.55 64.0002 38.71 63.5202 38.6 62.6602C38.21 59.4702 39.38 56.6902 41.4 54.2802C42.04 53.5102 42.79 52.8102 43.53 52.1102C45.52 50.2402 48.55 50.2502 49.96 53.2202C50.69 54.7602 50.06 56.1802 49.59 57.5302C49.07 59.0202 48.12 60.3502 47.43 61.7802C47.12 62.4102 46.53 62.7702 46.02 63.2102C45.26 63.8602 44.41 64.4702 44.35 65.6302Z" fill="#F2BC00"/>
<path d="M46.36 0.980083C47.39 -0.0399168 48.62 -0.189917 49.94 0.180083C50.31 0.280083 50.69 0.320083 51.06 0.420083C52.21 0.730083 53.16 1.37008 53.71 2.47008C53.81 2.68008 53.86 2.93008 53.87 3.16008C53.89 3.64008 53.86 4.12008 53.87 4.61008C53.87 4.97008 53.81 5.30008 53.48 5.49008C53.1 5.72008 53.05 6.09008 53 6.48008C52.91 6.58008 52.8 6.67008 52.74 6.79008L52.75 6.81008C51.33 7.20008 50.26 8.03008 49.63 9.32008C49.48 9.51008 49.88 9.42008 49.69 9.38008C49.63 9.37008 49.64 9.32008 49.71 9.24008C50.71 8.12008 51.15 8.03008 51.85 8.80008C51.66 8.95008 51.73 9.23008 51.56 9.38008C51.47 9.60008 51.45 9.91008 51.29 10.0201C50.24 10.7801 49.63 11.9701 48.6 12.7501C48.37 12.9201 48.17 13.1401 47.86 13.1601C47.51 13.1901 47.2 13.3001 46.97 13.5701C46.58 14.0201 46.07 14.0601 45.53 14.0201C44.64 13.9601 43.84 13.7201 43.16 13.1201C42.88 12.7301 42.57 12.3701 42.27 11.9901V12.0001C42.08 11.7101 41.92 11.3901 41.69 11.1201C41.43 10.6701 41.63 10.3501 42.04 10.2101C42.54 10.0501 43.07 10.2101 43.29 10.6801C44.15 12.5201 45.6 12.2201 46.73 11.9301C46.16 12.1201 45.27 11.8301 44.58 11.2701C43.47 10.3701 42.18 9.55008 41.98 7.92008C42.03 7.83008 42.12 7.79008 42.23 7.79008C42.17 7.69008 42.14 7.58008 42.14 7.47008C42.15 7.22008 42.1 6.97008 42.27 6.76008C42.22 6.30008 42.35 5.91008 42.7 5.60008C43.03 5.30008 43.31 4.93008 43.35 4.51008C43.44 3.49008 44.18 2.95008 44.8 2.31008C45.03 2.07008 45.26 1.83008 45.48 1.59008C45.75 1.33008 46.08 1.19008 46.36 0.980083Z" fill="#F2BC00"/>
<path d="M10.7 66.4603C10.84 66.1903 11.03 65.9803 11.33 65.9103C11.56 65.8603 11.84 65.8803 12.03 65.7603C12.62 65.3903 13.22 65.4903 13.84 65.6303C14.21 65.7103 14.56 65.8803 14.96 65.8803C15.7 65.8903 16.09 66.3303 16.22 67.0303C15.66 67.3603 15.16 66.5503 14.61 66.8903C14.52 67.2503 14.78 67.3603 14.96 67.5003C17.37 69.4103 17.95 72.7003 16.23 75.3303C15.71 76.1303 15.51 77.3103 14.27 77.4903C13.62 77.5003 12.86 78.0403 12.45 76.9803C12.09 76.0403 11.94 75.2203 13 74.6303C13.13 74.5603 13.27 74.5003 13.36 74.3903C13.41 74.3303 13.3 74.2603 13.19 74.2303C12.19 73.9203 13.17 73.2803 12.95 72.7803C12.38 72.8403 12.24 73.3503 11.98 73.7103C11.8 73.9703 11.7 74.3803 11.26 74.2603C10.86 74.1503 10.47 73.7603 10.62 73.4303C11.2 72.0703 10.55 71.2603 9.53999 70.5103C9.31999 70.3503 9.28999 70.0003 9.29999 69.7003C9.30999 69.5603 9.34999 69.4303 9.39999 69.3003C9.48999 69.1203 9.60999 68.9503 9.73999 68.7903C10.34 68.0003 10.89 67.1303 12.02 66.8703C11.55 66.4303 11.02 66.8403 10.7 66.4603Z" fill="#F2BC00"/>
<path d="M70.98 65.3001C70.88 65.5701 70.68 65.7701 70.44 65.9301C69.85 66.6101 69.36 67.3801 68.64 67.9401C68.53 68.0201 68.42 68.0901 68.3 68.1401C67.67 68.3401 67.08 68.6401 66.48 68.9201C66.35 68.9701 66.22 69.0001 66.08 69.0101C64.85 68.8901 63.61 69.6701 62.39 68.9201C61.1 67.9201 60.24 66.6501 59.96 65.0301C59.86 64.4301 59.75 63.7901 60.26 63.2801C60.91 63.2401 61.3 63.6001 61.61 64.1101C61.68 64.0701 61.68 64.0001 61.64 63.8901C61.47 63.4201 60.92 62.8501 61.49 62.4901C61.98 62.1801 62.39 62.8301 62.77 63.1701C62.95 63.3301 63.09 63.5301 63.26 63.6801C63.45 63.8701 63.42 63.7001 63.42 63.5601C63.86 63.0901 64.4 62.8001 64.92 63.2801C65.6 63.9001 65.11 64.5701 64.57 65.3201C65.6 65.0301 66.15 65.5201 66.89 66.1301C66.86 66.1001 66.96 65.7201 66.84 65.8701C66.81 65.9101 66.79 65.9001 66.76 65.8701C66.21 65.3801 65.94 64.6701 65.51 64.0801C64.88 63.2101 65.41 62.5601 66.68 62.4301C66.95 62.4801 67.21 62.5501 67.26 62.8901C67.25 63.1201 66.9 63.3001 67.03 63.4601C67.13 63.5901 67.45 63.4701 67.66 63.4301C68.09 62.8501 68.66 62.3601 68.8 61.5901C68.85 61.4601 68.92 61.3501 69.02 61.2601C69.13 61.1801 69.26 61.1301 69.39 61.1201C70.14 61.3701 70.65 61.8401 70.43 62.6701C70.3 63.1801 70.77 63.1401 70.88 63.4001C71.05 63.8001 71.05 64.2001 70.86 64.5901C70.43 65.0701 70.11 64.4001 69.71 64.4701C69.91 64.8401 70.25 64.8501 70.58 64.8901C70.81 64.9401 70.93 65.0801 70.98 65.3001Z" fill="#F2BC00"/>
<path d="M59.29 23.1899C59.29 23.2099 59.35 23.4899 59.38 23.7799C59.43 24.1199 59.44 24.4899 59.19 24.7399C58.73 25.2099 58.58 25.8099 58.38 26.3999C58.21 26.8899 57.95 27.3799 57.65 27.7999C57.04 28.6499 56.61 29.6499 55.66 30.2299C55.12 31.3299 54.09 32.0099 53.34 32.9399C52.66 33.7799 51.91 34.5399 50.68 34.3899C49.6 34.9199 48.7 34.3999 47.84 33.8499C46.6 33.0599 46.2 31.9799 46.5 30.4899C46.55 30.2499 46.63 30.0099 46.6 29.7799C46.5 28.8799 46.94 28.1999 47.45 27.5499C47.75 27.1699 48.1 26.8499 48.14 26.3199C48.15 26.1399 48.27 25.9599 48.39 25.8099C49.44 24.4999 50.51 23.2199 51.75 22.0799C52.11 21.7499 52.48 21.4499 52.7 20.9999C52.89 20.6199 53.2 20.4399 53.6 20.3399C54.77 20.0499 55.95 19.8499 57.16 19.8199C57.58 19.8099 57.94 19.9299 58.19 20.2399C58.82 21.0199 59.44 21.8099 59.29 23.1899Z" fill="#F2BC00"/>
<path d="M44.35 65.6299C43.87 65.2299 43.93 64.7599 44.29 64.3699C44.81 63.7999 45.34 63.2199 45.96 62.7799C46.62 62.3199 47.04 61.7799 47.37 61.0299C47.91 59.8099 48.59 58.6499 49.25 57.4899C49.37 57.2799 49.56 57.0999 49.53 56.8499C49.46 56.1099 49.73 55.4099 49.89 54.7299C50.13 53.7199 49.67 53.0999 49.09 52.4699C48.83 52.1899 48.5 51.9699 48.25 51.6799C47.74 51.0899 47.13 50.9799 46.42 51.2199C46.24 51.2799 46.04 51.3899 45.87 51.3699C44.94 51.2599 44.32 51.7399 43.77 52.3899C43.58 52.6099 43.36 52.7999 43.16 52.9999C40.81 55.3499 40.81 55.3499 39.45 58.2499C39.24 58.6899 39.05 59.1299 39.12 59.6299C39.22 60.3999 38.6 61.1099 38.96 61.8899C38.74 62.7599 39.07 63.4799 39.53 64.1799C39.61 64.2999 39.66 64.4799 39.5 64.5599C39.4 64.6099 39.19 64.5999 39.12 64.5299C38.74 64.1599 38.36 64.1799 37.95 64.4499C37.43 62.1899 37.11 61.7299 37.79 59.9999C38.15 59.0999 38.5 58.2299 39.05 57.4399C39.19 57.2499 39.33 57.0399 39.39 56.8099C39.7 55.6599 40.49 54.7699 41.15 53.8399C41.52 53.3299 42.02 52.8899 42.41 52.3499C42.8 51.8099 43.35 51.3799 43.83 50.9099C44.6 50.1699 45.51 49.8599 46.59 49.9199C48.34 50.0199 48.34 49.9899 49.59 51.2499C50.07 51.7299 50.61 52.1899 50.29 52.9899C50.75 53.6199 50.8 54.3799 50.65 55.0699C50.43 56.0799 50.53 57.1899 49.85 58.0899C49.69 58.3099 49.66 58.6299 49.56 58.8999C49.47 59.1699 49.44 59.5199 49.26 59.6999C48.6 60.3299 48.39 61.1899 48.02 61.9599C47.81 62.3899 47.64 62.8599 47.14 63.0599C47.05 63.0899 46.94 63.1599 46.91 63.2299C46.44 64.4299 45.26 64.8799 44.35 65.6299Z" fill="#F2BC00"/>
<path d="M66.64 62.69C66.35 62.92 65.99 62.7 65.69 62.84C65.71 63.3 65.52 63.78 65.81 64.22C65.99 64.5 66.18 64.66 66.5 64.42C66.62 64.34 66.77 64.24 66.85 64.43C66.9 64.54 66.86 64.71 66.8 64.83C66.72 64.99 66.47 65.08 66.55 65.3C66.6 65.45 66.59 65.75 66.89 65.61C67.03 65.55 67.16 65.44 67.19 65.68C67.21 65.82 67.2 65.97 67.16 66.11C67.1 66.28 66.95 66.26 66.81 66.22C66.36 66.08 66 65.76 65.54 65.59C65.23 65.48 65.09 65.23 64.99 65.72C64.99 65.74 64.78 65.75 64.75 65.71C64.57 65.49 64.4 65.25 64.25 65.01C64.17 64.88 64.21 64.72 64.33 64.63C64.44 64.54 64.58 64.5 64.7 64.43C65.03 64.23 65.05 64.06 64.87 63.62C64.76 63.34 64.54 63.25 64.3 63.33C63.98 63.42 63.66 63.54 63.46 63.85C62.83 64.07 62.75 64.08 62.61 63.5C62.48 62.92 61.68 63.2 61.66 62.55C61.45 63.06 61.83 63.36 61.93 63.73C62.04 64.15 61.9 64.47 61.61 64.75C61.28 64.6 61.52 64.21 61.29 64.04C61.1 63.9 60.87 63.82 60.7 63.67C60.61 63.59 60.61 63.41 60.56 63.28C60.55 63.22 60.55 63.16 60.54 63.1C60.53 62.98 60.52 62.86 60.53 62.73C60.53 62.6 60.54 62.48 60.54 62.35C60.68 61.79 60.22 61.56 59.94 61.23C60.4 60.17 61.07 59.26 61.83 58.4C62.05 58.15 62.31 57.92 62.61 57.77C63.68 57.25 64.77 56.78 65.84 56.26C66.68 55.86 67.4 56.14 68.12 56.58C68.08 56.63 68.03 56.68 67.99 56.74C67.14 56.93 66.42 57.22 65.95 58.1C65.48 59 65.06 59.7 66.01 60.59C66.52 61.1 66.93 61.84 66.64 62.69Z" fill="#F2BC00"/>
<path d="M59.37 39.9599C59.4 39.8199 59.4 39.5099 59.53 39.2699C60.27 37.8299 60.9 36.3299 62.24 35.2499C63.05 34.5999 63.67 33.6999 64.31 32.8599C64.6 32.4799 64.88 32.1999 65.36 32.2399C65.91 32.2899 66.4 32.1399 66.88 31.8799C67.29 31.6499 67.71 31.6199 68.1 31.9199C68.37 32.1299 68.68 32.2399 69.01 32.3299C69.66 32.4999 70.07 32.9399 70.35 33.5499C70.76 34.4299 70.85 35.4099 71.18 36.3099C71.24 36.4699 71.18 36.6899 71.12 36.8699C70.88 37.5999 70.59 38.2999 70.26 38.9999C69.7 40.2099 69 41.2099 67.85 41.9299C67.25 42.2999 66.82 42.9299 66.32 43.4599C66.09 43.7099 65.84 43.9199 65.56 44.1199C64.79 44.6799 63.92 44.6899 63.09 44.4499C62 44.1399 60.86 43.8599 60.16 42.8199C59.85 42.3499 59.38 40.8799 59.37 39.9599Z" fill="#F2BC00"/>
<path d="M1.70998 50.25C1.16998 49.35 0.459981 48.55 0.159981 47.51C-0.0100187 46.93 -0.0700187 46.39 0.149981 45.83C0.449981 45.07 0.719981 44.3 1.01998 43.54C1.08998 43.37 1.22998 43.22 1.34998 43.08C1.40998 43.01 1.52998 42.99 1.58998 42.92C2.76998 41.26 4.72998 40.46 6.03998 38.94C6.34998 38.58 6.76998 38.33 7.15998 38.04C7.30998 37.93 7.49998 37.8 7.66998 37.8C8.45998 37.82 9.17998 37.53 9.90998 37.3C10.3 37.18 10.66 37.18 11.01 37.42C11.17 37.53 11.33 37.67 11.51 37.71C12.5 37.91 13.02 38.64 13.56 39.4C14.38 40.55 14.39 41.71 13.79 42.93C13.73 43.06 13.64 43.18 13.56 43.3C13.41 43.46 13.47 43.72 13.3 43.86V43.87C13.21 43.98 13.09 44.05 13.03 44.18V44.19C12.7 44.31 12.62 44.08 12.55 43.84C12.55 43.72 12.57 43.6 12.61 43.48C12.67 43.31 12.75 43.14 12.82 42.97C12.87 42.85 12.92 42.74 12.97 42.62C13.39 41.72 13.29 40.88 12.67 40.1C12.59 40 12.51 39.89 12.43 39.79C11.53 38.54 10.15 39.13 8.98998 38.9C8.86998 38.92 8.73998 38.94 8.61998 38.95C8.24998 38.99 7.87998 39.02 7.57998 39.27C5.97998 40.92 3.86998 42.04 2.63998 44.07C2.33998 44.57 2.05998 45.06 1.94998 45.64C1.77998 46.13 1.85998 46.67 1.71998 47.16C1.41998 48.26 1.84998 48.85 2.88998 49.12C4.49998 49.68 5.74998 48.79 7.05998 48.12C7.26998 48.02 7.49998 47.96 7.71998 47.88C7.81998 47.83 7.90998 47.78 8.00998 47.72C8.09998 47.65 8.17998 47.58 8.26998 47.51C8.30998 47.47 8.35998 47.44 8.39998 47.4C8.48998 47.32 8.58998 47.26 8.69998 47.22C8.81998 47.19 8.93998 47.19 9.05998 47.21C9.42998 47.38 9.44998 47.65 9.26998 47.97C9.21998 48.43 8.86998 48.64 8.50998 48.72C7.84998 48.85 7.43998 49.29 6.99998 49.72C6.58998 50.12 6.12998 50.46 5.75998 50.89C5.44998 51.25 5.08998 51.41 4.63998 51.41C4.06998 51.41 3.49998 51.38 2.92998 51.36C2.46998 51.04 2.11998 50.61 1.70998 50.25Z" fill="#F2BC00"/>
<path d="M37.96 26.3999C37.6 27.2499 37.77 28.4899 36.94 29.4299C36.63 29.7899 36.44 30.2499 36.17 30.6499C35.92 30.9999 35.66 31.3599 35.35 31.6599C33.9 33.0799 32.16 34.0899 30.39 35.0699C28.89 35.9099 27.32 35.1599 26.49 33.7699C25.82 32.6399 26.2 31.5899 26.52 30.5899C26.82 29.6599 27.25 28.7499 28.18 28.1199C28.83 27.6799 29.28 26.9299 29.75 26.2699C30.01 25.9099 30.24 25.5699 30.64 25.3499C30.8 25.2599 30.95 25.1099 31.02 24.9499C31.44 23.9999 32.35 23.7399 33.18 23.3899C33.75 23.1499 34.39 23.0699 34.98 22.8699C35.41 22.7199 35.74 22.8499 36.03 23.1399C36.5 23.6199 36.94 24.1299 37.42 24.6099C37.88 25.0399 37.99 25.5899 37.96 26.3999Z" fill="#F2BC00"/>
<path d="M36.24 83.8999C36.23 83.9799 36.21 84.0599 36.17 84.1399C36.09 84.2399 36.01 84.3399 35.92 84.4299C35.82 84.5199 35.71 84.6099 35.64 84.7399C35.51 84.8099 35.42 84.9199 35.35 85.0599C35.33 85.1399 35.31 85.2299 35.27 85.2999C35.21 85.4099 35.13 85.4999 35.03 85.5799C34.71 86.4399 34.12 87.0399 33.25 87.3699C32.94 87.4899 32.65 87.6699 32.35 87.8199C31.27 88.3699 30.3 88.0799 29.41 87.3699C27.8 86.0899 27.18 82.8299 28.49 81.2099C28.55 81.1399 28.63 81.0599 28.64 80.9699C28.82 80.0299 29.27 79.2099 29.69 78.3499C29.92 77.8799 30.03 77.3899 30.43 77.0099C30.63 76.8199 30.82 76.5599 30.9 76.2899C31.33 74.9399 32.46 74.5799 33.64 74.2799C33.87 74.2199 34.14 74.2599 34.34 74.1399C34.92 73.7999 35.42 73.8099 35.88 74.3499C35.94 74.4199 36.04 74.4699 36.13 74.4799C37.72 74.6099 38.05 75.9299 38.47 77.0799C38.73 77.7799 38.93 78.5699 38.57 79.3299C38.75 80.4699 38.04 81.3399 37.66 82.3099C37.44 82.8699 36.97 83.2199 36.51 83.5699C36.4 83.6599 36.28 83.7499 36.24 83.8999Z" fill="#F2BC00"/>
<path d="M54.72 90.21C54.2 90.82 53.42 90.85 52.74 91.1C51.94 90.64 51.1 91 50.28 90.98C49.2 90.95 47.95 89.81 47.68 88.66C47.57 88.19 47.4 87.76 47.22 87.33C47.06 86.21 47.61 85.17 47.52 84.06C47.88 83.46 47.98 82.73 48.4 82.15C49.58 82.17 49.79 80.8 50.75 80.5C50.93 80.44 51.12 80.4 51.3 80.33C51.68 80.19 52.04 79.7 52.46 80.13C52.88 80.57 52.57 81.03 52.32 81.44C52.09 81.83 52 82.23 52.13 82.68C52.6 84.29 51.34 85.27 50.68 86.46C50.44 86.9 49.78 86.41 49.33 86.55C49.2 88.92 49.2 88.92 50.73 88.67C50.86 88.63 50.99 88.61 51.12 88.59C52.01 88.56 52.2 88.12 51.85 87.35C51.73 87.09 51.59 86.77 51.86 86.55C52.19 86.27 52.49 86.56 52.78 86.71C53.53 87.11 53.9 87.89 54.48 88.46C54.54 88.58 54.57 88.7 54.56 88.83C54.38 89.31 54.46 89.77 54.72 90.21Z" fill="#F2BC00"/>
<path d="M14.71 16.57C14.85 16.33 15.04 16.14 15.29 16.01C16.08 15.84 16.71 15.18 17.56 15.2C18.1 15.21 18.73 14.94 19.14 15.56C19.09 15.89 18.82 16.05 18.56 16.1C17.2 16.41 16.34 17.42 15.42 18.33C15.3 18.41 15.17 18.39 15.05 18.32C15.07 18.39 15.15 18.42 15.19 18.47C15.51 18.89 15.54 19.26 15.03 19.56C14.93 19.6 14.86 19.53 14.79 19.47C14.79 19.57 14.84 19.64 14.94 19.69C15.72 20.29 16.67 20.02 17.53 20.21C17.65 20.28 17.72 20.39 17.73 20.53C17.13 21.44 16.23 21.42 15.31 21.27C14.77 21.18 14.26 21.07 13.88 21.81C14.98 21.88 15.85 22.29 16.37 23.29C16.6 23.73 17.07 23.69 17.52 23.49C17.87 23.33 18.24 22.91 18.66 23.4C18.19 25.21 16.84 26.25 15.21 26.71C12.97 27.34 11.03 24.97 11.47 22.67C11.92 20.26 13.07 18.31 14.71 16.57Z" fill="#F2BC00"/>
<path d="M19.11 15.7502C18.3 15.2502 17.46 15.3802 16.64 15.7002C16.33 15.8202 16.08 16.0702 15.78 16.2202C15.58 16.3202 15.42 16.1702 15.3 16.0102L15.33 16.0202C15.47 15.9802 15.54 15.8502 15.64 15.7502C15.74 15.6602 15.84 15.5702 15.94 15.4902L15.96 15.4702C16.03 15.3702 16.11 15.2902 16.22 15.2402C16.31 15.2002 16.4 15.1802 16.5 15.1702C16.6 15.0802 16.72 15.0702 16.83 15.1502C16.91 15.1402 16.98 15.1402 17.06 15.1502C17.42 14.8902 17.89 15.1702 18.25 14.9102C18.34 14.8802 18.43 14.8702 18.53 14.8702C18.64 14.7802 18.75 14.7802 18.85 14.8702C18.94 14.8702 19.03 14.8802 19.12 14.9002C19.22 15.0002 19.33 15.0902 19.47 15.1402C19.55 15.1502 19.63 15.1602 19.7 15.2002C19.86 15.3602 20.12 15.3002 20.27 15.4702H20.28C20.38 15.5602 20.47 15.6602 20.58 15.7502C20.74 15.9502 21.01 15.8902 21.19 16.0202C21.62 16.0702 21.91 16.3002 22.01 16.7202C22.47 18.4802 22.36 20.1702 21.02 21.5302C20.27 22.2902 19.53 23.0702 19.03 23.9702C18.49 24.9402 17.81 25.8102 17.27 26.7702C16.93 27.3802 16.45 27.6802 15.82 27.8302C15.54 27.9002 15.24 27.9002 14.98 28.0102C13.83 28.4702 12.93 27.9002 12.02 27.3502C11.98 27.3302 11.95 27.2802 11.91 27.2502C10.93 26.5702 10.47 25.7602 10.65 24.4502C10.79 23.4102 10.86 22.3702 11.2 21.3502C11.36 20.8802 11.6 20.4802 11.88 20.1002C11.99 20.0002 12.09 19.9002 12.14 19.7602C12.14 19.6802 12.16 19.6002 12.18 19.5202C12.28 19.4202 12.38 19.3202 12.42 19.1702C12.42 19.0902 12.44 19.0102 12.48 18.9402C12.57 18.8402 12.65 18.7402 12.74 18.6402C12.93 18.5102 12.87 18.2302 13.06 18.0902L13.07 18.0702C13.15 17.9602 13.24 17.8702 13.34 17.7902L13.35 17.7802C13.44 17.6802 13.53 17.5802 13.62 17.4902C13.73 17.4002 13.82 17.2902 13.89 17.1702C13.98 17.0802 14.07 16.9802 14.15 16.8902C14.28 16.8302 14.38 16.7402 14.49 16.6502C14.57 16.6202 14.65 16.6002 14.73 16.5802C14.92 16.7202 14.95 16.8902 14.78 17.0502C14.18 17.6102 13.72 18.2802 13.21 18.9102C12.54 19.7302 12.23 20.6502 12.18 21.6802C12.16 22.1702 12.09 22.6102 11.79 23.0202C11.47 23.4502 11.53 23.9402 11.92 24.3302C12.28 24.6902 12.46 25.1002 12.52 25.5902C12.55 25.8402 12.73 26.0402 12.97 26.1002C13.52 26.2502 14.08 26.3802 14.64 26.4702C15.02 26.5302 15.38 26.4702 15.74 26.2402C16.81 25.5602 17.67 24.6802 18.46 23.7102C18.54 23.6102 18.53 23.4402 18.55 23.3002C19.07 22.2702 19.59 21.2302 20.31 20.3202C20.62 19.9402 20.88 19.5402 21.12 19.1102C21.17 19.0002 21.22 18.8902 21.26 18.7802C21.34 18.5302 21.26 18.3102 21.14 18.0902C21.08 17.9902 21.03 17.8902 20.99 17.7902C20.91 17.5902 20.87 17.3902 20.77 17.2002C20.71 17.1202 20.66 17.0302 20.6 16.9502C20.5 16.8302 20.4 16.7202 20.29 16.6102C20.21 16.5402 20.14 16.4702 20.07 16.3902C19.99 16.3202 19.91 16.2602 19.82 16.2002C19.77 16.1802 19.73 16.1502 19.68 16.1202C19.52 16.0502 19.37 15.9902 19.23 15.8902C19.18 15.8402 19.14 15.8002 19.11 15.7502Z" fill="#F2BC00"/>
<path d="M80.89 17.5299C80.88 17.6099 80.86 17.6899 80.83 17.7699C80.74 17.8699 80.65 17.9799 80.58 18.0899C80.56 18.1699 80.54 18.2599 80.51 18.3399C80.44 18.4499 80.36 18.5499 80.27 18.6499H80.26C80.16 18.7499 80.06 18.8399 79.99 18.9599C79.87 19.0299 79.77 19.1299 79.7 19.2499C79.57 19.3199 79.48 19.4299 79.42 19.5699C79.08 20.2899 78.34 20.6599 77.94 21.3299C77.86 21.4699 77.62 21.5199 77.44 21.5899C76.13 22.1099 74.9 21.8499 73.73 21.1599C73.57 21.0699 73.43 20.9099 73.35 20.7399C72.62 19.1999 72.4 17.6299 73.03 15.9899C73.31 15.2699 73.54 14.5399 73.8 13.8099C73.88 13.5899 73.92 13.2899 74.08 13.1599C74.97 12.4899 75.29 11.4499 75.87 10.5799C76.03 10.3399 76.2 10.1099 76.39 9.88986C76.85 9.35986 77.37 8.97985 78.14 9.06985C78.37 9.09985 78.62 9.04986 78.86 9.01986C79.86 8.88986 80.64 9.27986 81.28 10.0099C81.95 10.7899 82.38 11.7399 82.6 12.7099C82.76 13.4299 82.73 14.2399 82.38 14.9599C82.25 15.2199 82.11 15.4699 81.98 15.7299C81.83 15.7699 81.71 15.7399 81.6 15.6299C81.26 15.0699 81.52 14.4999 81.59 13.9499C81.79 12.5299 81.14 11.5299 80.01 10.7999C78.83 10.0399 77.81 10.2099 77 11.3599C75.98 12.8099 74.93 14.2599 74.43 15.9999C74.17 16.7599 74.17 17.5299 74.34 18.2999C74.4 18.4099 74.46 18.5299 74.52 18.6399C75.81 20.2399 77.94 19.9999 79.48 18.0599C79.83 17.6199 80.03 16.9999 80.79 17.1699C80.87 17.2299 80.91 17.3099 80.91 17.3899C80.92 17.4899 80.91 17.5299 80.89 17.5299Z" fill="#F2BC00"/>
<path d="M81.43 44.7602C81.83 44.0802 81.98 43.3402 81.96 42.5602C81.95 41.9702 82.02 41.4102 82.26 40.8702C82.3 40.7802 82.3 40.6502 82.36 40.6002C83.18 39.9802 83.49 38.9502 84.24 38.2702C84.97 37.6102 85.85 37.1802 86.72 36.8202C87.55 36.4802 88.51 36.4302 89.39 36.8702C90.04 37.1902 90.66 37.5502 91.32 37.8502C92.28 38.2802 92.67 39.0602 92.72 40.0302C92.76 40.7502 92.69 41.4802 92.68 42.2002C92.67 42.5102 92.47 42.7302 92.33 42.9802C92.01 43.5702 91.62 44.1202 91.55 44.8302C91.5 45.3502 91.1 45.6602 90.65 45.8802C89.87 45.6502 90.35 45.1202 90.37 44.7002C90.41 44.5602 90.46 44.4302 90.52 44.3002C91.43 42.9502 91.78 41.5502 91.06 39.9702C90.36 38.4402 89.19 37.8902 87.56 38.2802C85.4 38.8002 84.43 40.4702 83.52 42.2302C83.1 42.7902 83.05 43.4802 82.85 44.1202C82.82 44.2602 82.78 44.4002 82.73 44.5402C82.69 44.7302 82.68 44.9302 82.64 45.1102C82.54 45.5302 82.48 46.1002 81.92 45.9902C81.3 45.8602 81.12 45.3602 81.43 44.7602Z" fill="#F2BC00"/>
<path d="M50.7 80.6601C50.24 81.4001 49.58 81.9601 48.92 82.5001C48.58 82.7801 48.44 82.4501 48.39 82.1301L48.4 82.1101C48.53 81.9201 48.83 81.9801 48.93 81.7501C48.94 81.6701 48.96 81.5901 48.99 81.5201C49.06 81.4201 49.15 81.3201 49.24 81.2401C49.62 80.3401 50.66 80.1001 51.16 79.3301C51.81 79.1801 52.43 78.7501 53.11 78.9701C53.58 79.1301 54.05 79.1501 54.52 79.2201C55.28 79.3301 55.89 79.6901 56.09 80.5001C56.17 80.8301 56.25 81.1501 56.53 81.3801C56.88 81.6701 57.04 82.0601 57.11 82.5101C57.14 82.6901 57.21 82.9001 57.32 83.0401C58.19 84.0401 57.69 85.1401 57.59 86.2101C57.59 86.2601 57.57 86.3101 57.54 86.3401C56.63 87.2101 56.28 88.4901 55.39 89.3701C54.87 89.4801 54.46 89.4301 54.47 88.7501C54.85 87.9501 55.1 87.1101 55.13 86.1501C54.47 86.4101 53.88 86.1801 53.57 85.4601C53.24 84.6801 53.18 83.8201 53.54 83.0801C53.83 82.4901 54.44 82.6001 54.88 83.0301C55.25 83.4001 55.58 83.7901 56.13 83.9301C55.36 80.2901 53.71 79.2901 50.7 80.6601Z" fill="#F2BC00"/>
<path d="M29.78 8.5299C29.5 8.4699 29.29 8.4799 29.13 8.3899C28.28 7.9099 27.76 7.1299 27.63 6.1999C27.55 5.6599 27.69 5.0299 27.92 4.5099C28.55 3.0599 29.52 1.8899 31.04 1.2799C31.84 0.959904 32.65 0.699904 33.51 0.519904C34.47 0.319904 35.19 0.469904 35.83 1.2299C36.22 1.6999 36.52 2.0599 36.25 2.7499C36.09 3.1699 36.14 3.6899 35.98 4.1499C35.86 4.4799 35.73 4.7699 35.48 5.0099C35.17 5.3099 34.95 5.7199 34.65 5.9999C33.26 7.3499 31.55 8.0699 29.78 8.5299Z" fill="#F2BC00"/>
<path d="M19.09 52.7899C19.09 52.6999 19.11 52.6199 19.14 52.5399C19.29 52.3699 19.24 52.1199 19.38 51.9499V51.9399C20.29 52.1499 19.93 52.7799 19.78 53.2799C19.12 55.5699 19.64 56.7899 21.78 57.8199C22.15 57.7399 22.5 57.4999 22.9 57.6399C24.68 58.2799 25.87 57.5499 26.72 56.0099C26.84 55.7999 27 55.6199 27.15 55.4299C27.31 55.2299 27.43 55.0099 27.53 54.7699C27.63 54.5299 27.77 54.3099 27.93 54.1099C28.01 53.9999 28.09 53.9099 28.17 53.8099C28.21 53.7599 28.25 53.7099 28.29 53.6599C28.76 53.3499 28.46 52.1899 29.52 52.5399C29.95 53.2399 29.56 53.8499 29.26 54.4299C28.8 55.3199 28.39 56.2299 28.02 57.1699C27.88 57.5199 27.65 57.8399 27.44 58.1599C27.17 58.5799 26.82 58.8499 26.29 58.9299C25.88 58.9899 25.49 59.2399 25.08 59.3699C24.63 59.5199 24.17 59.8299 23.7 59.7199C22.73 59.4799 21.69 59.5599 20.75 59.1399C19.9 58.7499 19.12 58.3199 19 57.2399C18.97 56.9799 18.73 56.7399 18.6 56.4899C18.06 55.4399 18.08 54.3699 18.55 53.3099C18.58 53.2299 18.68 53.1799 18.75 53.1099C18.91 53.0399 19.02 52.9299 19.09 52.7899Z" fill="#F2BC00"/>
<path d="M14.76 77.7599C14.09 78.3199 13.37 78.7099 12.52 78.9999C11.56 79.3299 10.72 79.0399 9.84 78.8699C9.58 78.8199 9.34 78.5899 9.13 78.3999C8.55 77.8699 8.17 77.1999 7.83 76.4999C7.04 74.8699 6.75 73.1399 6.9 71.3299C6.93 70.9699 7.3 70.7299 7.32 70.4399C7.38 69.3099 8.07 68.6399 8.89 68.0399C8.93 68.0099 8.94 67.9599 8.97 67.9199C9.67 68.0199 9.74 68.4799 9.49 68.9999C9.32 69.3499 9.25 69.6899 9.2 70.0499C8.58 71.1599 8.43 72.3999 8.3 73.6299C8.1 75.4899 10.21 77.6799 12.08 77.5999C12.79 77.5699 13.51 77.5999 14.2 77.3699C14.5 77.3499 14.83 77.2699 14.76 77.7599Z" fill="#F2BC00"/>
<path d="M68.11 69.4099C67.81 70.0299 67.24 70.2799 66.63 70.4699C66.4 70.5399 66.11 70.5999 65.93 70.4399C65.45 69.9899 64.96 70.1499 64.46 70.3299C63.7 70.6199 62.97 70.7199 62.28 70.1499C62.04 69.9599 61.75 69.9199 61.46 69.9299C60.92 69.9399 60.56 69.6199 60.26 69.2299C59.99 68.8899 59.79 68.4899 59.48 68.1999C58.58 67.3299 58.63 66.3499 59.08 65.2999C59.43 64.9399 59.19 64.4899 59.26 64.0799C59.27 63.7899 59.22 63.4999 59.35 63.2299C60.27 62.9699 60.12 63.6399 60.1 64.1199C60.04 66.2199 60.86 67.8399 62.66 68.9599C63.92 69.3899 65.13 69.0299 66.36 68.7799C67.05 68.5099 67.71 68.1999 68.39 67.9099C69 67.6799 69.19 67.8799 68.97 68.4899C68.73 68.6399 68.52 68.8099 68.4 69.0799V69.0699C68.27 69.1599 68.18 69.2699 68.11 69.4099Z" fill="#F2BC00"/>
<path d="M29.53 52.5499C29.24 52.5799 28.99 52.6899 28.97 53.0199C28.94 53.4599 28.8 53.8099 28.37 53.9899C27.95 53.5999 28.08 53.1099 28.13 52.6299C28.39 49.5999 25.36 48.3099 23.4 49.0899C21.66 49.7899 20.81 51.1599 20.38 52.9999C20.03 54.4799 20.36 55.6299 21.2 56.7599C21.26 56.8699 21.31 56.9899 21.37 57.0999C21.46 57.5699 22.16 57.7199 22 58.3199C21.61 58.3299 21.23 58.3199 20.97 57.9599C20.86 57.8099 20.75 57.6199 20.6 57.5399C19.12 56.6899 19.02 55.2999 19.14 53.8299C19.16 53.5699 19.39 53.3299 19.51 53.0799C19.71 52.6699 19.8 52.2699 19.37 51.9299C19.39 51.0999 19.76 50.4599 20.38 49.9399C20.82 49.5699 21.22 49.1399 21.68 48.7899C22.9 47.8499 24.34 47.7099 25.79 47.8899C26.8 48.0199 27.62 48.6899 28.42 49.2999C28.49 49.3499 28.56 49.4499 28.58 49.5399C28.73 50.2099 29.16 50.7599 29.37 51.3899C29.49 51.7799 29.48 52.1699 29.53 52.5499Z" fill="#F2BC00"/>
<path d="M81.43 44.7599C81.44 45.0399 81.4 45.3499 81.62 45.5699C81.71 45.6599 81.85 45.7299 81.98 45.7499C82.15 45.7699 82.22 45.6199 82.26 45.4799C82.39 45.0399 82.12 44.4999 82.59 44.1499C83 44.5099 82.85 45.0299 82.97 45.4699C83 45.5699 83.03 45.6799 83.05 45.7899C83.11 45.9899 83.19 46.1799 83.28 46.3699C83.33 46.4599 83.37 46.5499 83.41 46.6399C83.46 46.7299 83.51 46.8099 83.57 46.8999C83.6 46.9399 83.63 46.9799 83.67 47.0199C83.74 47.0999 83.81 47.1799 83.88 47.2699C83.95 47.3599 84.02 47.4499 84.09 47.5399C84.24 47.7299 84.42 47.8599 84.64 47.9599C84.76 47.9999 84.87 48.0499 84.99 48.0899C85.9 48.1499 86.83 48.3999 87.63 47.7199C88.33 47.1899 88.74 46.4199 89.29 45.7699C89.66 45.3399 89.93 44.6599 90.7 44.7399C90.64 44.9599 90.59 45.1799 90.52 45.3999C90.46 45.5999 90.49 45.7599 90.67 45.8799C90.36 46.2399 90.09 46.6299 89.98 47.1099C89.55 48.9999 88.1 49.6199 86.43 49.9799C85.8 50.1099 85.2 50.1699 84.7 49.6299C84.61 49.5299 84.45 49.4299 84.33 49.4399C83.61 49.4899 83.22 48.9599 82.72 48.5899C82.31 48.2899 82 47.9499 82.13 47.3899C82.19 47.1199 82.01 46.9399 81.88 46.7499C81.67 46.4299 81.43 46.1199 81.26 45.7799C81.08 45.4099 81.01 45.0299 81.43 44.7599Z" fill="#F2BC00"/>
<path d="M14.76 77.76C14.63 77.52 14.42 77.47 14.18 77.47C14.11 77.41 14.08 77.34 14.11 77.28C14.13 77.22 14.16 77.18 14.18 77.18C14.54 77.18 14.85 77.02 15.04 76.72C15.45 76.08 15.89 75.45 16.17 74.76C16.51 73.92 16.7 73.02 16.96 72.15C16.99 72.06 17.02 71.93 16.98 71.87C16.5 71.11 16.58 70.21 16.35 69.39C16.2 68.87 15.84 68.5 15.37 68.19C14.85 67.86 14.27 67.6 13.86 67.1C13.77 66.99 13.73 66.84 13.84 66.71C14.11 66.39 14.54 66.42 14.89 66.28C15.16 66.18 15.29 66.45 15.48 66.59C15.71 66.76 15.97 66.88 16.22 67.02C16.94 67.93 17.34 69.02 17.91 70.02C18.14 70.43 18.17 70.89 18 71.4C17.64 72.49 17.38 73.61 17.08 74.72C17.07 74.77 17.08 74.83 17.06 74.86C16.19 75.76 15.95 77.14 14.76 77.76Z" fill="#F2BC00"/>
<path d="M42 7.91992C42.01 7.96992 42.01 8.01992 42.03 8.05992C42.21 8.60992 42.92 8.66992 43.09 9.32992C43.2 9.77992 43.8 10.0899 44.14 10.4899C44.71 11.1599 45.51 11.3599 46.28 11.6099C46.45 11.6599 46.66 11.6199 46.84 11.5699C47.02 11.5199 47.19 11.4199 47.37 11.3399C47.56 11.2499 47.78 11.2199 47.87 11.4299C47.98 11.6699 47.71 11.7299 47.56 11.8299C46.79 12.3999 45.88 12.5999 44.98 12.5299C44.16 12.4599 43.39 12.0699 43.18 11.1399C43.09 10.7399 42.89 10.5799 42.53 10.4899C41.99 10.3499 41.97 10.3499 41.71 11.1299C41.36 10.8699 41.27 10.4399 41.32 10.0899C41.44 9.33992 41.45 8.53992 42 7.91992Z" fill="#F2BC00"/>
<path d="M69.27 57.1602C69.75 57.5602 70.22 57.9502 70.7 58.3502C71.01 59.5802 72.04 60.5502 71.99 61.9102C71.97 62.0502 71.9 62.1502 71.78 62.2202C71.64 62.2302 71.52 62.1902 71.41 62.1202C70.39 61.6002 70.05 60.3402 68.96 59.9002C68.87 59.8102 68.79 59.7002 68.71 59.6002C68.59 59.4502 68.47 59.2902 68.35 59.1402C68.22 59.0002 68.1 58.8502 67.97 58.7202C67.29 58.0802 67.25 57.6002 68.32 57.4402C68.64 57.3802 68.96 57.2902 69.27 57.1602Z" fill="#F2BC00"/>
<path d="M8.95996 69.9402C8.95996 69.6102 8.94996 69.2702 9.18996 69.0002C9.57996 68.5502 9.29996 68.2302 8.96996 67.9202C8.95996 67.4902 9.17996 67.2102 9.54996 67.0302C9.92996 66.8402 10.31 66.6502 10.69 66.4602C11.05 66.3702 11.41 66.2602 11.78 66.1902C12.01 66.1502 12.24 66.2202 12.44 66.3902C12.67 66.5802 12.67 66.9602 12.43 67.1202C12.35 67.1702 12.27 67.2602 12.19 67.2602C11.28 67.3102 10.76 67.8702 10.33 68.6002C10.22 68.7902 9.98996 68.9102 9.81996 69.0702C9.72996 69.1702 9.61996 69.2602 9.52996 69.3602C9.28996 69.4902 9.51996 70.1102 8.95996 69.9402Z" fill="#F2BC00"/>
<path d="M51.86 8.8002C51.62 8.4802 51.29 8.4502 50.97 8.5902C50.76 8.6802 50.62 8.9302 50.41 9.0102C50.05 9.1402 49.83 9.2902 49.95 9.7302C49.98 9.8302 49.88 10.0002 49.8 10.1002C49.72 10.2002 49.57 10.2902 49.45 10.3002C49.27 10.3102 49.23 10.1302 49.27 9.9902C49.55 8.8802 49.89 7.8002 51 7.2002C51.25 7.0602 51.51 6.9402 51.73 6.7502C52.11 6.4102 52.43 6.6302 52.77 6.8102C52.76 7.6102 52.33 8.2102 51.86 8.8002Z" fill="#F2BC00"/>
<path d="M69.27 57.1601C69.22 57.4501 69.12 57.7101 68.78 57.7401C68.5 57.7701 68.22 57.7601 67.94 57.7801C67.87 57.7901 67.77 57.8701 67.76 57.9401C67.75 58.0101 67.79 58.1301 67.85 58.1801C68.03 58.3301 68.24 58.4301 68.42 58.5801C68.62 58.7401 68.65 58.9801 68.67 59.2101C68.77 59.3001 68.86 59.4101 68.96 59.5001C69.24 59.9701 69.01 60.1501 68.56 60.2101C67.98 59.9001 67.23 60.0101 66.76 59.4201C66.35 58.9101 66.09 58.4501 66.39 57.7301C66.68 57.0401 67.06 56.8601 67.72 57.0301C68.12 57.1401 68.03 56.8101 68.1 56.6201L68.12 56.5801C68.55 56.6701 68.97 56.8001 69.27 57.1601Z" fill="#F2BC00"/>
<path d="M47.21 87.3203C47.55 87.5503 47.73 87.9103 47.76 88.2803C47.8 88.7903 48.08 89.1503 48.33 89.5603C48.51 89.8603 48.67 90.1103 49.09 90.0903C49.24 90.0803 49.43 90.2503 49.55 90.3803C49.85 90.6903 50.16 90.8103 50.57 90.5903C50.65 90.5503 50.77 90.5103 50.84 90.5403C51.43 90.7403 51.59 90.4203 51.65 89.9203C51.66 89.8603 51.79 89.7903 51.87 89.7803C51.95 89.7803 52.05 89.8403 52.1 89.9003C52.3 90.1303 52.29 90.4003 52.25 90.7003C52.21 91.0103 52.51 91.0403 52.74 91.0803C50.17 91.9803 47.94 90.8003 47.49 88.5603C47.4 88.1603 47.15 87.7703 47.21 87.3203Z" fill="#F2BC00"/>
<path d="M12.73 43.5702C12.73 43.8202 12.8 44.0402 13.04 44.1802C12.73 44.9702 12.14 45.4802 11.48 45.9802C10.69 46.5702 9.78997 47.0502 9.27997 47.9602C9.24997 47.5902 9.07997 47.3502 8.67997 47.3402C8.55997 46.8602 8.94997 46.6602 9.22997 46.4502C10.24 45.6702 11.21 44.8502 12.01 43.8402C12.17 43.6202 12.4 43.4402 12.73 43.5702Z" fill="#F2BC00"/>
<path d="M71.86 62.1201C71.8 61.4701 71.81 60.7901 71.09 60.4401C70.96 59.7401 70.62 59.0801 70.71 58.3501C70.84 58.4901 70.96 58.6401 71.11 58.7601C71.5 59.1001 72.11 59.3201 72.12 59.9101C72.13 60.7501 72.43 61.6301 71.89 62.4201C71.81 62.3601 71.78 62.2901 71.8 62.2201C71.81 62.1501 71.83 62.1201 71.86 62.1201Z" fill="#F2BC00"/>
<path d="M68.96 68.49C68.95 68.12 68.76 67.92 68.38 67.91C68.85 67.13 69.66 66.63 70.1 65.82C70.17 65.69 70.35 65.79 70.44 65.92C70.46 67.07 69.87 67.87 68.96 68.49Z" fill="#F2BC00"/>
<path d="M70.98 65.3002C70.89 65.2002 70.79 65.1102 70.7 65.0102C70.61 64.9502 70.59 64.8802 70.62 64.8202C70.65 64.7602 70.68 64.7202 70.71 64.7202C70.71 64.2402 70.71 63.7502 70.71 63.2702C70.58 62.5702 70.76 62.1002 71.58 62.1202C71.76 62.3102 71.74 62.5102 71.6 62.7202C71.52 63.6102 71.64 64.5402 70.98 65.3002Z" fill="#F2BC00"/>
<path d="M54.47 88.77C54.69 89.11 55.08 89.19 55.39 89.39C55.31 89.78 55.1 90.07 54.72 90.21C54.43 90.2 54.17 90.11 54.02 89.84C53.86 89.54 54.07 89.31 54.18 89.07C54.25 88.95 54.37 88.87 54.47 88.77Z" fill="#F2BC00"/>
<path d="M59.94 61.23C60.17 61.24 60.41 61.24 60.64 61.27C60.9 61.3 61.06 61.43 61.01 61.74C60.95 62.06 60.9 62.38 60.85 62.7C60.25 62.73 60.01 62.13 59.51 61.98C59.47 61.93 59.43 61.88 59.39 61.82C59.48 61.54 59.68 61.36 59.94 61.23Z" fill="#F2BC00"/>
<path d="M1.70996 50.25C2.39996 50.3 2.87996 50.6 2.92996 51.36C1.85996 51.3 1.85996 51.3 1.70996 50.25Z" fill="#F2BC00"/>
<path d="M59.4 63.2801C59.4 63.5701 59.4 63.8601 59.39 64.1501C59.3 64.2801 59.21 64.2801 59.12 64.1601C59.12 63.5901 59.11 63.0301 59.11 62.4601C59.11 62.2101 59.19 62.0001 59.38 61.8301L59.42 61.8701C59.8 62.3301 59.76 62.8101 59.4 63.2801Z" fill="#F2BC00"/>
<path d="M42.28 11.9902C42.76 12.2302 43.13 12.5402 43.17 13.1202C42.67 12.9002 42.34 12.5502 42.28 11.9902Z" fill="#F2BC00"/>
<path d="M18.23 14.9102C17.9 15.3002 17.46 15.1502 17.04 15.1502C17.39 14.7902 17.82 14.8802 18.23 14.9102Z" fill="#F2BC00"/>
<path d="M46.36 0.97998C46.18 1.33998 45.89 1.52998 45.49 1.56998C45.63 1.14998 45.93 0.97998 46.36 0.97998Z" fill="#F2BC00"/>
<path d="M59.13 64.1501C59.22 64.1501 59.31 64.1501 59.4 64.1401C59.36 64.5401 59.55 65.0101 59.08 65.2901C59.09 64.9101 59.11 64.5301 59.13 64.1501Z" fill="#F2BC00"/>
<path d="M41.7 11.1201C42.1 11.2801 42.2999 11.5701 42.2799 12.0001C41.9399 11.8101 41.73 11.5201 41.7 11.1201Z" fill="#F2BC00"/>
<path d="M42.29 7.93C42.19 7.93 42.09 7.93 41.99 7.92C41.99 7.51 41.92 7.08 42.28 6.75C42.29 7.15 42.29 7.54 42.29 7.93Z" fill="#F2BC00"/>
<path d="M68.39 69.0802C68.38 68.6902 68.57 68.5002 68.96 68.4902C68.85 68.7702 68.67 68.9702 68.39 69.0802Z" fill="#F2BC00"/>
<path d="M48.94 81.7603C48.87 82.0303 48.65 82.1003 48.41 82.1203C48.5 81.8703 48.72 81.8203 48.94 81.7603Z" fill="#F2BC00"/>
<path d="M51.57 9.38029C51.57 9.14029 51.63 8.92029 51.86 8.80029C51.86 9.04029 51.79 9.25029 51.57 9.38029Z" fill="#F2BC00"/>
<path d="M20.26 15.4602C20.03 15.4602 19.82 15.4102 19.69 15.1902C19.92 15.1802 20.13 15.2302 20.26 15.4602Z" fill="#F2BC00"/>
<path d="M21.17 16.02C20.92 16.04 20.69 16 20.56 15.75C20.8 15.75 21.02 15.8 21.17 16.02Z" fill="#F2BC00"/>
<path d="M81.71 15.7502C81.8 15.7502 81.89 15.7402 81.99 15.7402C82 15.9802 81.94 16.1902 81.74 16.3502C81.7 16.3102 81.65 16.2702 81.61 16.2302C81.57 16.1202 81.57 16.0002 81.6 15.8902C81.64 15.8402 81.67 15.8002 81.71 15.7502Z" fill="#F2BC00"/>
<path d="M81.74 16.3499C81.72 16.5799 81.64 16.7799 81.44 16.9199C81.4 16.8699 81.36 16.8199 81.32 16.7799C81.28 16.4999 81.32 16.2799 81.69 16.3099L81.74 16.3499Z" fill="#F2BC00"/>
<path d="M13.03 18.0898C13.01 18.3198 12.95 18.5298 12.71 18.6398C12.73 18.4098 12.8 18.1998 13.03 18.0898Z" fill="#F2BC00"/>
<path d="M13.3 43.85C13.31 43.62 13.35 43.42 13.56 43.29C13.58 43.52 13.52 43.72 13.3 43.85Z" fill="#F2BC00"/>
<path d="M19.38 51.96C19.39 52.19 19.36 52.41 19.14 52.55C19.12 52.31 19.17 52.1 19.38 51.96Z" fill="#F2BC00"/>
<path d="M71.58 62.7099C71.57 62.5099 71.57 62.3099 71.56 62.1099C71.66 62.1099 71.75 62.1099 71.85 62.1099C71.86 62.2099 71.86 62.3099 71.87 62.4099C71.78 62.5199 71.68 62.6199 71.58 62.7099Z" fill="#F2BC00"/>
<path d="M19.09 52.79C19.05 52.96 18.95 53.07 18.78 53.12C18.88 53.01 18.98 52.9 19.09 52.79Z" fill="#F2BC00"/>
<path d="M13.03 44.1699C13.12 44.0699 13.21 43.9599 13.3 43.8599C13.21 43.9599 13.12 44.0599 13.03 44.1699Z" fill="#F2BC00"/>
<path d="M68.11 69.4101C68.14 69.2501 68.24 69.1401 68.4 69.0801C68.3 69.1901 68.21 69.3001 68.11 69.4101Z" fill="#F2BC00"/>
<path d="M12.12 19.7603C12.1 19.9203 12.01 20.0303 11.86 20.1003C11.95 19.9803 12.03 19.8703 12.12 19.7603Z" fill="#F2BC00"/>
<path d="M79.43 19.5602C79.46 19.4002 79.55 19.2902 79.71 19.2402C79.61 19.3502 79.52 19.4602 79.43 19.5602Z" fill="#F2BC00"/>
<path d="M12.41 19.1699C12.39 19.3299 12.31 19.4399 12.17 19.5199C12.24 19.3999 12.32 19.2899 12.41 19.1699Z" fill="#F2BC00"/>
<path d="M79.7 19.25C79.8 19.15 79.89 19.05 79.99 18.96C79.9 19.05 79.8 19.15 79.7 19.25Z" fill="#F2BC00"/>
<path d="M79.99 18.9599C80.08 18.8599 80.17 18.7599 80.26 18.6499C80.23 18.7999 80.14 18.9099 79.99 18.9599Z" fill="#F2BC00"/>
<path d="M80.27 18.6498C80.35 18.5498 80.43 18.4498 80.51 18.3398C80.49 18.4998 80.41 18.5898 80.27 18.6498Z" fill="#F2BC00"/>
<path d="M80.58 18.1003C80.66 17.9903 80.75 17.8803 80.83 17.7803C80.74 17.8803 80.66 17.9903 80.58 18.1003Z" fill="#F2BC00"/>
<path d="M13.31 17.79C13.22 17.88 13.13 17.98 13.04 18.07C13.07 17.93 13.17 17.83 13.31 17.79Z" fill="#F2BC00"/>
<path d="M13.6 17.4902C13.51 17.5902 13.42 17.6902 13.33 17.7802C13.41 17.6902 13.51 17.5902 13.6 17.4902Z" fill="#F2BC00"/>
<path d="M80.89 17.5299C80.88 17.4199 80.86 17.3099 80.85 17.1999L80.96 17.1099L81.1 17.1199L81.18 17.2299C81.08 17.3299 80.98 17.4299 80.89 17.5299Z" fill="#F2BC00"/>
<path d="M13.87 17.1699C13.78 17.2799 13.69 17.3899 13.6 17.4899C13.69 17.3799 13.78 17.2699 13.87 17.1699Z" fill="#F2BC00"/>
<path d="M81.43 16.9199C81.34 17.0299 81.26 17.1299 81.17 17.2399L81.12 17.1899C81.05 16.9599 81.16 16.8799 81.38 16.8799L81.43 16.9199Z" fill="#F2BC00"/>
<path d="M14.47 16.6401C14.36 16.7201 14.25 16.8001 14.13 16.8801C14.24 16.8001 14.36 16.7201 14.47 16.6401Z" fill="#F2BC00"/>
<path d="M15.62 15.75C15.57 15.9 15.47 15.99 15.31 16.02C15.36 15.86 15.47 15.78 15.62 15.75Z" fill="#F2BC00"/>
<path d="M15.92 15.4902C15.82 15.5802 15.72 15.6602 15.62 15.7502C15.72 15.6602 15.82 15.5702 15.92 15.4902Z" fill="#F2BC00"/>
<path d="M16.21 15.2402C16.12 15.3202 16.03 15.4002 15.95 15.4702C15.98 15.3302 16.06 15.2502 16.21 15.2402Z" fill="#F2BC00"/>
<path d="M16.82 15.15C16.71 15.16 16.6 15.16 16.49 15.17C16.59 14.98 16.7 14.98 16.82 15.15Z" fill="#F2BC00"/>
<path d="M18.83 14.8703C18.72 14.8703 18.61 14.8703 18.51 14.8703C18.62 14.7203 18.72 14.7203 18.83 14.8703Z" fill="#F2BC00"/>
<path d="M49.25 81.25C49.17 81.34 49.08 81.44 49 81.53C49.02 81.38 49.11 81.29 49.25 81.25Z" fill="#F2BC00"/>
<path d="M52.75 6.78998C52.84 6.67998 52.92 6.57998 53.01 6.47998C52.99 6.63998 52.9 6.73998 52.75 6.78998Z" fill="#F2BC00"/>
<path d="M36.24 83.9003C36.27 83.7303 36.36 83.6203 36.52 83.5703C36.42 83.6803 36.33 83.7903 36.24 83.9003Z" fill="#F2BC00"/>
<path d="M35.64 84.7402C35.73 84.6402 35.82 84.5302 35.92 84.4302C35.83 84.5302 35.74 84.6302 35.64 84.7402Z" fill="#F2BC00"/>
<path d="M35.36 85.05C35.39 84.89 35.49 84.78 35.65 84.73C35.55 84.84 35.46 84.95 35.36 85.05Z" fill="#F2BC00"/>
<path d="M35.04 85.5803C35.12 85.4903 35.2 85.3903 35.28 85.3003C35.2 85.3903 35.12 85.4803 35.04 85.5803Z" fill="#F2BC00"/>
<path d="M44.01 7.22005C44.01 7.09005 44.09 6.81005 44 6.62005C43.62 5.84005 43.9 5.29005 44.44 4.69005C45.02 4.05005 45.5 3.32005 45.95 2.59005C46.22 2.15005 46.57 1.88005 47 1.65005C47.69 1.28005 48.46 1.15005 49.2 1.00005C49.77 0.880047 50.37 0.920047 50.72 1.55005C50.88 1.84005 51.21 1.84005 51.47 1.95005C51.84 2.11005 52.06 2.36005 52.22 2.76005C52.41 3.25005 52.34 3.59005 51.95 3.90005C51.76 4.05005 51.49 4.15005 51.39 4.35005C51.01 5.12005 50.4 4.96005 49.79 4.81005C49.62 4.77005 49.47 4.55005 49.27 4.63005C49.1 4.70005 48.89 4.80005 48.82 4.95005C48.72 5.17005 48.93 5.27005 49.13 5.32005C49.32 5.37005 49.5 5.45005 49.69 5.45005C50 5.45005 50.4 5.13005 50.56 5.59005C50.68 5.92005 50.39 6.22005 50.2 6.50005C49.95 6.85005 49.68 7.19005 49.41 7.53005C49.26 7.73005 49.07 7.85005 48.81 7.90005C48.43 7.96005 48.13 7.75005 48.09 7.39005C48.06 7.05005 48.13 6.73005 48.23 6.40005C48.31 6.14005 48.02 5.75005 47.78 5.80005C47.34 5.89005 46.84 5.90005 46.56 6.35005C46.49 6.47005 46.42 6.63005 46.44 6.75005C46.48 6.92005 46.65 6.85005 46.78 6.84005C47.31 6.83005 47.33 6.84005 47.09 7.32005C46.98 7.54005 46.89 7.76005 46.92 8.01005C46.95 8.29005 47.07 8.32005 47.28 8.13005C47.45 7.98005 47.65 8.00005 47.79 8.16005C47.87 8.26005 47.96 8.50005 47.93 8.52005C47.43 8.92005 47.27 9.55005 46.91 10.03C46.78 10.2 46.5 10.28 46.29 10.38C46.09 10.48 45.91 10.41 45.79 10.23C45.57 9.90005 45.4 9.57005 45.58 9.15005C45.71 8.84005 45.78 8.51005 45.91 8.20005C46.04 7.87005 45.9 7.65005 45.69 7.43005C45.49 7.22005 45.31 7.23005 45.19 7.52005C45.07 7.80005 44.94 8.04005 44.66 8.17005C44.49 8.25005 44.3 8.40005 44.13 8.25005C44 8.13005 43.93 7.93005 43.9 7.75005C43.89 7.62005 43.96 7.47005 44.01 7.22005Z" fill="#F2BC00"/>
<path d="M42.29 7.93018C42.33 7.95018 42.41 7.98018 42.4 8.00018C42.39 8.09018 42.34 8.07018 42.29 7.93018Z" fill="#F2BC00"/>
<path d="M8.95998 69.9399C9.14998 69.7499 9.34998 69.5499 9.53998 69.3599C9.47998 70.4899 10.19 70.9499 11.13 71.1799C11.45 71.2599 11.54 71.3899 11.42 71.6699C11.23 72.0899 11.33 72.6099 10.92 72.9799C10.8 73.0899 10.83 73.4499 10.89 73.6599C10.95 73.8799 11.13 74.0699 11.5 74.0699C11.59 73.4599 11.98 72.9999 12.38 72.5299C12.52 72.3599 12.53 71.9999 12.83 72.0899C13.25 72.2199 13.55 72.5499 13.72 72.9699C13.74 73.0299 13.66 73.1499 13.61 73.2099C13.43 73.4299 13.08 73.4499 12.96 73.7599C13.04 74.0999 13.33 73.9399 13.53 73.9899C13.71 74.0399 13.91 74.0599 14.08 74.1199C14.15 74.1499 14.22 74.2599 14.22 74.3399C14.22 74.3999 14.12 74.5299 14.08 74.5199C13.59 74.4899 13.32 74.8899 12.97 75.1099C12.47 75.4299 12.35 75.7799 12.51 76.2899C12.52 76.3299 12.54 76.3999 12.57 76.4199C12.92 76.6199 12.68 77.0899 12.94 77.2899C13.25 77.5299 13.56 77.1199 13.89 77.1799C13.98 77.1999 14.08 77.1799 14.18 77.1799C14.18 77.2799 14.18 77.3699 14.18 77.4699C14.05 77.6199 13.9 77.7299 13.69 77.7399C13.21 77.7799 12.74 77.8099 12.27 77.9399C11.28 78.2199 10.41 78.0499 9.66998 77.1899C9.02998 76.4499 8.55998 75.6199 7.98998 74.8499C7.70998 74.4699 7.74998 74.0099 7.87998 73.5999C7.99998 73.2299 8.09998 72.8699 8.08998 72.4799C8.05998 71.5199 8.39998 70.6899 8.95998 69.9399Z" fill="#F2BC00"/>
<path d="M12.73 69.9402C12.77 69.7602 12.9 69.5102 12.83 69.4102C12.58 69.0802 12.48 68.6002 11.99 68.5102C11.77 68.4702 11.51 68.5102 11.42 68.2102C12.06 67.8102 12.73 67.4802 13.52 67.6502C13.81 67.7102 14.06 67.8402 14.04 68.2102C14.02 68.4902 14.01 68.7602 13.96 69.0502C13.81 69.7502 13.39 69.9902 12.73 69.9402Z" fill="#F2BC00"/>
<path d="M12.73 69.9399C12.71 69.9799 12.68 70.0599 12.67 70.0499C12.57 70.0299 12.59 69.9899 12.73 69.9399Z" fill="#F2BC00"/>
<path d="M68.08 56.6301C68.16 56.7501 68.24 56.8701 68.32 56.9901C68.4 57.1101 68.53 57.2501 68.42 57.3701C68.34 57.4501 68.15 57.4801 68.03 57.4601C67.75 57.4101 67.48 57.3001 67.2 57.2401C67.12 57.2201 66.95 57.2501 66.94 57.2901C66.85 57.6501 66.77 58.0001 66.49 58.2901C66.37 58.4201 66.53 58.6501 66.66 58.7901C66.79 58.9301 66.95 59.0601 67.04 59.2201C67.23 59.5701 67.48 59.6401 67.86 59.5601C68.24 59.4801 68.34 59.7801 68.38 60.0901C68.37 60.1501 68.36 60.2101 68.34 60.2701C68.24 60.6301 68.51 60.8201 68.71 61.0501C68.84 61.1901 68.93 61.3501 68.95 61.5501C69.04 61.8701 69.15 62.1801 69.2 62.5101C69.25 62.7701 69.09 62.8501 68.86 62.7401C68.62 62.6301 68.41 62.5201 68.37 62.9201C68.35 63.1101 68.35 63.3001 68.32 63.4901C68.27 63.7801 68.03 63.8301 67.79 63.8701C67.7 63.7901 67.63 63.7001 67.56 63.6001C67.48 63.4501 67.39 63.2901 67.3 63.1501C67.27 63.1001 67.24 63.0501 67.21 63.0001C67.09 62.7701 66.87 62.7201 66.63 62.7101C66.47 62.3101 66.35 61.8901 66.16 61.5101C65.86 60.9101 65.51 60.3401 64.93 59.9401C64.66 59.7501 64.54 59.4901 64.99 59.3401C65.03 59.3301 65.11 59.2901 65.11 59.2701C65.11 58.6101 65.38 58.0801 65.92 57.7001C66.11 56.5801 66.93 56.5801 67.79 56.6401C67.89 56.6201 67.99 56.6201 68.08 56.6301Z" fill="#F2BC00"/>
<path d="M59.4 63.2802C59.41 62.8002 59.41 62.3302 59.42 61.8502C60.21 61.6002 60.51 62.1702 60.84 62.7002C60.84 62.8002 60.84 62.8902 60.84 62.9902C60.74 63.0802 60.64 63.1802 60.55 63.2802C60.05 63.8602 60.24 64.5302 60.36 65.1602C60.46 65.6602 60.67 66.1502 60.85 66.6402C60.91 66.8102 60.97 67.0402 61.11 67.1302C61.75 67.5502 62.05 68.2702 62.58 68.7902C62.65 68.8502 62.68 68.9202 62.65 68.9802C62.63 69.0402 62.6 69.0802 62.58 69.0802C61.3 68.7102 60.71 67.7102 60.28 66.5702C60.21 66.3902 60.24 66.1702 60.15 66.0102C59.8 65.3502 59.6 64.7102 59.93 63.9602C60.09 63.5902 59.82 63.3102 59.4 63.2802Z" fill="#F2BC00"/>
<path d="M68.96 61.5403C68.86 61.4403 68.77 61.3503 68.67 61.2503C68.5 60.8803 67.98 60.6003 68.38 60.0903C68.76 60.0803 68.95 59.8903 68.96 59.5103C69.27 59.7503 69.47 60.1803 70.03 59.9003C70.33 59.7503 70.49 60.0003 70.43 60.3703C70.33 60.9303 70.33 61.0203 70.82 61.2203C71.27 61.4003 71.56 61.6203 71.57 62.1203C71.05 62.3303 70.94 62.8503 70.7 63.2803C70.49 63.3503 70.31 63.5303 70.08 63.4603C70.05 63.3803 70 63.3303 70.01 63.3003C70.44 62.3603 70.16 61.6903 69.25 61.2503C69.15 61.3403 69.06 61.4403 68.96 61.5403Z" fill="#F2BC00"/>
<path d="M62.58 69.0699C62.58 68.9699 62.58 68.8799 62.58 68.7799C63.43 68.9599 64.29 68.9999 65.09 68.6599C65.56 68.4599 65.92 68.7999 66.34 68.7799C66.06 69.1499 65.66 69.3299 65.22 69.3399C64.45 69.3599 63.69 69.3399 62.92 69.2999C62.81 69.2999 62.7 69.1499 62.58 69.0699Z" fill="#F2BC00"/>
<path d="M70.7 64.7199C70.7 64.8199 70.7 64.9099 70.7 65.0099C70.44 65.1099 70.19 65.3499 69.9 65.2399C69.5 65.0799 69.22 64.7499 69.03 64.3599C69 64.2899 69.01 64.1399 69.06 64.0899C69.16 63.9999 69.3 63.8999 69.42 63.8999C70.01 63.9099 70.31 64.3899 70.7 64.7199Z" fill="#F2BC00"/>
<path d="M67.8 63.56C67.8 63.66 67.8 63.75 67.8 63.85C66.8 63.84 66.8 63.84 66.2 63.45C66.56 63.28 66.89 63.13 67.22 62.98C67.5 63.09 67.63 63.35 67.8 63.56Z" fill="#F2BC00"/>
<path d="M68.38 67.9099C67.8 68.4299 67.15 68.7799 66.35 68.7799C66.93 68.2599 67.58 67.8999 68.38 67.9099Z" fill="#F2BC00"/>
<path d="M64.13 64.0902C64.06 64.1502 64 64.2502 63.93 64.2602C63.72 64.2902 63.6 64.1402 63.52 63.9702C63.46 63.8502 63.5 63.8202 63.73 63.8502C63.89 63.8802 64.11 63.8202 64.13 64.0902Z" fill="#F2BC00"/>
<path d="M62.47 65.0901C62.39 65.1201 62.29 65.2001 62.23 65.1701C62.17 65.1401 62.16 65.0201 62.13 64.9401C62.21 64.9101 62.31 64.8301 62.37 64.8601C62.43 64.8901 62.44 65.0101 62.47 65.0901Z" fill="#F2BC00"/>
<path d="M57.94 25.3102C57.52 26.3402 56.67 27.1202 56.31 28.1802C56.23 28.4302 55.94 28.6102 55.74 28.8202C55.24 29.3402 54.79 29.9002 54.31 30.4302C53.51 31.3102 52.59 32.1202 51.61 32.7902C50.71 33.4002 49.66 33.3202 48.75 32.7002C47.8 32.0502 47.31 31.1402 47.57 29.9602C47.82 28.8002 48.11 27.6602 48.94 26.7202C49.44 26.1502 49.8 25.4502 50.21 24.8002C50.9 23.6802 51.88 22.8102 52.83 21.9602C53.59 21.2902 54.46 20.5902 55.63 20.6802C55.85 21.6002 55.96 22.4102 54.81 22.9302C54.29 23.1702 54.65 24.2702 53.78 24.5102C54.3 24.4302 54.89 23.9802 55.2 24.7802C55.54 25.6702 56.09 25.8202 56.88 25.2902C57.22 25.0602 57.6 24.9902 57.94 25.3102Z" fill="#F2BC00"/>
<path d="M57.94 25.3101C57.35 25.2301 56.97 25.5801 56.56 25.9301C56.19 26.2501 55.9 26.2101 55.53 25.9201C55.07 25.5501 54.92 25.2901 54.73 24.5301C54.29 24.5901 53.95 24.8701 53.6 25.1101C53.41 25.2301 53.23 25.1201 53.07 25.0201C52.94 24.9401 52.88 24.8101 52.98 24.6701C53.18 24.3901 53.48 24.2601 53.79 24.1201C54.28 23.9001 54.36 23.6901 54.14 23.1101C54.04 22.8401 54.07 22.6601 54.2 22.4501C54.28 22.3201 54.41 22.2201 54.55 22.2801C54.72 22.3501 54.86 22.4801 55.02 22.5901C55.17 22.3101 55.42 22.0501 55.45 21.7601C55.49 21.3901 55.4 21.0101 55.64 20.6701C55.71 20.6101 55.79 20.4901 55.86 20.5001C56.53 20.5601 57.18 20.7501 57.7 21.1801C58.38 21.7401 58.59 22.5301 58.46 23.3701C58.34 24.0301 58.11 24.6701 57.94 25.3101Z" fill="#F2BC00"/>
<path d="M60.55 63.27C60.65 63.17 60.74 63.08 60.84 62.98C60.75 63.08 60.65 63.18 60.55 63.27Z" fill="#F2BC00"/>
<path d="M60.84 39.3499C60.79 38.6699 60.8 37.8699 61.4 37.1899C61.6 36.9699 61.72 36.7299 62.07 36.7499C62.36 36.7599 62.45 36.5199 62.55 36.2899C63.25 34.8199 64.9799 33.4499 66.4499 33.1599C68.6099 32.7299 70.73 34.9699 69.97 37.1299C69.83 37.5399 69.63 37.8999 69.71 38.3699C69.75 38.6099 69.57 38.9499 69.39 39.1499C68.54 40.0599 67.89 41.1499 66.93 41.9799C65.86 42.8899 64.68 43.4399 63.24 43.2899C63.05 43.2699 62.8099 43.2699 62.6899 43.1599C61.8299 42.3399 60.78 41.6399 60.83 40.2399C60.85 39.9899 60.84 39.7499 60.84 39.3499Z" fill="#F2BC00"/>
<path d="M12.73 43.5699C12.45 43.6899 12.3 43.9199 12.13 44.1599C11.62 44.9199 10.95 45.5299 10.24 46.1099C9.72 46.5299 9.19 46.9299 8.67 47.3399C8.56 47.4199 8.48 47.5299 8.38 47.6299C8.28 47.7199 8.18 47.8199 8.09 47.9199C7.93 48.0899 7.66 48.0199 7.51 48.2099C6.63 48.7399 5.81 49.3899 4.76 49.5599C4.12 49.6699 3.46 49.8699 2.87 49.3699C2.45 49.0899 1.69 48.8199 1.8 48.3599C2.04 47.3899 1.2 46.5199 1.7 45.5999C1.68 45.0099 1.72 44.4599 2.24 44.0399C2.42 43.8999 2.52 43.6599 2.64 43.4499C3.14 42.5599 3.82 41.8399 4.72 41.3399C4.93 41.2299 5.17 41.1099 5.29 40.9299C5.85 40.0599 6.77 39.5999 7.5 38.9399C7.83 38.6299 8.33 38.9699 8.66 38.6499C8.76 38.6499 8.85 38.6499 8.95 38.6499C10.08 39.4499 11.57 39.0699 12.72 39.8099C13.58 40.7999 13.47 41.8799 13.01 42.9999C12.84 43.1399 12.89 43.4099 12.73 43.5699Z" fill="#F2BC00"/>
<path d="M12.73 39.7999C12.22 39.8899 11.62 40.0799 11.25 39.6799C10.99 39.3899 10.91 39.2599 10.52 39.4399C9.52996 39.8899 9.44996 39.8299 9.06996 38.7299C9.04996 38.6999 8.99996 38.6699 8.95996 38.6399C9.17996 38.3099 9.43996 38.4299 9.68996 38.5799C10.04 38.7899 10.38 38.8599 10.72 38.5399C10.81 38.4599 11.01 38.4199 11.11 38.4699C11.57 38.6799 12.03 38.9199 12.47 39.1799C12.68 39.2999 12.71 39.5599 12.73 39.7999Z" fill="#F2BC00"/>
<path d="M1.70997 45.5898C1.74997 46.2298 1.52997 46.9598 2.28997 47.3698C2.29997 47.3798 2.26997 47.5598 2.22997 47.5798C1.65997 47.7498 1.93997 48.0998 2.09997 48.3498C2.31997 48.7098 2.60997 49.0298 2.86997 49.3598C2.08997 49.4498 1.66997 48.9398 1.26997 48.3998C1.18997 48.2998 1.12997 48.0998 1.17997 47.9998C1.51997 47.2998 1.30997 46.5098 1.52997 45.7898C1.54997 45.7198 1.64997 45.6598 1.70997 45.5898Z" fill="#F2BC00"/>
<path d="M13.02 42.9903C13.02 42.8503 12.99 42.6903 13.02 42.5603C13.26 41.6003 13.12 40.6903 12.72 39.8003C13.83 40.8603 13.9 41.6903 13.02 42.9903Z" fill="#F2BC00"/>
<path d="M8.67001 38.6403C8.36001 39.0603 7.91001 38.8903 7.51001 38.9303C7.82001 38.5103 8.27001 38.6803 8.67001 38.6403Z" fill="#F2BC00"/>
<path d="M12.73 43.5702C12.73 43.3302 12.78 43.1102 13.02 42.9902C13.01 43.2302 12.96 43.4402 12.73 43.5702Z" fill="#F2BC00"/>
<path d="M7.51001 48.2099C7.63001 47.9799 7.85001 47.9299 8.09001 47.9199C7.97001 48.1499 7.75001 48.1999 7.51001 48.2099Z" fill="#F2BC00"/>
<path d="M8.08997 47.9199C8.18997 47.8199 8.27997 47.7299 8.37997 47.6299C8.27997 47.7199 8.18997 47.8199 8.08997 47.9199Z" fill="#F2BC00"/>
<path d="M8.38 47.6298C8.48 47.5298 8.57 47.4398 8.67 47.3398C8.57 47.4298 8.48 47.5298 8.38 47.6298Z" fill="#F2BC00"/>
<path d="M37.05 26.83C37.17 27.65 36.99 28.31 36.34 28.8C35.91 29.13 35.62 29.58 35.41 30.07C35.25 30.45 35.06 30.75 34.55 30.62C34.4 30.58 34.24 30.7 34.27 30.86C34.38 31.38 34.01 31.6 33.73 31.93C33.12 32.66 32.32 33.03 31.48 33.4C31.15 33.54 30.97 33.52 30.71 33.35C30.5 33.21 30.3 33.34 30.27 33.54C30.22 33.89 30.08 34.04 29.71 34.01C28.18 33.9 27.04 32.11 27.63 30.61C27.92 29.87 28.16 29.02 29.11 28.79C29.26 28.75 29.31 28.64 29.37 28.49C29.82 27.34 30.67 26.51 31.56 25.71C31.96 25.36 32.3 24.96 32.57 24.5C32.83 24.06 33.25 23.86 33.78 23.86C34.51 23.86 35.23 23.84 35.85 24.31C36.74 24.95 37.34 25.71 37.05 26.83Z" fill="#F2BC00"/>
<path d="M37.66 78.3403C38.29 79.4503 37.95 80.5003 37.29 81.4103C36.76 82.1503 36.15 82.8003 35.81 83.6703C35.66 84.0503 35.28 84.3503 34.97 84.6403C34.12 85.4403 33.12 85.9903 32.01 86.3503C31.23 86.6003 30.49 86.4703 29.82 85.9803C29.46 85.7103 29.13 85.3603 29.14 84.9203C29.15 84.0603 28.87 83.2303 28.94 82.3603C28.98 81.8203 29.03 81.3203 29.3 80.8403C29.69 80.1203 29.88 79.3303 30.16 78.5603C30.51 77.5903 30.95 76.5803 32.15 76.3203C32.04 76.9703 31.87 77.5403 32.73 77.9703C33.49 78.3503 33.59 79.1603 33.15 79.9603C33.12 80.0203 32.37 80.3603 33.16 80.5003C33.29 80.5403 33.39 80.6003 33.49 80.6803C33.73 80.7503 33.8 81.3703 34.09 81.0103C34.53 80.4503 34.95 80.3103 35.34 80.9003C35.6 81.2903 36.24 81.8803 35.24 82.2603C35.17 82.2903 35.02 82.2903 35.05 82.4403C35.13 82.3803 35.22 82.3403 35.29 82.2803C36.41 81.1703 36.9 79.6703 37.66 78.3403Z" fill="#F2BC00"/>
<path d="M33.31 80.6603C32.92 80.6203 32.65 80.9602 32.16 81.0902C32.46 80.4902 32.69 80.0402 32.91 79.5902C33.19 79.0302 33.06 78.4402 32.54 78.1402C32.3 78.0002 31.99 77.9802 31.82 77.7102C31.75 77.5902 31.61 77.5102 31.51 77.4202C31.73 77.0402 31.94 76.6802 32.15 76.3202C32.25 76.2202 32.34 76.1202 32.44 76.0302C32.55 75.9402 32.63 75.8402 32.73 75.7402C32.92 75.5702 33.19 75.6102 33.4 75.5102C34.42 75.0502 35.1 75.1602 34.94 76.4502C35.74 76.7502 35.97 75.3302 36.78 76.0302C37.06 76.5602 37.17 77.1703 37.56 77.6603C37.68 77.8203 37.63 78.1102 37.66 78.3402C37.66 78.7702 37.68 79.2002 37.64 79.6302C37.61 80.0102 37.39 79.7302 37.24 79.7102C37.08 79.6902 36.95 79.7902 36.95 79.9302C36.95 80.1102 37.04 80.3002 37.04 80.4902C37.07 81.1402 37 81.2702 36.29 81.4302C35.98 81.5002 35.97 81.6802 35.88 81.8902C35.59 82.5702 34.93 82.9002 34.39 83.3402C34.38 83.3502 34.22 83.2402 34.22 83.1902C34.27 82.6302 34.57 82.0802 35.04 81.9702C35.59 81.8302 35.57 81.7902 35.25 81.4202C35.14 81.2902 35.17 81.0502 35.08 80.9002C34.97 80.7302 34.77 80.6802 34.57 80.7902C34.39 80.8902 34.27 81.0402 34.45 81.2302C34.62 81.4202 34.6 81.5802 34.38 81.6802C34.27 81.7302 34.08 81.7502 33.98 81.6902C33.6 81.4602 33.32 81.1403 33.31 80.6603C33.39 80.4303 33.64 80.3503 33.76 80.1603C33.58 80.3003 33.39 80.4303 33.31 80.6603Z" fill="#F2BC00"/>
<path d="M36.78 76.03C36.53 76.08 36.18 75.89 36.07 76.29C35.96 76.71 35.54 76.79 35.27 77.03C35.09 77.19 34.82 77.21 34.62 77.03C34.44 76.87 34.33 76.66 34.35 76.41C34.35 76.36 34.38 76.32 34.39 76.28C34.62 75.43 34.62 75.4 33.84 75.62C33.46 75.72 33.1 75.73 32.72 75.74C34.31 74.65 35.56 74.74 36.78 76.03Z" fill="#F2BC00"/>
<path d="M32.73 75.73C32.63 75.83 32.54 75.92 32.44 76.02C32.54 75.93 32.63 75.83 32.73 75.73Z" fill="#F2BC00"/>
<path d="M50.7 80.6603C51.51 79.6603 52.63 79.7203 53.73 79.8203C54.22 79.8603 54.65 80.1103 54.99 80.4703C55.61 81.1403 56.17 81.8103 56.25 82.8103C56.3 83.4203 56.58 84.0103 56.44 84.7403C55.98 84.6303 55.88 83.9303 55.36 84.0203C54.88 84.1003 54.78 83.8403 54.73 83.4703C54.68 83.1103 54.44 83.0003 54.11 83.0103C53.84 83.0203 53.62 83.1703 53.65 83.4503C53.7 83.8703 53.81 84.2603 53.66 84.7103C53.48 85.2503 54 85.5603 54.29 85.9203C54.34 85.9903 54.55 85.9503 54.69 85.9303C55.02 85.8803 55.36 85.8403 55.68 85.9703C55.72 85.9903 55.76 86.0303 55.77 86.0803C55.82 86.1903 55.77 86.2603 55.66 86.2903C55.37 86.3603 55.03 86.4303 55.38 86.8103C55.68 87.1303 55.6 87.4503 55.39 87.7203C55.11 88.1003 54.76 88.4303 54.45 88.7903C54.05 88.4903 53.62 88.2803 53.41 87.7103C53.2 87.1303 52.53 86.9603 51.72 86.4603C52.15 87.2603 52.52 87.7203 52.51 88.3303C52.08 88.7003 51.69 89.2803 50.96 88.7903C50.72 89.1603 50.28 89.1003 49.94 89.2703C49.72 89.3903 49.44 89.3603 49.29 89.1403C49.09 88.8403 48.79 88.9103 48.52 88.8503C48.32 88.4903 48.58 88.1803 48.7 87.9203C48.92 87.4603 48.99 87.1103 48.69 86.6503C48.5 86.3603 48.71 86.0803 49.05 86.1103C49.33 86.1303 49.59 86.0103 49.89 86.1203C50.51 86.3503 50.52 86.3103 50.67 85.6103C50.7 85.4803 50.78 85.2503 50.82 85.2603C51.52 85.3103 51.46 84.9503 51.34 84.4503C51.29 84.2703 51.45 83.9103 51.61 83.8303C51.97 83.6503 52.15 83.5103 51.88 83.1103C51.77 82.9503 51.7 82.7703 51.63 82.5903C51.46 82.1503 51.51 81.7503 51.83 81.3903C51.99 81.2103 52.15 81.0303 52.28 80.8303C52.38 80.6603 52.41 80.4503 52.25 80.3003C52.08 80.1403 51.84 80.1803 51.76 80.3603C51.55 80.8903 51.11 80.7003 50.7 80.6603Z" fill="#F2BC00"/>
<path d="M20.55 20.3901C20.21 20.9701 19.86 21.5401 19.55 22.1301C19.3 22.6001 19.03 23.0501 18.53 23.2901C18.18 23.4501 17.88 23.6601 17.58 23.9201C17.2 24.2501 16.81 24.2301 16.42 23.9101C16.17 23.7001 15.92 23.4601 15.75 23.1801C15.56 22.8701 15.51 22.5101 15.04 22.3701C14.62 22.2501 14.33 22.2401 14.01 22.5401C13.91 22.6301 13.72 22.5801 13.64 22.4401C13.49 22.2001 13.26 21.9601 13.44 21.6601C13.66 21.2801 13.96 20.9801 14.35 20.7801C14.58 20.6601 14.81 20.7301 15.04 20.8401C16.01 21.2801 16.88 21.1001 17.65 20.4001C17.51 20.4001 17.35 20.3601 17.23 20.4101C16.37 20.8001 15.61 20.4001 14.84 20.1101C14.5 19.9801 14.7 19.7401 14.74 19.5401C15.45 19.3101 15.02 18.7901 15.03 18.3801C15.37 17.7901 15.87 17.3301 16.4 16.9201C16.57 16.7901 16.71 16.7001 16.68 16.4901C16.63 16.1401 16.81 16.0501 17.1 16.1201C17.43 16.2001 17.72 16.3401 18.01 16.0001C18.3 15.6601 18.72 15.8001 19.1 15.7701C19.33 16.0501 19.73 15.8001 19.97 16.0601C20.07 16.1601 20.16 16.2501 20.26 16.3501C20.41 16.5901 20.35 17.0301 20.84 16.9301C21.1 17.1601 20.86 17.5701 21.13 17.8001C21.29 18.1701 21.75 18.4701 21.42 18.9601C21.26 19.2001 20.97 19.3701 20.87 19.6101C20.77 19.8501 19.87 19.8301 20.55 20.3901Z" fill="#F2BC00"/>
<path d="M14.76 19.5201C14.72 19.5001 14.64 19.4701 14.65 19.4501C14.66 19.3601 14.71 19.3801 14.76 19.5201Z" fill="#F2BC00"/>
<path d="M15.05 18.3603C15.01 18.3403 14.93 18.3103 14.94 18.3003C14.95 18.2003 15 18.2203 15.05 18.3603Z" fill="#F2BC00"/>
<path d="M20.55 20.3899C20.43 20.1599 20.19 20.1299 19.89 19.9799C20.43 19.6099 20.92 19.2799 21.42 18.9399C21.37 19.5599 20.91 19.9399 20.55 20.3899Z" fill="#F2BC00"/>
<path d="M20.84 16.9101C20.67 16.9901 20.5 17.0801 20.32 17.1401C20.19 17.1901 20.02 17.2101 19.94 17.0601C19.92 17.0201 20.02 16.9201 20.06 16.8401C20.13 16.6701 20.2 16.5001 20.27 16.3301C20.54 16.4401 20.74 16.6301 20.84 16.9101Z" fill="#F2BC00"/>
<path d="M21.42 18.9403C21.32 18.5503 21.23 18.1703 21.13 17.7803C21.78 18.2703 21.81 18.3703 21.42 18.9403Z" fill="#F2BC00"/>
<path d="M19.97 16.04C19.65 16.03 19.31 16.09 19.1 15.75C19.42 15.76 19.76 15.7 19.97 16.04Z" fill="#F2BC00"/>
<path d="M21.14 17.7802C20.8 17.5802 20.86 17.2302 20.85 16.9102C21.19 17.1202 21.13 17.4602 21.14 17.7802Z" fill="#F2BC00"/>
<path d="M20.26 16.33C20.16 16.23 20.07 16.14 19.97 16.04C20.07 16.14 20.17 16.24 20.26 16.33Z" fill="#F2BC00"/>
<path d="M74.18 16.0402C74.27 14.7902 75.01 13.8102 75.61 12.7902C75.87 12.3502 76.24 11.9502 76.47 11.4702C76.51 11.3802 76.55 11.3002 76.61 11.2202C77.74 9.55024 79.15 9.64024 80.66 10.7802C80.74 10.8402 80.79 10.9202 80.87 10.9802C82.05 11.9002 82.23 13.1302 81.9 14.4802C81.79 14.9102 81.73 15.3202 81.73 15.7502L81.74 15.7402C81.41 16.0602 81.36 16.5902 80.93 16.8402C80.1 17.2502 79.58 16.7602 79.06 16.1702C79.07 16.5602 79.37 16.7602 79.5 17.0402C79.75 17.5402 79.93 18.0402 79.4 18.4702C79.03 18.7602 78.65 19.1502 78.12 18.9202C77.56 18.6802 77.42 18.1702 77.48 17.5902C77.54 17.0102 77.6 16.4402 77.67 15.8702C77.65 15.0402 77.23 15.3002 76.81 15.5602C76.55 16.0202 76.7 16.5102 76.79 16.9502C76.95 17.7402 76.66 18.3702 75.98 18.5502C75.16 18.7602 75.43 17.7902 75.1 17.4402C75.18 18.1302 75.63 19.0902 74.19 18.6402C73.97 17.7802 74.07 16.9102 74.18 16.0402Z" fill="#F2BC00"/>
<path d="M74.18 18.6499C74.28 18.6499 74.37 18.6499 74.47 18.6399C74.79 18.6099 75.06 18.4899 74.91 18.1099C74.7 17.5699 74.76 17.0899 75.08 16.6299C75.13 16.5599 75.23 16.4999 75.31 16.4899C75.48 16.4799 75.58 16.6199 75.52 16.7599C75.27 17.3499 75.71 17.8399 75.65 18.4999C75.95 18.2199 76.14 18.0199 76.36 17.8599C76.54 17.7299 76.53 17.6699 76.47 17.4299C76.32 16.8499 76.29 16.2399 76.23 15.6399C76.21 15.4399 76.32 15.2799 76.49 15.1699C76.89 15.5799 77.47 15.5299 77.94 15.7499C77.87 16.4599 77.83 17.1799 77.74 17.8899C77.69 18.2399 77.88 18.4299 78.09 18.6299C78.36 18.8899 78.63 18.7399 78.88 18.5999C79.05 18.5099 79.2 18.3799 79.33 18.2499C79.53 18.0699 79.58 17.8399 79.43 17.5999C79.28 17.3599 79.11 17.1199 78.94 16.8899C78.53 16.3399 78.52 16.3399 79.05 15.5199C79.44 16.2399 79.81 16.9899 80.84 16.6099C81.01 16.8099 81 16.9999 80.83 17.1899L80.84 17.1799C80.54 17.3299 80.15 17.4199 80.04 17.7499C79.58 19.0899 78.21 19.3499 77.27 20.1099C77.17 20.1899 76.98 20.2499 76.87 20.1999C76.29 19.9799 75.74 19.7099 75.08 19.8699C75 19.8899 74.83 19.7299 74.75 19.6199C74.55 19.3199 74.37 18.9799 74.18 18.6499Z" fill="#F2BC00"/>
<path d="M74.18 16.04C74.46 16.91 74.18 17.78 74.18 18.65C74.15 18.62 74.09 18.59 74.08 18.55C73.82 17.7 73.69 16.86 74.18 16.04Z" fill="#F2BC00"/>
<path d="M82.87 45.89C82.67 45.74 82.59 45.53 82.59 45.28C82.59 44.9 82.59 44.53 82.59 44.15C83.01 43.54 82.95 42.79 83.17 42.12C83.43 41.62 83.71 41.12 83.96 40.62C84.35 39.84 85.18 39.41 85.56 38.62C85.61 38.51 85.79 38.4 85.9 38.4C86.52 38.43 86.97 37.97 87.5 37.87C88.96 37.58 90.48 37.68 91.31 39.55C91.83 40.73 92.1 41.9 91.58 43.15C91.37 43.64 91.08 44.07 90.71 44.44C89.99 44.06 88.89 43.73 90.51 43.01C90.74 42.91 90.88 42.69 90.85 42.44C90.81 42.12 90.53 42.15 90.29 42.16C89.96 42.17 89.63 42.15 89.31 42.03C87.9 41.34 86.76 41.71 86.07 43.16C85.8 43.73 85.05 44.13 85.36 44.94C85.36 45.15 85.29 45.33 85.18 45.5C84.84 46.07 84.47 46.5 83.79 45.9C83.5 45.64 83.18 45.76 82.87 45.89Z" fill="#F2BC00"/>
<path d="M82.87 45.8901C83.12 45.1301 83.38 45.0101 83.87 45.4301C83.97 45.5201 84.03 45.6601 84.12 45.7601C84.21 45.8501 84.32 45.9201 84.42 45.9901C84.68 45.8101 84.59 45.4201 84.9 45.3101C85.86 45.9601 86.57 44.3901 87.54 44.9901C87.54 44.9901 87.61 44.7401 87.6 44.6201C87.53 43.5701 88.12 43.0201 89 42.6601C89.01 42.5401 89.03 42.4301 89.04 42.3101C89.05 42.1901 89.08 42.0801 89.13 41.9701C89.17 41.9301 89.21 41.8901 89.26 41.8501C89.87 41.8501 90.49 41.8501 91.12 41.8501C91.47 43.2501 91.31 43.5001 89.96 43.5701C90.04 44.0101 90.83 43.8601 90.71 44.4601C90.71 44.5501 90.7 44.6501 90.7 44.7401C90.16 45.3101 89.59 45.8401 89.2 46.5401C88.87 47.1201 88.39 47.5801 87.81 47.9301C86.8 48.6101 85.71 48.4101 84.62 48.2201C84.26 48.0001 83.97 47.7101 83.75 47.3501C83.66 47.2501 83.56 47.1501 83.46 47.0601C83.37 46.9601 83.28 46.8601 83.17 46.7701C83.17 46.6701 83.17 46.5801 83.17 46.4801C82.99 46.3101 83.06 46.0401 82.87 45.8901Z" fill="#F2BC00"/>
<path d="M83.16 42.1201C83.16 42.8501 83.25 43.6101 82.58 44.1501C82.6 43.4201 82.81 42.7501 83.16 42.1201Z" fill="#F2BC00"/>
<path d="M33.65 1.26028C34.13 1.26028 34.57 1.29028 34.64 1.89028C34.65 1.94028 34.66 2.00028 34.69 2.02028C34.95 2.20028 35.32 2.25028 35.34 2.70028C35.36 3.26028 35.26 3.85028 34.92 4.20028C34.26 4.88028 33.8 5.75028 32.89 6.20028C32.25 6.52028 31.54 6.64028 30.9 6.99028C30.48 7.22028 29.86 7.17028 29.41 6.76028C29.15 6.52028 28.94 6.28028 29.11 5.88028C29.23 5.60028 29.15 5.39028 28.81 5.42028C28.46 5.45028 28.35 5.28028 28.44 5.00028C28.74 4.07028 30.79 1.92028 31.71 1.67028C32.36 1.49028 32.99 1.21028 33.65 1.26028Z" fill="#F2BC00"/>
<path d="M22.01 58.3402C21.87 58.2202 21.74 58.0902 21.59 57.9902C21.29 57.8002 21.14 57.5302 21.14 57.1802C20.76 56.9802 20.9 56.3002 20.32 56.2802C20.14 55.7702 19.85 55.2702 19.81 54.7402C19.79 54.4202 19.66 54.0902 19.72 53.7602C19.77 53.5002 20.28 53.5702 20.17 53.3202C19.71 52.2802 20.39 51.6602 20.85 50.8602C21.41 49.8902 22.12 49.2402 23.11 48.7802C23.9 48.4202 24.68 48.3902 25.48 48.6302C25.8 48.7302 26.11 48.8602 26.43 48.9402C27.12 49.1202 27.68 49.4202 27.84 50.2002C27.87 50.3302 27.95 50.4702 28.04 50.5802C28.58 51.2602 28.82 51.9702 28.44 52.8502C28.3 53.1802 28.39 53.6102 28.37 53.9902C28.26 54.0702 28.19 54.1902 28.08 54.2802C27.98 54.4702 27.89 54.6702 27.79 54.8602C27.6 55.0102 27.68 55.2902 27.5 55.4402C27.21 55.9302 26.9 56.4002 26.62 56.9002C26.24 57.5802 25.62 57.8602 24.92 58.0902C24.23 58.3102 23.57 58.5402 22.91 57.9802C22.45 57.5902 22.31 58.2102 22.01 58.3402Z" fill="#F2BC00"/>
<path d="M27.51 55.4501C27.52 55.2101 27.57 55.0001 27.8 54.8701C27.8 55.1101 27.74 55.3201 27.51 55.4501Z" fill="#F2BC00"/>
<path d="M84.61 48.2002C85.68 48.1902 86.76 48.3002 87.8 47.9102C87.67 48.1702 87.49 48.4102 87.19 48.4402C86.4 48.5102 85.6 48.5802 84.82 48.3802C84.74 48.3702 84.68 48.2702 84.61 48.2002Z" fill="#F2BC00"/>
<path d="M83.74 47.3398C84.13 47.5298 84.42 47.8198 84.61 48.2098C84.06 48.1798 83.77 47.8898 83.74 47.3398Z" fill="#F2BC00"/>
<path d="M82.87 45.8901C83.1 46.0101 83.16 46.2301 83.16 46.4701C82.93 46.3401 82.88 46.1301 82.87 45.8901Z" fill="#F2BC00"/>
<path d="M83.45 47.0503C83.55 47.1503 83.64 47.2403 83.74 47.3403C83.65 47.2403 83.55 47.1403 83.45 47.0503Z" fill="#F2BC00"/>
<path d="M83.16 46.7603C83.26 46.8603 83.35 46.9503 83.45 47.0503C83.36 46.9503 83.26 46.8503 83.16 46.7603Z" fill="#F2BC00"/>
<path d="M68.96 59.5102C68.86 59.4102 68.77 59.3202 68.67 59.2202C68.77 59.3102 68.86 59.4102 68.96 59.5102Z" fill="#F2BC00"/>
<path d="M80.84 17.21C80.84 17.02 80.84 16.82 80.85 16.63C81.2 16.4 81.26 15.88 81.72 15.75C81.71 15.94 81.7 16.12 81.68 16.31C81.49 16.45 81.42 16.66 81.38 16.88C81.29 16.98 81.21 17.09 81.12 17.19C81.03 17.2 80.94 17.2 80.84 17.21Z" fill="#F2BC00"/>
<path d="M68.38 60.0898C68.48 60.4798 68.57 60.8598 68.67 61.2498C68.51 61.1598 68.34 61.0798 68.18 60.9898C67.97 60.8698 67.8 60.7198 67.86 60.4398C67.91 60.1498 68.15 60.1198 68.38 60.0898Z" fill="#F2BC00"/>
<path d="M67.8 63.5603C67.52 63.4503 67.33 63.2603 67.22 62.9803C67.78 62.8403 67.78 62.8403 67.8 63.5603Z" fill="#F2BC00"/>
<path d="M69.25 61.2401L69.13 61.1801L69.18 61.1201L69.25 61.2401Z" fill="#F2BC00"/>
<path d="M33.31 80.6599C33.26 80.4899 33.11 80.2399 33.3 80.1499C33.64 79.9899 34.02 79.9299 34.39 79.8499C34.45 79.8399 34.57 79.9299 34.6 79.9999C34.62 80.0699 34.57 80.2199 34.52 80.2399C34.12 80.3999 33.71 80.5199 33.31 80.6599Z" fill="#F2BC00"/>
<path d="M50.8 88.4203C50.86 88.3803 50.93 88.2803 51 88.2803C51.12 88.2803 51.15 88.3803 51.1 88.5003C51.06 88.5903 51.03 88.6803 51 88.7703C50.86 88.6903 50.75 88.6103 50.8 88.4203Z" fill="#F2BC00"/>
<path d="M17.2 21.4299C17.28 21.4899 17.35 21.5499 17.43 21.5999C17.62 21.7299 17.8 21.7099 17.88 21.4999C17.95 21.3299 17.94 21.1199 18 20.9399C18.11 20.6099 18.27 20.4799 18.62 20.7299C18.77 20.8299 18.98 20.4399 19.24 20.6199C19.32 20.6699 19.42 20.7199 19.46 20.7899C19.49 20.8499 19.47 20.9999 19.42 21.0399C18.92 21.3999 18.54 21.9099 17.94 22.1399C17.54 22.2899 17.17 22.5099 16.95 22.9199C16.89 23.0399 16.75 23.1599 16.61 23.0499C16.42 22.8999 16.23 22.4999 16.3 22.4699C16.77 22.2699 16.75 21.8199 16.94 21.4799C16.97 21.4299 17.11 21.4399 17.2 21.4299Z" fill="#F2BC00"/>
<path d="M17.66 20.3902C17.68 20.3502 17.71 20.2702 17.72 20.2802C17.82 20.2902 17.79 20.3402 17.66 20.3902Z" fill="#F2BC00"/>
<path d="M77.95 15.75C77.86 15.79 77.78 15.84 77.69 15.87C76.9 16.12 76.81 16.06 76.5 15.17C76.91 14.95 77.3 14.8 77.79 15.08C78.14 15.28 78.04 15.49 77.95 15.75Z" fill="#F2BC00"/>
<path d="M85.19 45.0199C84.56 44.3199 84.55 44.0999 85.29 43.6099C85.62 43.3899 85.77 43.1899 85.77 42.8299C85.77 42.2799 86 41.9099 86.58 41.8499C86.88 41.8199 87.08 41.6199 87.32 41.4699C88.18 40.9299 88.45 41.0099 89.25 41.8499C89.07 42.0399 89.07 42.2299 89.25 42.4299V42.4399C89.37 42.9899 88.93 42.9599 88.64 42.9499C87.46 42.8999 86.65 43.3099 86.32 44.5299C86.18 45.0199 85.87 45.5099 85.19 45.0199Z" fill="#F2BC00"/>
<path d="M85.19 45.0199C85.48 44.9799 85.83 45.1399 85.93 44.6199C86.01 44.1799 86.38 43.8199 86.39 43.3099C86.4 43.0099 86.64 42.8699 86.98 42.8399C87.62 42.7699 88.24 42.4499 88.91 42.6499C88.99 42.6699 89.13 42.4999 89.23 42.4199C89.49 42.9899 89.25 43.3799 88.63 43.3899C88.49 43.3899 88.35 43.3199 88.21 43.3199C88.07 43.3199 87.89 43.3999 88 43.5699C88.21 43.8899 88.23 44.1599 87.96 44.4499C87.75 44.6699 87.82 44.9899 87.73 45.2599C87.66 45.4599 87.49 45.6099 87.37 45.3299C87.2 44.9399 86.96 45.0099 86.69 45.1699C86.57 45.2399 86.49 45.3699 86.39 45.4699C85.91 45.9399 85.9 45.9499 85.31 45.6599C85.15 45.5799 85.02 45.4299 84.87 45.3099C85 45.2099 85.1 45.1099 85.19 45.0199Z" fill="#F2BC00"/>
<path d="M89.25 42.4101C88.95 42.2201 88.96 42.0201 89.25 41.8301C89.25 42.0201 89.25 42.2101 89.25 42.4101Z" fill="#F2BC00"/>
<path d="M21.14 57.1901C21.15 57.1001 21.15 57.0101 21.17 56.9301C21.18 56.8901 21.22 56.8201 21.24 56.8301C21.35 56.8401 21.4 56.9201 21.33 57.0201C21.28 57.0801 21.2 57.1301 21.14 57.1901Z" fill="#F2BC00"/>
</g>
<defs>
<clipPath id="clip0_41_328">
<rect width="92.76" height="91.4" fill="white"/>
</clipPath>
</defs>
</svg>
