<svg width="76" height="76" viewBox="0 0 76 76" fill="none" xmlns="http://www.w3.org/2000/svg">
<path d="M2.36615 38.0001C2.36615 18.3139 18.3138 2.36621 38 2.36621C57.6862 2.36621 73.6339 18.3139 73.6339 38.0001C73.6339 57.6863 57.6862 73.634 38 73.634C18.3138 73.634 2.36615 57.6863 2.36615 38.0001Z" stroke="#F2BC00" stroke-width="2" stroke-miterlimit="10"/>
<path d="M62.7387 42.0104C64.9488 28.3488 55.6655 15.4822 42.0038 13.2722C28.3422 11.0621 15.4757 20.3455 13.2656 34.0071C11.0556 47.6687 20.3389 60.5353 34.0005 62.7453C47.6622 64.9554 60.5287 55.672 62.7387 42.0104Z" stroke="#F2BC00" stroke-width="2" stroke-miterlimit="10"/>
<path d="M25.1756 38.0002C25.1756 30.9255 30.9253 25.1758 38 25.1758C45.0747 25.1758 50.8244 30.9255 50.8244 38.0002C50.8244 45.0749 45.0747 50.8246 38 50.8246C30.9253 50.8246 25.1756 45.0986 25.1756 38.0002Z" stroke="#F2BC00" stroke-width="2" stroke-miterlimit="10"/>
</svg>
