<svg width="159" height="167" viewBox="0 0 159 167" fill="none" xmlns="http://www.w3.org/2000/svg">
<path d="M62.49 129.66V77.7896H114.35L62.49 129.66Z" fill="#E0DFFF"/>
<mask id="mask0_41_494" style="mask-type:luminance" maskUnits="userSpaceOnUse" x="68" y="63" width="53" height="53">
<path d="M68.35 115.4V63.5298H120.22L68.35 115.4Z" fill="white"/>
</mask>
<g mask="url(#mask0_41_494)">
<path d="M156.676 49.011L54.1462 151.541L55.6241 153.018L158.154 50.4889L156.676 49.011Z" fill="#FFB624"/>
</g>
<mask id="mask1_41_494" style="mask-type:luminance" maskUnits="userSpaceOnUse" x="68" y="63" width="53" height="53">
<path d="M68.35 115.4V63.5298H120.22L68.35 115.4Z" fill="white"/>
</mask>
<g mask="url(#mask1_41_494)">
<path d="M152.214 44.555L49.6847 147.084L51.1625 148.562L153.692 46.0328L152.214 44.555Z" fill="#FFB624"/>
</g>
<mask id="mask2_41_494" style="mask-type:luminance" maskUnits="userSpaceOnUse" x="68" y="63" width="53" height="53">
<path d="M68.35 115.4V63.5298H120.22L68.35 115.4Z" fill="white"/>
</mask>
<g mask="url(#mask2_41_494)">
<path d="M147.753 40.1082L45.2234 142.638L46.7013 144.116L149.231 41.586L147.753 40.1082Z" fill="#FFB624"/>
</g>
<mask id="mask3_41_494" style="mask-type:luminance" maskUnits="userSpaceOnUse" x="68" y="63" width="53" height="53">
<path d="M68.35 115.4V63.5298H120.22L68.35 115.4Z" fill="white"/>
</mask>
<g mask="url(#mask3_41_494)">
<path d="M143.305 35.6473L40.776 138.177L42.2538 139.655L144.783 37.1251L143.305 35.6473Z" fill="#4540E1"/>
</g>
<mask id="mask4_41_494" style="mask-type:luminance" maskUnits="userSpaceOnUse" x="68" y="63" width="53" height="53">
<path d="M68.35 115.4V63.5298H120.22L68.35 115.4Z" fill="white"/>
</mask>
<g mask="url(#mask4_41_494)">
<path d="M138.844 31.1951L36.3146 133.725L37.7925 135.202L140.322 32.6729L138.844 31.1951Z" fill="#4540E1"/>
</g>
<mask id="mask5_41_494" style="mask-type:luminance" maskUnits="userSpaceOnUse" x="68" y="63" width="53" height="53">
<path d="M68.35 115.4V63.5298H120.22L68.35 115.4Z" fill="white"/>
</mask>
<g mask="url(#mask5_41_494)">
<path d="M134.397 26.7391L31.8672 129.269L33.3451 130.746L135.875 28.2169L134.397 26.7391Z" fill="#4540E1"/>
</g>
<mask id="mask6_41_494" style="mask-type:luminance" maskUnits="userSpaceOnUse" x="68" y="63" width="53" height="53">
<path d="M68.35 115.4V63.5298H120.22L68.35 115.4Z" fill="white"/>
</mask>
<g mask="url(#mask6_41_494)">
<path d="M129.935 22.2776L27.4056 124.807L28.8835 126.285L131.413 23.7555L129.935 22.2776Z" fill="#4540E1"/>
</g>
<mask id="mask7_41_494" style="mask-type:luminance" maskUnits="userSpaceOnUse" x="68" y="63" width="53" height="53">
<path d="M68.35 115.4V63.5298H120.22L68.35 115.4Z" fill="white"/>
</mask>
<g mask="url(#mask7_41_494)">
<path d="M125.474 17.8226L22.9442 120.352L24.4221 121.83L126.952 19.3004L125.474 17.8226Z" fill="#4540E1"/>
</g>
<mask id="mask8_41_494" style="mask-type:luminance" maskUnits="userSpaceOnUse" x="68" y="63" width="53" height="53">
<path d="M68.35 115.4V63.5298H120.22L68.35 115.4Z" fill="white"/>
</mask>
<g mask="url(#mask8_41_494)">
<path d="M121.026 13.3631L18.4967 115.893L19.9745 117.37L122.504 14.8409L121.026 13.3631Z" fill="#4540E1"/>
</g>
<mask id="mask9_41_494" style="mask-type:luminance" maskUnits="userSpaceOnUse" x="68" y="63" width="53" height="53">
<path d="M68.35 115.4V63.5298H120.22L68.35 115.4Z" fill="white"/>
</mask>
<g mask="url(#mask9_41_494)">
<path d="M116.565 8.91337L14.0353 111.443L15.5132 112.921L118.043 10.3912L116.565 8.91337Z" fill="#FFB624"/>
</g>
<mask id="mask10_41_494" style="mask-type:luminance" maskUnits="userSpaceOnUse" x="68" y="63" width="53" height="53">
<path d="M68.35 115.4V63.5298H120.22L68.35 115.4Z" fill="white"/>
</mask>
<g mask="url(#mask10_41_494)">
<path d="M112.103 4.45683L9.57391 106.986L11.0518 108.464L113.581 5.93467L112.103 4.45683Z" fill="#FFB624"/>
</g>
<mask id="mask11_41_494" style="mask-type:luminance" maskUnits="userSpaceOnUse" x="68" y="63" width="53" height="53">
<path d="M68.35 115.4V63.5298H120.22L68.35 115.4Z" fill="white"/>
</mask>
<g mask="url(#mask11_41_494)">
<path d="M107.656 0.000288904L5.12653 102.53L6.60436 104.008L109.134 1.47813L107.656 0.000288904Z" fill="#FFB624"/>
</g>
</svg>
