<svg width="37" height="37" viewBox="0 0 37 37" fill="none" xmlns="http://www.w3.org/2000/svg">
<g clip-path="url(#clip0_310_1323)">
<path d="M26.5274 22.0724L31.7358 27.2809C32.3002 27.8452 32.6129 28.6001 32.6129 29.398C32.6129 30.196 32.3002 30.9509 31.7358 31.5152C31.1715 32.0795 30.4166 32.3923 29.6187 32.3923C28.8207 32.3923 28.0658 32.0795 27.5015 31.5152L22.2931 26.3068C21.7287 25.7424 21.416 24.9876 21.416 24.1896C21.416 23.388 21.7287 22.6368 22.2931 22.0724C23.4577 20.9042 25.3592 20.9042 26.5274 22.0724Z" fill="#FDAE02"/>
<path d="M13.0553 15.8286C12.2573 15.8286 11.506 15.5159 10.9381 14.9515L5.72968 9.74671C4.56146 8.5785 4.56146 6.6806 5.72968 5.51239C6.89789 4.34418 8.79578 4.34418 9.964 5.51239L15.1724 10.7208C15.7368 11.2852 16.0495 12.04 16.0495 12.838C16.0495 13.636 15.7368 14.3908 15.1724 14.9551C14.6045 15.5195 13.8532 15.8286 13.0553 15.8286Z" fill="#FDAE02"/>
<path d="M26.4876 19.4304C25.1361 19.4304 23.9463 18.5174 23.5976 17.2126C23.3891 16.4397 23.497 15.6346 23.896 14.9408C24.295 14.2471 24.942 13.7511 25.7148 13.5462L32.8283 11.6411C33.6011 11.4326 34.4063 11.5404 35.1 11.9394C35.7938 12.3384 36.2898 12.9854 36.4947 13.7582C36.9224 15.3506 35.9735 16.9969 34.3775 17.4246L27.264 19.3297C27.0088 19.3944 26.7464 19.4304 26.4876 19.4304Z" fill="#FDAE02"/>
<path d="M3.08744 19.6028L10.201 17.6977C10.9738 17.4892 11.7789 17.5971 12.4727 17.9961C13.1664 18.3951 13.6589 19.0421 13.8673 19.8149C14.2951 21.4072 13.3461 23.0535 11.7502 23.4813L4.63666 25.3864C4.38505 25.4547 4.12265 25.487 3.86025 25.487C2.50872 25.487 1.31894 24.574 0.970275 23.2656C0.546124 21.6768 1.49507 20.0306 3.08744 19.6028Z" fill="#FDAE02"/>
<path d="M18.2168 12.2558C17.8178 11.5621 17.7099 10.7569 17.9184 9.98407L19.8235 2.87055C20.032 2.09773 20.5244 1.45072 21.2182 1.05173C21.9119 0.652743 22.7171 0.544908 23.4899 0.753389C24.2627 0.96187 24.9097 1.45432 25.3087 2.14805C25.7077 2.84179 25.8155 3.64696 25.6071 4.41978L23.702 11.5333C23.3533 12.8381 22.1635 13.7511 20.812 13.7511C20.5496 13.7511 20.2872 13.7152 20.0356 13.6505C19.2628 13.442 18.6158 12.9459 18.2168 12.2558Z" fill="#FDAE02"/>
<path d="M13.7633 25.4941C13.9718 24.7213 14.4642 24.0743 15.158 23.6753C15.8517 23.2763 16.6569 23.1684 17.4297 23.3769C19.0257 23.8047 19.9746 25.451 19.5469 27.0433L17.6418 34.1568C17.2931 35.4652 16.1033 36.3746 14.7518 36.3746C14.493 36.3746 14.2306 36.3387 13.9754 36.2704C12.383 35.8427 11.4305 34.1964 11.8582 32.604L13.7633 25.4941Z" fill="#FDAE02"/>
</g>
<defs>
<clipPath id="clip0_310_1323">
<rect width="35.7257" height="35.7257" fill="white" transform="translate(0.869629 0.648926)"/>
</clipPath>
</defs>
</svg>
