<svg width="42" height="27" viewBox="0 0 42 27" fill="none" xmlns="http://www.w3.org/2000/svg">
<g clip-path="url(#clip0_310_1308)">
<path d="M29.3801 11.0392C27.1963 11.1272 22.9899 14.1732 21.6177 13.3968C20.0875 13.1108 18.7649 8.03095 17.1479 6.55667C15.5124 5.07296 14.069 2.69966 4.07324 2.49219C-0.238527 14.5505 9.59925 21.5509 13.8924 22.9718C16.6214 23.8739 17.0953 26.1341 17.0953 26.1341C17.0953 26.1341 18.8733 24.7038 21.5495 25.7757C25.7374 27.4637 37.7249 28.4728 41.984 16.3894C34.1689 10.0679 31.5639 10.9606 29.3801 11.0392ZM7.43407 7.57515C12.0804 8.20069 16.3395 11.1367 16.4789 17.5933C9.19347 15.4683 7.15219 13.488 7.43407 7.57515ZM22.9403 19.9698C27.1127 15.0848 32.2329 15.5941 36.2102 18.1214C32.6914 22.846 29.8912 23.0598 22.9403 19.9698Z" fill="#ADADAD"/>
<path d="M19.2081 12.4881C19.1369 12.4535 19.0687 12.3907 19.0502 12.2995C16.727 4.64522 11.0957 3.55758 5.34047 3.52929C5.1825 3.51986 5.05859 3.39412 5.05859 3.23381C5.05859 3.07349 5.1825 2.94775 5.34047 2.94775C11.0244 2.97604 17.1669 4.09197 19.5953 12.1298C19.6294 12.2807 19.5427 12.441 19.4002 12.4881C19.332 12.5038 19.2794 12.5038 19.2081 12.4881Z" fill="#ADADAD"/>
<path d="M24.0123 13.8524C23.941 13.8272 23.8729 13.7738 23.8357 13.6921C23.7831 13.5506 23.8543 13.3809 23.9937 13.318L24.415 13.1294C28.6028 11.3156 32.9146 9.44214 40.1504 15.1664C40.2743 15.2638 40.3084 15.4524 40.2031 15.5781C40.0978 15.7039 39.9212 15.7196 39.7973 15.6222C32.8465 10.1117 28.6741 11.916 24.6442 13.6669L24.2043 13.8555C24.1548 13.8807 24.0649 13.8807 24.0123 13.8524Z" fill="#ADADAD"/>
<path d="M20.8459 15.8548C20.8459 15.8548 20.7561 16.4081 20.5826 17.2222C20.5114 17.634 20.4247 18.1055 20.3008 18.6148C20.1954 19.124 20.0715 19.6521 19.9322 20.1865C19.8083 20.7209 19.7556 21.293 19.5976 21.7771C19.4211 22.258 19.1764 22.6793 18.9286 23.0282C18.6839 23.3771 18.4546 23.6537 18.244 23.8329C18.0458 24.0152 17.9064 24.1064 17.9064 24.1064C17.8537 24.141 17.7825 24.1252 17.7484 24.0781C17.7484 24.0687 17.7484 24.0592 17.7484 24.0435C17.7484 24.0435 17.6957 23.8926 17.6617 23.6254C17.6276 23.3488 17.609 22.981 17.6431 22.5535C17.6617 22.126 17.7484 21.6419 17.9064 21.161C18.1015 20.68 18.4175 20.2148 18.6467 19.7244C18.8945 19.2246 19.1206 18.7248 19.3498 18.269C19.5945 17.8038 19.8237 17.3763 20.0189 17.0085C20.4061 16.2761 20.688 15.8014 20.688 15.8014C20.7065 15.7574 20.7592 15.7385 20.7933 15.7668C20.8273 15.7825 20.8459 15.8265 20.8459 15.8548Z" fill="#ADADAD"/>
<path d="M27.1466 8.76335C24.9659 8.84508 20.7409 11.8974 19.3842 11.1115C17.8354 10.8349 16.5159 5.75192 14.8959 4.27136C13.2758 2.79708 11.8169 0.420633 1.83664 0.216309C-2.49062 12.2714 7.36264 19.275 11.6403 20.6927C14.3693 21.5949 14.8432 23.855 14.8432 23.855C14.8432 23.855 16.6398 22.4185 19.2974 23.4967C23.4853 25.1847 35.4728 26.1938 39.7319 14.1009C31.9323 7.78888 29.3118 8.68162 27.1466 8.76335ZM5.20056 5.29927C9.82828 5.91538 14.106 8.86079 14.2454 15.3206C6.94138 13.1925 4.91869 11.209 5.20056 5.29927ZM20.6882 17.6845C24.8606 12.809 29.9994 13.3088 33.9581 15.8455C30.4548 20.5701 27.6391 20.7839 20.6882 17.6845Z" fill="#92278F"/>
<path d="M16.9748 10.1998C16.888 10.1747 16.8168 10.1118 16.7982 10.0206C14.4936 2.36949 8.84374 1.27871 3.08852 1.24414C2.93054 1.24414 2.80664 1.10897 2.80664 0.958082C2.80664 0.797766 2.93054 0.662598 3.08852 0.662598C8.77249 0.697176 14.9149 1.8131 17.3434 9.8509C17.3774 10.0018 17.3093 10.1621 17.1482 10.2093C17.0956 10.2281 17.0274 10.2281 16.9748 10.1998Z" fill="#808285"/>
<path d="M21.7602 11.5765C21.689 11.5482 21.6363 11.4948 21.6022 11.4162C21.531 11.2747 21.6022 11.105 21.7416 11.0421L22.1815 10.8535C26.3538 9.03975 30.6811 7.16626 37.9169 12.8905C38.0408 12.9879 38.0563 13.1671 37.9696 13.2928C37.8643 13.428 37.6877 13.4437 37.5638 13.3463C30.5944 7.83581 26.422 9.64015 22.4107 11.3816L21.9708 11.5797C21.9027 11.6017 21.8314 11.6017 21.7602 11.5765Z" fill="#808285"/>
<path d="M18.5917 13.5761C18.5917 13.5761 18.505 14.1293 18.347 14.9435C18.2603 15.3553 18.1705 15.8268 18.0651 16.3266C17.9598 16.8358 17.8173 17.3702 17.6965 17.9078C17.554 18.4421 17.5014 19.0048 17.3434 19.4983C17.1854 19.9793 16.9221 20.4005 16.6929 20.7494C16.4296 21.0984 16.2004 21.375 15.9898 21.5542C15.7946 21.7428 15.6553 21.8308 15.6553 21.8308C15.6212 21.8654 15.5499 21.8496 15.5159 21.8025C15.5159 21.7931 15.5159 21.7742 15.4973 21.7679C15.4973 21.7679 15.4446 21.6076 15.4075 21.3404C15.3734 21.0732 15.3734 20.7054 15.3889 20.2779C15.4229 19.8504 15.4942 19.3663 15.6707 18.8854C15.8473 18.4044 16.1818 17.9392 16.4111 17.4394C16.6403 16.949 16.8695 16.4492 17.1142 15.9934C17.3434 15.5282 17.5726 15.1007 17.7647 14.7329C18.1519 14.0005 18.4337 13.5289 18.4337 13.5289C18.4523 13.4849 18.5205 13.4661 18.5576 13.4944C18.5917 13.5038 18.5917 13.5415 18.5917 13.5761Z" fill="#808285"/>
</g>
<defs>
<clipPath id="clip0_310_1308">
<rect width="41.222" height="26.5653" fill="white" transform="translate(0.761719 0.216309)"/>
</clipPath>
</defs>
</svg>
