<svg width="86" height="52" viewBox="0 0 86 52" fill="none" xmlns="http://www.w3.org/2000/svg">
<g clip-path="url(#clip0_310_1122)">
<path d="M63.7239 27.7978C63.7239 27.7978 68.066 28.4299 69.5774 25.5077C71.0798 22.5763 71.6202 19.5076 70.8965 18.8389C70.1729 18.1793 63.6232 17.8312 62.1758 18.9305C60.7285 20.0297 60.417 22.2466 60.417 22.2466C60.417 22.2466 62.5697 25.755 63.7239 27.7978Z" fill="#EF3737"/>
<path d="M56.8901 18.0329C56.8901 18.0329 61.6444 17.7856 62.2306 15.2023C62.8261 12.6191 62.5787 9.12894 62.0199 8.02968C61.4612 6.93959 56.9084 8.22205 54.8473 8.84496C52.7862 9.46787 52.6396 14.9641 52.6396 14.9641C52.6396 14.9641 55.0214 16.0268 56.8901 18.0329Z" fill="#EF3737"/>
<path d="M48.1693 13.2147C48.1693 13.2147 51.4854 8.80849 51.293 7.70924C51.1098 6.60998 48.3159 1.9748 47.2258 1.11372C46.1357 0.252635 41.6837 4.35651 41.015 5.71226C40.3463 7.06801 42.2425 12.7108 42.5173 12.9765C42.5173 12.9582 45.5311 12.3169 48.1693 13.2147Z" fill="#EF3737"/>
<path d="M36.92 14.6074C36.92 14.6074 38.2575 9.61495 37.9643 7.90195C37.6712 6.18894 33.604 3.80723 31.6619 3.99044C29.7199 4.16448 28.4466 9.17525 28.4008 10.586C28.3459 11.9967 33.4574 16.6135 33.4574 16.6135L36.92 14.6074Z" fill="#EF3737"/>
<path d="M28.1539 19.8555C28.1539 19.8555 27.6409 15.7425 27.0546 15.1012C26.4684 14.46 23.0424 13.9836 22.2271 14.2951C21.4118 14.6066 21.1828 17.886 21.6591 19.0311C22.1355 20.1761 25.7722 21.2662 25.7722 21.2662L28.1539 19.8555Z" fill="#EF3737"/>
<path d="M53.8026 39.0383C53.8026 39.0383 49.8636 44.4338 49.1765 47.2643C48.4895 50.0858 44.8345 49.5544 43.1215 49.0506C41.4085 48.5468 39.7413 48.0613 39.7962 46.4399C39.8512 44.8185 41.7566 38.7268 41.3352 36.1436" fill="#C69C6D"/>
<path d="M32.3485 33.423C32.3485 33.423 28.4095 38.8185 27.7224 41.6491C27.0354 44.4705 23.3804 43.9392 21.6674 43.4354C19.9544 42.9316 18.2872 42.4461 18.3421 40.8247C18.3971 39.2033 20.3025 33.1116 19.8811 30.5283" fill="#C69C6D"/>
<path d="M57.1644 43.8836C56.4682 43.7095 56.0926 43.5721 56.0926 43.5721C53.0605 42.4729 49.4238 41.9232 45.3841 41.4194C45.1917 40.4942 44.9444 39.5782 44.6787 38.6621C49.1124 39.8438 53.3353 41.4835 57.1644 43.8836Z" fill="#EF3737"/>
<path d="M41.9673 38.0028C42.2055 39.0288 42.4253 40.0639 42.636 41.0807C41.6375 40.9616 40.6207 40.8334 39.5856 40.7051C39.3749 39.5784 39.1276 38.4791 38.8711 37.3799C39.9062 37.5723 40.9414 37.7829 41.9673 38.0028Z" fill="#EF3737"/>
<path d="M38.8708 37.3796C39.1273 38.4789 39.3747 39.5781 39.5853 40.7049C38.7609 40.5949 37.9273 40.485 37.0937 40.3659C36.9288 39.23 36.7365 38.1033 36.5166 36.9766C37.2952 37.1048 38.083 37.2422 38.8708 37.3796Z" fill="#EF3737"/>
<path d="M36.5073 36.9773C36.7271 38.104 36.9287 39.2307 37.0844 40.3666C33.6767 39.872 30.1316 39.2216 26.5041 38.1864C26.0735 38.0582 25.6522 37.9391 25.2491 37.8017C25.1392 37.0414 25.0292 36.2902 24.9102 35.5391C28.7942 35.9513 32.6874 36.3727 36.5073 36.9773Z" fill="#EF3737"/>
<path d="M24.9196 35.5388C25.0387 36.29 25.1486 37.0411 25.2585 37.8014C24.4433 37.5358 23.6921 37.261 22.9959 36.977C22.9684 36.4274 22.9409 35.8778 22.9043 35.3281C23.573 35.4014 24.2509 35.4747 24.9196 35.5388Z" fill="#EF3737"/>
<path d="M22.9043 35.3276C22.9318 35.8773 22.9593 36.4269 22.9959 36.9765C21.4203 36.3353 20.1104 35.6391 19.002 34.9062C20.2936 35.0528 21.6035 35.1902 22.9043 35.3276Z" fill="#EF3737"/>
<path d="M44.6787 38.6621C44.9443 39.5782 45.1916 40.4942 45.384 41.4194C44.4863 41.3095 43.5611 41.1996 42.6267 41.0896C42.4252 40.0637 42.1962 39.0377 41.958 38.0117C42.8832 38.2132 43.7901 38.4239 44.6787 38.6621Z" fill="#EF3737"/>
<path d="M12.8006 2.76205C17.0144 3.86131 20.5869 6.83845 20.0831 12.3988C19.5793 17.9592 15.7869 20.341 20.2388 22.6677C24.6908 24.9945 36.8467 10.3561 47.7293 13.095C58.6119 15.834 61.5341 24.399 65.5922 31.0495C69.6503 37.7 80.8993 34.2099 83.2535 33.248C85.6169 32.2862 87.7605 36.958 76.4565 41.9046C67.4518 45.8436 59.8761 44.5703 57.1646 43.8833C46.2453 37.0404 32.2115 36.3992 19.0022 34.9061C14.367 31.8098 13.4326 28.0449 12.3242 24.9853C10.7669 20.7165 11.0143 20.8448 9.9883 20.231C8.95317 19.6081 1.6065 20.57 0.928622 11.8859C0.241589 3.20175 8.58676 1.6628 12.8006 2.76205Z" fill="#C69C6D"/>
<path d="M58.6209 41.5666C58.6209 41.5666 54.6819 46.9621 53.9949 49.7927C53.3079 52.6141 49.6528 52.0828 47.9398 51.5789C46.2268 51.0751 44.5596 50.5896 44.6146 48.9682C44.6696 47.3468 46.5749 41.2551 46.1536 38.6719" fill="#C69C6D"/>
<path d="M37.1678 35.9504C37.1678 35.9504 33.2288 41.3459 32.5418 44.1764C31.8547 46.9979 28.1997 46.4666 26.4867 45.9627C24.7737 45.4589 23.1065 44.9734 23.1615 43.352C23.2164 41.7306 25.1218 35.6389 24.7004 33.0557" fill="#C69C6D"/>
<path d="M47.6009 17.4007C47.4268 18.0511 48.5444 18.9122 50.0834 19.3152C51.6223 19.7183 53.0147 19.5168 53.1796 18.8572C53.3536 18.2068 52.2361 17.3457 50.6971 16.9427C49.1582 16.5396 47.7749 16.7411 47.6009 17.4007Z" fill="#E6E6E6"/>
<path d="M38.8157 16.3655C38.6417 17.0159 39.7592 17.877 41.2982 18.2801C42.8372 18.6831 44.2295 18.4816 44.3944 17.822C44.5685 17.1717 43.4509 16.3106 41.9119 15.9075C40.373 15.5045 38.9806 15.706 38.8157 16.3655Z" fill="#E6E6E6"/>
<path d="M52.2641 22.6591C52.145 23.1171 52.9145 23.7033 53.9863 23.9873C55.058 24.2713 56.0199 24.1247 56.139 23.6759C56.2581 23.2178 55.4886 22.6316 54.4168 22.3476C53.345 22.0636 52.3832 22.2102 52.2641 22.6591Z" fill="#E6E6E6"/>
<path d="M48.7005 24.6007C48.5814 25.0587 49.186 25.6083 50.0471 25.8282C50.9082 26.0572 51.7051 25.874 51.8242 25.4159C51.9433 24.9671 51.3387 24.4083 50.4776 24.1884C49.6166 23.9594 48.8196 24.1426 48.7005 24.6007Z" fill="#E6E6E6"/>
<path d="M45.3841 20.8634C45.265 21.3214 45.8696 21.871 46.7307 22.0909C47.5918 22.3199 48.3887 22.1367 48.5078 21.6786C48.6269 21.2206 48.0223 20.671 47.1612 20.4511C46.3002 20.2221 45.5032 20.4053 45.3841 20.8634Z" fill="#E6E6E6"/>
<path d="M37.9549 19.7092C37.7992 20.2863 38.6511 21.01 39.8511 21.3306C41.0511 21.6421 42.1412 21.4314 42.2969 20.8451C42.4527 20.268 41.6007 19.5443 40.4007 19.2237C39.2007 18.9122 38.1106 19.1321 37.9549 19.7092Z" fill="#E6E6E6"/>
<path d="M4.86719 15.5231C4.86719 16.6407 5.77407 17.5384 6.88249 17.5384C8.00006 17.5384 8.89778 16.6315 8.89778 15.5231C8.89778 14.4147 7.9909 13.5078 6.88249 13.5078C5.77407 13.5078 4.86719 14.4147 4.86719 15.5231Z" fill="#EA63C0"/>
<path d="M4.61983 13.5082C5.05492 13.5082 5.40763 13.1555 5.40763 12.7204C5.40763 12.2853 5.05492 11.9326 4.61983 11.9326C4.18474 11.9326 3.83203 12.2853 3.83203 12.7204C3.83203 13.1555 4.18474 13.5082 4.61983 13.5082Z" fill="#32313B"/>
</g>
<defs>
<clipPath id="clip0_310_1122">
<rect width="84.2578" height="50.987" fill="white" transform="translate(0.882812 0.985352)"/>
</clipPath>
</defs>
</svg>
