<svg width="75" height="32" viewBox="0 0 75 32" fill="none" xmlns="http://www.w3.org/2000/svg">
<g clip-path="url(#clip0_310_1331)">
<path d="M77.2767 3.78362C75.9415 3.78362 75.265 4.64367 74.0878 6.28986C72.8638 8.001 71.1859 10.346 67.8901 10.346C64.5944 10.346 62.9165 8.001 61.6925 6.28986C60.5153 4.64367 59.8388 3.78362 58.5058 3.78362C57.1706 3.78362 56.4963 4.64367 55.3191 6.28986C54.0952 8.001 52.4172 10.346 49.1237 10.346C45.828 10.346 44.1523 8.001 42.9261 6.28762C41.7489 4.64143 41.0724 3.78362 39.7394 3.78362C38.4064 3.78362 37.7299 4.64367 36.5527 6.28762C35.3287 7.99876 33.653 10.3438 30.3573 10.3438C27.0615 10.3438 25.3858 7.99876 24.1597 6.28762C22.9825 4.64143 22.3059 3.78362 20.973 3.78362C19.6377 3.78362 18.9635 4.64367 17.7863 6.28986C16.5623 8.001 14.8844 10.346 11.5909 10.346C8.29511 10.346 6.61941 8.001 5.39547 6.28986C4.21825 4.64367 3.54175 3.78586 2.20876 3.78586C1.18287 3.78362 0.350586 2.94596 0.350586 1.91793C0.350586 0.889901 1.18287 0.0522461 2.20431 0.0522461C5.50006 0.0522461 7.17575 2.39723 8.3997 4.10838C9.57691 5.75457 10.2534 6.61462 11.5886 6.61462C12.9238 6.61462 13.5981 5.75457 14.7753 4.10838C15.9993 2.39723 17.675 0.0522461 20.9707 0.0522461C24.2665 0.0522461 25.9422 2.39723 27.1684 4.10838C28.3456 5.75457 29.0221 6.61238 30.3551 6.61238C31.6881 6.61238 32.3646 5.75457 33.5418 4.10838C34.7657 2.39723 36.4436 0.0522461 39.7394 0.0522461C43.0351 0.0522461 44.7108 2.39723 45.937 4.10838C47.1142 5.75457 47.7907 6.61238 49.1237 6.61238C50.4567 6.61238 51.1332 5.75233 52.3104 4.10614C53.5344 2.39723 55.2101 0.0522461 58.5058 0.0522461C61.8016 0.0522461 63.4795 2.39723 64.7034 4.10838C65.8806 5.75457 66.5572 6.61462 67.8901 6.61462C69.2254 6.61462 69.9019 5.75457 71.0769 4.10838C72.303 2.39723 73.9809 0.0522461 77.2767 0.0522461C78.2981 0.0522461 79.1304 0.889901 79.1304 1.91793C79.1304 2.94596 78.2981 3.78362 77.2767 3.78362Z" fill="#FDAE02"/>
<path d="M2.20431 10.4783C5.50006 10.4783 7.17575 12.8233 8.3997 14.5344C9.57691 16.1806 10.2534 17.0384 11.5864 17.0384C12.9194 17.0384 13.5959 16.1784 14.7731 14.5344C15.9971 12.8233 17.675 10.4783 20.9707 10.4783C24.2665 10.4783 25.9422 12.8233 27.1684 14.5344C28.3456 16.1806 29.0221 17.0384 30.3551 17.0384C31.6881 17.0384 32.3646 16.1806 33.5418 14.5344C34.7657 12.8233 36.4414 10.4783 39.7372 10.4783C43.0329 10.4783 44.7086 12.8233 45.9348 14.5344C47.112 16.1806 47.7885 17.0384 49.1215 17.0384C50.4545 17.0384 51.131 16.1784 52.3082 14.5322C53.5322 12.8211 55.2101 10.4761 58.5058 10.4761C61.8016 10.4761 63.4795 12.8211 64.7034 14.5322C65.8807 16.1784 66.5572 17.0384 67.8901 17.0384C69.2254 17.0384 69.9019 16.1784 71.0769 14.5344C72.3008 12.8233 73.9787 10.4783 77.2745 10.4783C78.2959 10.4783 79.1282 11.316 79.1282 12.344C79.1282 13.372 78.2959 14.2097 77.2745 14.2097C75.9393 14.2097 75.2628 15.0675 74.0855 16.7137C72.8616 18.4248 71.1837 20.7698 67.8879 20.7698C64.5922 20.7698 62.9143 18.4248 61.6903 16.7137C60.5131 15.0675 59.8366 14.2097 58.5036 14.2097C57.1684 14.2097 56.4919 15.0675 55.3169 16.7159C54.0929 18.4271 52.415 20.7721 49.1215 20.7721C45.8257 20.7721 44.15 18.4271 42.9239 16.7159C41.7467 15.0697 41.0702 14.2119 39.7372 14.2119C38.402 14.2119 37.7277 15.0697 36.5505 16.7159C35.3265 18.4271 33.6508 20.7721 30.3551 20.7721C27.0593 20.7721 25.3836 18.4271 24.1597 16.7159C22.9825 15.0697 22.306 14.2119 20.973 14.2119C19.6377 14.2119 18.9612 15.0697 17.7863 16.7182C16.5623 18.4293 14.8844 20.7743 11.5909 20.7743C8.29511 20.7743 6.61941 18.4293 5.39547 16.7182C4.21826 15.072 3.54175 14.2142 2.20876 14.2142C1.18287 14.2097 0.350586 13.3743 0.350586 12.344C0.350586 11.316 1.18287 10.4783 2.20431 10.4783Z" fill="#FDAE02"/>
<path d="M2.20404 20.9063C5.49979 20.9063 7.17549 23.2513 8.39943 24.9625C9.57664 26.6087 10.2532 27.4665 11.5861 27.4665C12.9191 27.4665 13.5956 26.6064 14.7729 24.9602C15.9968 23.2491 17.6747 20.9041 20.9705 20.9041C24.2662 20.9041 25.9419 23.2491 27.1681 24.9602C28.3453 26.6064 29.0218 27.4642 30.3548 27.4642C31.69 27.4642 32.3643 26.6042 33.5415 24.9602C34.7654 23.2491 36.4411 20.9041 39.7369 20.9041C43.0326 20.9041 44.7083 23.2491 45.9323 24.9602C47.1095 26.6064 47.786 27.4642 49.119 27.4642C50.452 27.4642 51.1285 26.6042 52.3057 24.9602C53.5297 23.2491 55.2053 20.9041 58.5033 20.9041C61.7991 20.9041 63.477 23.2491 64.7009 24.9602C65.8782 26.6064 66.5547 27.4642 67.8876 27.4642C69.2229 27.4642 69.8994 26.6042 71.0744 24.958C72.2983 23.2468 73.9762 20.9019 77.272 20.9019C78.2934 20.9019 79.1257 21.7395 79.1257 22.7675C79.1257 23.7956 78.2934 24.6332 77.272 24.6332C75.9368 24.6332 75.2603 25.4933 74.083 27.1395C72.8591 28.8506 71.1834 31.1956 67.8854 31.1956C64.5897 31.1956 62.9118 28.8506 61.6878 27.1395C60.5106 25.4933 59.8341 24.6332 58.5011 24.6332C57.1659 24.6332 56.4916 25.4933 55.3144 27.1395C54.0904 28.8506 52.4147 31.1956 49.119 31.1956C45.8232 31.1956 44.1476 28.8506 42.9214 27.1395C41.7442 25.4933 41.0677 24.6355 39.7347 24.6355C38.3995 24.6355 37.7252 25.4955 36.548 27.1417C35.324 28.8529 33.6483 31.1978 30.3526 31.1978C27.0568 31.1978 25.3811 28.8529 24.1572 27.1417C22.98 25.4955 22.3035 24.6377 20.9705 24.6377C19.6353 24.6377 18.961 25.4978 17.7838 27.1439C16.5598 28.8551 14.8841 31.2001 11.5884 31.2001C8.29261 31.2001 6.61692 28.8551 5.39298 27.1439C4.21576 25.4978 3.53925 24.6377 2.20627 24.6377C1.18483 24.6377 0.352544 23.8001 0.352544 22.772C0.350318 21.7418 1.1826 20.9063 2.20404 20.9063Z" fill="#FDAE02"/>
</g>
<defs>
<clipPath id="clip0_310_1331">
<rect width="78.7798" height="31.1455" fill="white" transform="translate(0.350586 0.0522461)"/>
</clipPath>
</defs>
</svg>
