<svg width="87" height="64" viewBox="0 0 87 64" fill="none" xmlns="http://www.w3.org/2000/svg">
<path d="M61.1163 5.50542C59.6782 10.791 60.0812 16.7728 57.7545 21.8202C54.072 29.8172 48.823 16.9468 45.9466 14.3544C42.5298 11.2765 37.0702 7.8963 33.3144 11.4414C29.5678 14.9773 29.1556 21.6736 28.0929 26.4279C27.296 29.973 26.2059 38.8494 21.5066 39.5914C16.6241 40.3701 12.5843 31.3012 7.31705 34.3883C3.08493 36.8708 1.13375 45.8297 0.93222 50.2634C0.758172 54.01 1.36276 63.5643 6.96895 63.2987C7.81171 63.262 9.27739 62.5475 10.2667 61.6681C10.7431 61.32 11.1736 60.8437 11.5217 60.1933C13.6194 56.3367 9.2499 46.9564 15.021 45.5182C20.8379 44.0709 23.6135 53.1947 28.67 54.697C34.2762 56.3642 37.7389 49.3198 37.9862 44.4007C38.1511 41.1304 34.5694 32.4096 37.4824 29.4417C41.3664 25.4935 47.6505 34.4616 50.1238 36.2204C53.9895 38.9685 60.2736 42.1197 63.6813 37.1548C67.1256 32.144 65.8431 25.5851 67.5103 20.0247C68.1332 17.9636 68.9119 15.6644 71.257 15.1331C74.0143 14.5101 75.4066 17.6339 77.1746 19.3652C79.0708 21.2156 81.1228 23.3591 83.8068 21.6003C85.8495 20.2537 86.4725 17.9087 85.877 15.7376C83.7335 7.91462 64.9546 -8.58334 61.1163 5.50542Z" fill="#EA63C0"/>
</svg>
