<svg width="79" height="32" viewBox="0 0 79 32" fill="none" xmlns="http://www.w3.org/2000/svg">
<g clip-path="url(#clip0_313_1911)">
<path d="M76.9261 3.73137C75.5909 3.73137 74.9144 4.59142 73.7372 6.23761C72.5132 7.94876 70.8353 10.2937 67.5396 10.2937C64.2438 10.2937 62.5659 7.94876 61.3419 6.23761C60.1647 4.59142 59.4882 3.73137 58.1552 3.73137C56.82 3.73137 56.1457 4.59142 54.9685 6.23761C53.7446 7.94876 52.0667 10.2937 48.7731 10.2937C45.4774 10.2937 43.8017 7.94876 42.5755 6.23537C41.3983 4.58918 40.7218 3.73137 39.3888 3.73137C38.0558 3.73137 37.3793 4.59142 36.2021 6.23537C34.9781 7.94652 33.3025 10.2915 30.0067 10.2915C26.7109 10.2915 25.0353 7.94652 23.8091 6.23537C22.6319 4.58918 21.9554 3.73137 20.6224 3.73137C19.2872 3.73137 18.6129 4.59142 17.4357 6.23761C16.2117 7.94876 14.5338 10.2937 11.2403 10.2937C7.94452 10.2937 6.26883 7.94876 5.04488 6.23761C3.86767 4.59142 3.19116 3.73361 1.85817 3.73361C0.832283 3.73137 0 2.89372 0 1.86568C0 0.837654 0.832283 0 1.85372 0C5.14947 0 6.82517 2.34498 8.04911 4.05613C9.22633 5.70232 9.90283 6.56237 11.238 6.56237C12.5733 6.56237 13.2475 5.70232 14.4248 4.05613C15.6487 2.34498 17.3244 0 20.6201 0C23.9159 0 25.5916 2.34498 26.8178 4.05613C27.995 5.70232 28.6715 6.56013 30.0045 6.56013C31.3375 6.56013 32.014 5.70232 33.1912 4.05613C34.4151 2.34498 36.0931 0 39.3888 0C42.6846 0 44.3602 2.34498 45.5864 4.05613C46.7636 5.70232 47.4401 6.56013 48.7731 6.56013C50.1061 6.56013 50.7826 5.70008 51.9598 4.05389C53.1838 2.34498 54.8595 0 58.1552 0C61.451 0 63.1289 2.34498 64.3528 4.05613C65.5301 5.70232 66.2066 6.56237 67.5396 6.56237C68.8748 6.56237 69.5513 5.70232 70.7263 4.05613C71.9524 2.34498 73.6304 0 76.9261 0C77.9475 0 78.7798 0.837654 78.7798 1.86568C78.7798 2.89372 77.9475 3.73137 76.9261 3.73137Z" fill="#FDAE02"/>
<path d="M1.85372 10.4261C5.14947 10.4261 6.82517 12.7711 8.04911 14.4822C9.22633 16.1284 9.90284 16.9862 11.2358 16.9862C12.5688 16.9862 13.2453 16.1262 14.4225 14.4822C15.6465 12.7711 17.3244 10.4261 20.6202 10.4261C23.9159 10.4261 25.5916 12.7711 26.8178 14.4822C27.995 16.1284 28.6715 16.9862 30.0045 16.9862C31.3375 16.9862 32.014 16.1284 33.1912 14.4822C34.4151 12.7711 36.0908 10.4261 39.3866 10.4261C42.6823 10.4261 44.358 12.7711 45.5842 14.4822C46.7614 16.1284 47.4379 16.9862 48.7709 16.9862C50.1039 16.9862 50.7804 16.1261 51.9576 14.48C53.1816 12.7688 54.8595 10.4238 58.1552 10.4238C61.451 10.4238 63.1289 12.7688 64.3529 14.48C65.5301 16.1261 66.2066 16.9862 67.5396 16.9862C68.8748 16.9862 69.5513 16.1262 70.7263 14.4822C71.9502 12.7711 73.6281 10.4261 76.9239 10.4261C77.9453 10.4261 78.7776 11.2637 78.7776 12.2918C78.7776 13.3198 77.9453 14.1574 76.9239 14.1574C75.5887 14.1574 74.9122 15.0152 73.735 16.6614C72.511 18.3726 70.8331 20.7176 67.5373 20.7176C64.2416 20.7176 62.5637 18.3726 61.3397 16.6614C60.1625 15.0152 59.486 14.1574 58.153 14.1574C56.8178 14.1574 56.1413 15.0152 54.9663 16.6637C53.7424 18.3748 52.0644 20.7198 48.7709 20.7198C45.4752 20.7198 43.7995 18.3748 42.5733 16.6637C41.3961 15.0175 40.7196 14.1597 39.3866 14.1597C38.0514 14.1597 37.3771 15.0175 36.1999 16.6637C34.9759 18.3748 33.3002 20.7198 30.0045 20.7198C26.7087 20.7198 25.033 18.3748 23.8091 16.6637C22.6319 15.0175 21.9554 14.1597 20.6224 14.1597C19.2872 14.1597 18.6107 15.0175 17.4357 16.6659C16.2117 18.3771 14.5338 20.722 11.2403 20.722C7.94452 20.722 6.26883 18.3771 5.04488 16.6659C3.86767 15.0197 3.19116 14.1619 1.85817 14.1619C0.832283 14.1574 0 13.322 0 12.2918C0 11.2637 0.832283 10.4261 1.85372 10.4261Z" fill="#FDAE02"/>
<path d="M1.85345 20.8541C5.14921 20.8541 6.8249 23.1991 8.04885 24.9102C9.22606 26.5564 9.90257 27.4142 11.2356 27.4142C12.5685 27.4142 13.2451 26.5542 14.4223 24.908C15.6462 23.1968 17.3241 20.8518 20.6199 20.8518C23.9156 20.8518 25.5913 23.1968 26.8175 24.908C27.9947 26.5542 28.6712 27.412 30.0042 27.412C31.3394 27.412 32.0137 26.5519 33.1909 24.908C34.4149 23.1968 36.0906 20.8518 39.3863 20.8518C42.6821 20.8518 44.3578 23.1968 45.5817 24.908C46.7589 26.5542 47.4354 27.412 48.7684 27.412C50.1014 27.412 50.7779 26.5519 51.9551 24.908C53.1791 23.1968 54.8548 20.8518 58.1527 20.8518C61.4485 20.8518 63.1264 23.1968 64.3504 24.908C65.5276 26.5542 66.2041 27.412 67.5371 27.412C68.8723 27.412 69.5488 26.5519 70.7238 24.9057C71.9477 23.1946 73.6256 20.8496 76.9214 20.8496C77.9428 20.8496 78.7751 21.6873 78.7751 22.7153C78.7751 23.7433 77.9428 24.581 76.9214 24.581C75.5862 24.581 74.9097 25.441 73.7325 27.0872C72.5085 28.7984 70.8328 31.1434 67.5348 31.1434C64.2391 31.1434 62.5612 28.7984 61.3372 27.0872C60.16 25.441 59.4835 24.581 58.1505 24.581C56.8153 24.581 56.141 25.441 54.9638 27.0872C53.7399 28.7984 52.0642 31.1434 48.7684 31.1434C45.4727 31.1434 43.797 28.7984 42.5708 27.0872C41.3936 25.441 40.7171 24.5832 39.3841 24.5832C38.0489 24.5832 37.3746 25.4433 36.1974 27.0895C34.9734 28.8006 33.2977 31.1456 30.002 31.1456C26.7062 31.1456 25.0305 28.8006 23.8066 27.0895C22.6294 25.4433 21.9529 24.5855 20.6199 24.5855C19.2847 24.5855 18.6104 25.4455 17.4332 27.0917C16.2092 28.8028 14.5335 31.1478 11.2378 31.1478C7.94203 31.1478 6.26634 28.8028 5.04239 27.0917C3.86518 25.4455 3.18867 24.5855 1.85568 24.5855C0.834241 24.5855 0.00195758 23.7478 0.00195758 22.7198C-0.000267779 21.6895 0.832015 20.8541 1.85345 20.8541Z" fill="#FDAE02"/>
</g>
<defs>
<clipPath id="clip0_313_1911">
<rect width="78.7798" height="31.1455" fill="white"/>
</clipPath>
</defs>
</svg>
