<svg width="25" height="25" viewBox="0 0 25 25" fill="none" xmlns="http://www.w3.org/2000/svg">
<g clip-path="url(#clip0_313_1903)">
<path d="M17.7628 14.8317L21.3686 18.4375C21.7593 18.8282 21.9758 19.3508 21.9758 19.9032C21.9758 20.4557 21.7593 20.9783 21.3686 21.369C20.9779 21.7597 20.4553 21.9762 19.9029 21.9762C19.3504 21.9762 18.8278 21.7597 18.4372 21.369L14.8313 17.7631C14.4406 17.3724 14.2241 16.8498 14.2241 16.2974C14.2241 15.7425 14.4406 15.2224 14.8313 14.8317C15.6376 14.0229 16.954 14.0229 17.7628 14.8317Z" fill="#3EADBA"/>
<path d="M8.43595 10.5093C7.8835 10.5093 7.3634 10.2928 6.97022 9.90212L3.36438 6.29877C2.55562 5.49 2.55562 4.17608 3.36438 3.36731C4.17315 2.55855 5.48707 2.55855 6.29584 3.36731L9.90167 6.97315C10.2924 7.36385 10.5089 7.88643 10.5089 8.43888C10.5089 8.99132 10.2924 9.51391 9.90167 9.9046C9.50849 10.2953 8.9884 10.5093 8.43595 10.5093Z" fill="#3EADBA"/>
<path d="M17.7358 13.0026C16.8001 13.0026 15.9765 12.3706 15.7351 11.4672C15.5907 10.9322 15.6654 10.3748 15.9416 9.89451C16.2178 9.41423 16.6658 9.07082 17.2008 8.92897L22.1255 7.61007C22.6606 7.46574 23.218 7.54039 23.6983 7.81661C24.1786 8.09284 24.522 8.54077 24.6638 9.0758C24.9599 10.1782 24.303 11.3179 23.1981 11.6141L18.2733 12.933C18.0967 12.9778 17.915 13.0026 17.7358 13.0026Z" fill="#3EADBA"/>
<path d="M1.53525 13.1218L6.46 11.8029C6.99502 11.6586 7.55245 11.7333 8.03273 12.0095C8.51301 12.2857 8.85393 12.7336 8.99827 13.2687C9.2944 14.3711 8.63743 15.5108 7.53254 15.8069L2.6078 17.1258C2.4336 17.1731 2.25194 17.1955 2.07028 17.1955C1.13461 17.1955 0.310912 16.5634 0.0695278 15.6576C-0.224115 14.5577 0.432849 13.418 1.53525 13.1218Z" fill="#3EADBA"/>
<path d="M12.0095 8.03567C11.7333 7.55539 11.6586 6.99797 11.8029 6.46294L13.1218 1.5382C13.2662 1.00317 13.6071 0.55524 14.0874 0.279016C14.5677 0.00279271 15.1251 -0.0718623 15.6601 0.0724707C16.1951 0.216804 16.6431 0.557728 16.9193 1.03801C17.1955 1.51829 17.2702 2.07571 17.1258 2.61074L15.8069 7.53548C15.5656 8.43881 14.7419 9.07089 13.8062 9.07089C13.6245 9.07089 13.4429 9.046 13.2687 9.00121C12.7336 8.85688 12.2857 8.51346 12.0095 8.03567Z" fill="#3EADBA"/>
<path d="M8.92639 17.2008C9.07072 16.6658 9.41165 16.2178 9.89193 15.9416C10.3722 15.6654 10.9296 15.5907 11.4647 15.7351C12.5696 16.0312 13.2265 17.1709 12.9304 18.2733L11.6115 23.1981C11.3701 24.1039 10.5464 24.7335 9.61073 24.7335C9.43156 24.7335 9.2499 24.7086 9.07321 24.6613C7.97081 24.3652 7.31135 23.2255 7.60749 22.123L8.92639 17.2008Z" fill="#3EADBA"/>
</g>
<defs>
<clipPath id="clip0_313_1903">
<rect width="24.7332" height="24.7332" fill="white"/>
</clipPath>
</defs>
</svg>
