<svg width="214" height="69" viewBox="0 0 214 69" fill="none" xmlns="http://www.w3.org/2000/svg">
<path d="M79 52V17H100.95V23.1H85.1V30.2H97.675V36.3H85.1V45.9H100.95V52H79ZM124.414 14.5H130.514V52H124.414V48.875C123.614 49.9917 122.605 50.9 121.389 51.6C120.172 52.3 118.764 52.65 117.164 52.65C115.347 52.65 113.647 52.3083 112.064 51.625C110.48 50.9417 109.08 50 107.864 48.8C106.664 47.5833 105.722 46.1833 105.039 44.6C104.355 43.0167 104.014 41.3167 104.014 39.5C104.014 37.6833 104.355 35.9833 105.039 34.4C105.722 32.8167 106.664 31.425 107.864 30.225C109.08 29.0083 110.48 28.0583 112.064 27.375C113.647 26.6917 115.347 26.35 117.164 26.35C118.764 26.35 120.172 26.7 121.389 27.4C122.605 28.0833 123.614 28.9917 124.414 30.125V14.5ZM117.239 46.775C118.539 46.775 119.689 46.45 120.689 45.8C121.689 45.15 122.472 44.275 123.039 43.175C123.605 42.0583 123.889 40.8333 123.889 39.5C123.889 38.15 123.605 36.925 123.039 35.825C122.472 34.7083 121.68 33.825 120.664 33.175C119.664 32.525 118.522 32.2 117.239 32.2C115.955 32.2 114.78 32.5333 113.714 33.2C112.664 33.85 111.822 34.725 111.189 35.825C110.572 36.925 110.264 38.15 110.264 39.5C110.264 40.85 110.58 42.075 111.214 43.175C111.847 44.275 112.689 45.15 113.739 45.8C114.805 46.45 115.972 46.775 117.239 46.775ZM135.52 42.75V27H141.62V41.15C141.62 42.1333 141.861 43.0333 142.345 43.85C142.828 44.65 143.47 45.2917 144.27 45.775C145.086 46.2417 145.978 46.475 146.945 46.475C147.945 46.475 148.845 46.2417 149.645 45.775C150.445 45.2917 151.086 44.65 151.57 43.85C152.053 43.0333 152.295 42.1333 152.295 41.15V27H158.395L158.42 52H152.32L152.295 49.725C151.428 50.625 150.403 51.3417 149.22 51.875C148.036 52.3917 146.77 52.65 145.42 52.65C143.603 52.65 141.945 52.2083 140.445 51.325C138.945 50.425 137.745 49.2333 136.845 47.75C135.961 46.25 135.52 44.5833 135.52 42.75ZM185.895 52H178.87L173.17 42.175L169.67 46.35V52H163.57V14.5H169.67V36.875L177.945 27H185.92L177.345 37.225L185.895 52ZM199.229 52.65C196.929 52.65 194.829 52.0583 192.929 50.875C191.045 49.6917 189.537 48.1083 188.404 46.125C187.287 44.125 186.729 41.9167 186.729 39.5C186.729 37.6667 187.054 35.9583 187.704 34.375C188.354 32.775 189.245 31.375 190.379 30.175C191.529 28.9583 192.862 28.0083 194.379 27.325C195.895 26.6417 197.512 26.3 199.229 26.3C201.529 26.3 203.62 26.8917 205.504 28.075C207.404 29.2583 208.912 30.85 210.029 32.85C211.162 34.85 211.729 37.0667 211.729 39.5C211.729 41.3167 211.404 43.0167 210.754 44.6C210.104 46.1833 209.204 47.5833 208.054 48.8C206.92 50 205.595 50.9417 204.079 51.625C202.579 52.3083 200.962 52.65 199.229 52.65ZM199.229 46.55C200.445 46.55 201.537 46.225 202.504 45.575C203.47 44.925 204.229 44.0667 204.779 43C205.345 41.9333 205.629 40.7667 205.629 39.5C205.629 38.2 205.337 37.0167 204.754 35.95C204.187 34.8667 203.412 34.0083 202.429 33.375C201.462 32.725 200.395 32.4 199.229 32.4C198.029 32.4 196.945 32.725 195.979 33.375C195.012 34.025 194.245 34.8917 193.679 35.975C193.112 37.0583 192.829 38.2333 192.829 39.5C192.829 40.8167 193.12 42.0083 193.704 43.075C194.287 44.1417 195.062 44.9917 196.029 45.625C197.012 46.2417 198.079 46.55 199.229 46.55Z" fill="white"/>
<g clip-path="url(#clip0_751_95)">
<path d="M51.779 58.1666C46.8055 62.6358 40.2219 65.3571 32.9998 65.3571C25.7778 65.3571 19.1946 62.6358 14.2211 58.1666C12.6222 58.2329 11.036 58.3674 9.4624 58.57C15.2671 64.9744 23.662 69 32.9998 69C42.3377 69 50.7333 64.9744 56.5376 58.57C54.9661 58.3674 53.3799 58.2329 51.779 58.1666Z" fill="white"/>
<path d="M41.9253 7.00739C42.9393 8.5519 43.4262 10.039 43.556 11.4282C53.824 15.5897 61.0653 25.6339 61.0653 37.3679C61.0653 40.8648 60.4294 44.3677 59.2547 47.4537L63.1901 47.0965C64.3565 43.803 64.7181 41.0595 64.7181 37.3679C64.7181 22.9891 55.0973 10.8525 41.9253 7.00739Z" fill="white"/>
<path d="M24.0743 7.00739C23.0607 8.5519 22.5738 10.039 22.444 11.4282C12.1749 15.5897 4.93473 25.6339 4.93473 37.3679C4.93473 40.8648 5.57062 44.3677 6.74495 47.4537L2.80994 47.0965C1.64351 43.803 1.28192 41.0595 1.28192 37.3679C1.28192 22.9891 10.9027 10.8525 24.0743 7.00739Z" fill="white"/>
<path d="M37.2155 8.28732C35.1144 5.96792 34.7596 3.28979 34.8262 1.93365L34.7999 1.97793C34.6381 2.25148 33.7877 3.79262 33.5319 6.33454C30.6937 3.76485 31.2867 1.78242 31.5376 0.0885583C31.5422 0.059289 31.5467 0.0296445 31.5501 0C28.5222 2.38469 30.939 6.27187 32.566 8.59991C33.1127 9.38117 33.5706 9.98832 33.7038 10.3009C34.509 12.1963 33.5755 14.3828 32.9302 15.5397C31.9316 14.9292 31.8989 12.743 31.9316 11.2653C31.319 11.4904 30.9593 12.8972 30.4431 14.7288C29.9272 13.444 29.934 12.209 30.3332 11.3096C31.6739 8.27945 30.612 7.11843 29.9347 6.0895C29.9024 8.24267 29.0964 9.20743 27.8389 10.8788C25.5192 13.6113 28.4191 16.4399 28.4191 16.4399C27.6835 15.4193 27.5594 13.1089 28.3578 11.7816C28.3578 11.7816 28.1486 14.426 29.1028 16.1345C29.1028 16.1345 29.1028 15.1799 29.1562 13.4278C29.1562 13.4278 29.9464 16.7157 31.3905 17.5146C31.3905 17.5146 31.0184 15.2853 31.3375 14.2245C31.3375 14.2245 31.9233 15.975 32.9588 17.1961C36.4957 15.2853 35.9136 11.782 35.4885 9.60669C37.2983 12.048 36.7128 14.277 36.0736 16.1878C37.6272 15.4748 37.5244 13.4061 37.4575 11.6233C37.4575 11.6233 37.4921 11.6904 37.5417 11.8161C37.7547 12.3606 38.2427 14.0087 37.404 16.1345C40.4368 12.4188 38.6532 9.87537 37.2155 8.28732Z" fill="#CB9E00"/>
<path d="M18.8894 18.7451L20.9254 21.2307H45.5886L47.111 18.7451H18.8894Z" fill="white"/>
<path d="M24.565 24.6075V44.8476C25.6797 45.495 26.7416 46.1817 27.7505 46.9077V24.6075H31.3352V49.8654C31.9176 50.4183 32.4725 50.9864 32.9998 51.5698C33.4829 51.0339 33.9899 50.511 34.5207 50.0009V24.6075H38.1057V47.0098C39.1134 46.2775 40.1752 45.584 41.2912 44.929V24.6075H43.3543L44.6073 22.1058H21.3934L23.0686 24.6075H24.565Z" fill="#CB9E00"/>
<path d="M66 55.147C54.3214 53.0528 42.2199 54.8183 33.139 59.3787C33.1228 59.3832 33.1063 59.3881 33.0901 59.3933C40.2272 55.0836 49.907 52.5725 60.3883 52.897C61.0453 52.9173 61.6975 52.9483 62.3449 52.9901L62.632 49.0395C50.4902 49.2647 39.6797 53.2839 33.0442 59.4076C33.0406 59.4089 33.037 59.4101 33.0333 59.411C37.9248 53.9125 46.0687 49.6512 56.2573 47.9584C56.8947 47.8526 57.5321 47.7579 58.1695 47.6744L56.6734 43.8423C45.1555 46.376 36.6154 52.2854 33.0167 59.4151C33.0115 59.4171 33.006 59.4187 33.0006 59.42C32.995 59.4187 32.9896 59.4171 32.9844 59.4151C29.3861 52.2854 20.8452 46.3753 9.32729 43.8423L7.83125 47.6732C8.4684 47.757 9.1058 47.8517 9.74344 47.9573C19.9316 49.65 28.0763 53.9113 32.9674 59.4098L32.9562 59.4065C26.3192 53.2839 15.5101 49.2654 3.37022 49.0395L3.65731 52.9901C4.30399 52.9483 4.95619 52.9173 5.61391 52.897C16.0948 52.5725 25.7755 55.0836 32.9121 59.3933C32.896 59.3881 32.8794 59.3832 32.8632 59.3787C23.7812 54.8183 11.6793 53.0528 0.00262451 55.147L0.00977369 55.1609C0.00739411 55.1611 0.00500409 55.1611 0.00262451 55.1609L2.04726 58.8845C2.64703 58.7209 3.25634 58.5668 3.87517 58.4222C13.0945 56.2664 22.7563 56.6079 31.1237 58.9081C31.1307 59.3998 31.3315 59.869 31.6826 60.2142C32.0337 60.5594 32.5069 60.753 33 60.753C33.4931 60.753 33.9663 60.5594 34.3174 60.2142C34.6685 59.869 34.8693 59.3998 34.8762 58.9081C43.2437 56.6079 52.9051 56.2668 62.1271 58.4233C62.7459 58.5674 63.3553 58.7215 63.9554 58.8856L66 55.162C65.9975 55.1622 65.995 55.1622 65.9925 55.162L66 55.147Z" fill="white"/>
</g>
<defs>
<clipPath id="clip0_751_95">
<rect width="66" height="69" fill="white"/>
</clipPath>
</defs>
</svg>
