<svg width="66" height="66" viewBox="0 0 66 66" fill="none" xmlns="http://www.w3.org/2000/svg">
<g clip-path="url(#clip0_310_1347)">
<path d="M65.4179 23.4354C65.4647 20.0392 62.7398 17.2381 59.3437 17.1913C55.9475 17.1445 53.1469 19.8695 53.1001 23.2656C53.0776 24.8982 53.6966 26.3925 54.7225 27.5101C52.8425 29.5557 50.136 30.8259 47.1463 30.7847C42.3067 30.718 38.3004 27.2408 37.3824 22.677C38.5302 21.5751 39.2548 20.0336 39.2784 18.321C39.3252 14.9249 36.6002 12.1237 33.2041 12.0769C29.808 12.0301 27.0068 14.7551 26.96 18.1512C26.9364 19.8638 27.6188 21.4247 28.7353 22.5578C27.6918 27.0946 23.5912 30.46 18.7516 30.3933C15.7619 30.3521 13.0914 29.0079 11.2686 26.9112C12.3248 25.8223 12.9853 24.3456 13.0078 22.713C13.0546 19.3169 10.3296 16.5158 6.93349 16.469C3.53736 16.4221 0.736248 19.1471 0.68944 22.5432C0.648873 25.4865 2.69049 27.9813 5.44616 28.6249C6.02694 34.0424 7.32106 40.8864 10.1934 45.5695L10.1151 51.2561C10.1005 52.3089 10.9421 53.1745 11.995 53.189L53.2721 53.758C54.3249 53.7725 55.19 52.9304 55.2046 51.8775L55.2829 46.191C58.2833 41.5888 59.7655 34.7836 60.4954 29.3836C63.2678 28.8158 65.3774 26.3787 65.4179 23.4354ZM56.9125 23.3181C56.9304 22.0243 57.9973 20.9859 59.2911 21.0038C60.585 21.0216 61.6233 22.089 61.6055 23.3828C61.5877 24.6767 60.5203 25.7145 59.2264 25.6967C57.9326 25.6789 56.8947 24.612 56.9125 23.3181ZM30.7725 18.2037C30.7903 16.9099 31.8577 15.8715 33.1515 15.8894C34.4454 15.9072 35.4833 16.9746 35.4654 18.2684C35.4476 19.5623 34.3807 20.6002 33.0869 20.5823C31.793 20.5645 30.7546 19.4976 30.7725 18.2037ZM4.50188 22.5958C4.51971 21.3019 5.58709 20.2636 6.88095 20.2814C8.17481 20.2992 9.21267 21.3666 9.19483 22.6605C9.177 23.9543 8.11012 24.9922 6.81626 24.9743C5.52241 24.9565 4.48405 23.8896 4.50188 22.5958ZM13.9538 49.4024L13.9874 46.9613L51.452 47.4777L51.4184 49.9188L13.9538 49.4024ZM52.3634 43.6766L13.1817 43.1366C11.2221 39.7054 10.1359 34.9081 9.53461 30.5839C11.9605 32.7916 15.169 34.1571 18.699 34.2057C25.036 34.2931 30.4548 30.1086 32.2094 24.3266C32.479 24.3669 32.7543 24.3909 33.0343 24.3948C33.3143 24.3986 33.5902 24.3822 33.8608 24.3494C35.4554 30.1775 40.7568 34.5098 47.0938 34.5971C50.6247 34.6458 53.8717 33.3683 56.3575 31.2263C55.6378 35.5318 54.4198 40.2968 52.3634 43.6766Z" fill="#F2BC00"/>
</g>
<defs>
<clipPath id="clip0_310_1347">
<rect width="64.7346" height="64.7346" fill="white" transform="translate(1) rotate(0.78965)"/>
</clipPath>
</defs>
</svg>
