<svg width="75" height="72" viewBox="0 0 75 72" fill="none" xmlns="http://www.w3.org/2000/svg">
<g clip-path="url(#clip0_18_37)">
<mask id="mask0_18_37" style="mask-type:luminance" maskUnits="userSpaceOnUse" x="-1" y="0" width="73" height="73">
<path d="M42.4417 71.3541C61.7983 67.5968 74.4682 48.7335 70.7408 29.2217C67.0134 9.71002 48.3001 -3.06147 28.9435 0.695831C9.58693 4.45313 -3.083 23.3164 0.644419 42.8281C4.37184 62.3399 23.0851 75.1114 42.4417 71.3541Z" fill="white"/>
</mask>
<g mask="url(#mask0_18_37)">
<path d="M64.0859 3.18161C63.2072 3.18161 62.5019 2.4707 62.5019 1.58498C62.5019 0.699255 63.2072 0 64.0859 0C64.9645 0 65.6698 0.71091 65.6698 1.59663C65.6698 2.48236 64.9645 3.18161 64.0859 3.18161Z" fill="#15A280"/>
<path d="M46.1307 3.18161C45.252 3.18161 44.5468 2.4707 44.5468 1.58498C44.5468 0.699255 45.252 0 46.1307 0C47.0094 0 47.7147 0.71091 47.7147 1.59663C47.7147 2.48236 47.0094 3.18161 46.1307 3.18161Z" fill="#15A280"/>
<path d="M28.1756 3.18161C27.2969 3.18161 26.5916 2.4707 26.5916 1.59663C26.5916 0.722564 27.2969 0 28.1756 0C29.0543 0 29.7595 0.71091 29.7595 1.59663C29.7595 2.48236 29.0427 3.18161 28.1756 3.18161Z" fill="#15A280"/>
<path d="M10.2089 3.18161C9.3302 3.18161 8.62494 2.4707 8.62494 1.58498C8.62494 0.699255 9.34176 0 10.2089 0C11.0876 0 11.7928 0.71091 11.7928 1.59663C11.7928 2.48236 11.0876 3.18161 10.2089 3.18161Z" fill="#15A280"/>
<path d="M64.0859 22.8886C63.2072 22.8886 62.5019 22.1777 62.5019 21.2919C62.5019 20.4062 63.2072 19.6953 64.0859 19.6953C64.9645 19.6953 65.6698 20.4062 65.6698 21.2919C65.6698 22.1777 64.9645 22.8886 64.0859 22.8886Z" fill="#15A280"/>
<path d="M46.1307 22.8886C45.252 22.8886 44.5468 22.1777 44.5468 21.2919C44.5468 20.4062 45.252 19.6953 46.1307 19.6953C47.0094 19.6953 47.7147 20.4062 47.7147 21.2919C47.7147 22.1777 47.0094 22.8886 46.1307 22.8886Z" fill="#15A280"/>
<path d="M28.1756 22.8886C27.2969 22.8886 26.5916 22.1777 26.5916 21.2919C26.5916 20.4062 27.2969 19.6953 28.1756 19.6953C29.0543 19.6953 29.7595 20.4062 29.7595 21.2919C29.7595 22.1777 29.0427 22.8886 28.1756 22.8886Z" fill="#15A280"/>
<path d="M10.2089 22.8886C9.3302 22.8886 8.62494 22.1777 8.62494 21.2919C8.62494 20.4062 9.3302 19.6953 10.2089 19.6953C11.0876 19.6953 11.7928 20.4062 11.7928 21.2919C11.7928 22.1777 11.0876 22.8886 10.2089 22.8886Z" fill="#15A280"/>
<path d="M64.0859 42.5849C63.2072 42.5849 62.5019 41.874 62.5019 40.9882C62.5019 40.1025 63.2072 39.3916 64.0859 39.3916C64.9645 39.3916 65.6698 40.1025 65.6698 40.9882C65.6698 41.874 64.9645 42.5849 64.0859 42.5849Z" fill="#15A280"/>
<path d="M46.1307 42.5849C45.252 42.5849 44.5468 41.874 44.5468 40.9882C44.5468 40.1025 45.252 39.3916 46.1307 39.3916C47.0094 39.3916 47.7147 40.1025 47.7147 40.9882C47.7147 41.874 47.0094 42.5849 46.1307 42.5849Z" fill="#15A280"/>
<path d="M28.1756 42.5849C27.2969 42.5849 26.5916 41.874 26.5916 40.9882C26.5916 40.1025 27.2969 39.3916 28.1756 39.3916C29.0543 39.3916 29.7595 40.1025 29.7595 40.9882C29.7595 41.874 29.0427 42.5849 28.1756 42.5849Z" fill="#15A280"/>
<path d="M10.2089 42.5849C9.3302 42.5849 8.62494 41.874 8.62494 40.9882C8.62494 40.1025 9.3302 39.3916 10.2089 39.3916C11.0876 39.3916 11.7928 40.1025 11.7928 40.9882C11.7928 41.874 11.0876 42.5849 10.2089 42.5849Z" fill="#15A280"/>
<path d="M64.0859 62.2919C63.2072 62.2919 62.5019 61.581 62.5019 60.6953C62.5019 59.8095 63.2072 59.0986 64.0859 59.0986C64.9645 59.0986 65.6698 59.8095 65.6698 60.6953C65.6698 61.581 64.9645 62.2919 64.0859 62.2919Z" fill="#15A280"/>
<path d="M46.1307 62.2919C45.252 62.2919 44.5468 61.581 44.5468 60.6953C44.5468 59.8095 45.252 59.0986 46.1307 59.0986C47.0094 59.0986 47.7147 59.8095 47.7147 60.6953C47.7147 61.581 47.0094 62.2919 46.1307 62.2919Z" fill="#15A280"/>
<path d="M28.1756 62.2919C27.2969 62.2919 26.5916 61.581 26.5916 60.6953C26.5916 59.8095 27.2969 59.0986 28.1756 59.0986C29.0543 59.0986 29.7595 59.8095 29.7595 60.6953C29.7595 61.581 29.0427 62.2919 28.1756 62.2919Z" fill="#15A280"/>
<path d="M10.2089 62.2919C9.3302 62.2919 8.62494 61.581 8.62494 60.6953C8.62494 59.8095 9.3302 59.0986 10.2089 59.0986C11.0876 59.0986 11.7928 59.8095 11.7928 60.6953C11.7928 61.581 11.0876 62.2919 10.2089 62.2919Z" fill="#15A280"/>
<path d="M64.0859 12.8896C63.2072 12.8896 62.5019 12.1786 62.5019 11.2929C62.5019 10.4072 63.2072 9.69629 64.0859 9.69629C64.9645 9.69629 65.6698 10.4072 65.6698 11.2929C65.6698 12.1786 64.9645 12.8896 64.0859 12.8896Z" fill="#15A280"/>
<path d="M46.1307 12.8896C45.252 12.8896 44.5468 12.1786 44.5468 11.2929C44.5468 10.4072 45.252 9.69629 46.1307 9.69629C47.0094 9.69629 47.7147 10.4072 47.7147 11.2929C47.7147 12.1786 47.0094 12.8896 46.1307 12.8896Z" fill="#15A280"/>
<path d="M28.1756 12.8896C27.2969 12.8896 26.5916 12.1786 26.5916 11.2929C26.5916 10.4072 27.2969 9.69629 28.1756 9.69629C29.0543 9.69629 29.7595 10.4072 29.7595 11.2929C29.7595 12.1786 29.0427 12.8896 28.1756 12.8896Z" fill="#15A280"/>
<path d="M10.2089 12.8896C9.3302 12.8896 8.62494 12.1786 8.62494 11.2929C8.62494 10.4072 9.3302 9.69629 10.2089 9.69629C11.0876 9.69629 11.7928 10.4072 11.7928 11.2929C11.7928 12.1786 11.0876 12.8896 10.2089 12.8896Z" fill="#15A280"/>
<path d="M64.0859 32.5966C63.2072 32.5966 62.5019 31.8857 62.5019 31C62.5019 30.1142 63.2072 29.4033 64.0859 29.4033C64.9645 29.4033 65.6698 30.1142 65.6698 31C65.6698 31.8857 64.9645 32.5966 64.0859 32.5966Z" fill="#15A280"/>
<path d="M46.1307 32.5966C45.252 32.5966 44.5468 31.8857 44.5468 31C44.5468 30.1142 45.252 29.4033 46.1307 29.4033C47.0094 29.4033 47.7147 30.1142 47.7147 31C47.7147 31.8857 47.0094 32.5966 46.1307 32.5966Z" fill="#15A280"/>
<path d="M28.1756 32.5966C27.2969 32.5966 26.5916 31.8857 26.5916 31C26.5916 30.1142 27.2969 29.4033 28.1756 29.4033C29.0543 29.4033 29.7595 30.1142 29.7595 31C29.7595 31.8857 29.0427 32.5966 28.1756 32.5966Z" fill="#15A280"/>
<path d="M10.2089 32.5966C9.3302 32.5966 8.62494 31.8857 8.62494 31C8.62494 30.1142 9.3302 29.4033 10.2089 29.4033C11.0876 29.4033 11.7928 30.1142 11.7928 31C11.7928 31.8857 11.0876 32.5966 10.2089 32.5966Z" fill="#15A280"/>
<path d="M64.0859 52.2924C63.2072 52.2924 62.5019 51.5815 62.5019 50.6958C62.5019 49.81 63.2072 49.0991 64.0859 49.0991C64.9645 49.0991 65.6698 49.81 65.6698 50.6958C65.6698 51.5815 64.9645 52.2924 64.0859 52.2924Z" fill="#15A280"/>
<path d="M46.1307 52.2924C45.252 52.2924 44.5468 51.5815 44.5468 50.6958C44.5468 49.81 45.252 49.0991 46.1307 49.0991C47.0094 49.0991 47.7147 49.81 47.7147 50.6958C47.7147 51.5815 47.0094 52.2924 46.1307 52.2924Z" fill="#15A280"/>
<path d="M28.1756 52.2924C27.2969 52.2924 26.5916 51.5815 26.5916 50.6958C26.5916 49.81 27.2969 49.0991 28.1756 49.0991C29.0543 49.0991 29.7595 49.81 29.7595 50.6958C29.7595 51.5815 29.0427 52.2924 28.1756 52.2924Z" fill="#15A280"/>
<path d="M10.2089 52.2924C9.3302 52.2924 8.62494 51.5815 8.62494 50.6958C8.62494 49.81 9.3302 49.0991 10.2089 49.0991C11.0876 49.0991 11.7928 49.81 11.7928 50.6958C11.7928 51.5815 11.0876 52.2924 10.2089 52.2924Z" fill="#15A280"/>
<path d="M64.0859 71.9999C63.2072 71.9999 62.5019 71.289 62.5019 70.4033C62.5019 69.5175 63.2072 68.8066 64.0859 68.8066C64.9645 68.8066 65.6698 69.5175 65.6698 70.4033C65.6698 71.289 64.9645 71.9999 64.0859 71.9999Z" fill="#15A280"/>
<path d="M46.1307 71.9999C45.252 71.9999 44.5468 71.289 44.5468 70.4033C44.5468 69.5175 45.252 68.8066 46.1307 68.8066C47.0094 68.8066 47.7147 69.5175 47.7147 70.4033C47.7147 71.289 47.0094 71.9999 46.1307 71.9999Z" fill="#15A280"/>
<path d="M28.1756 71.9999C27.2969 71.9999 26.5916 71.289 26.5916 70.4033C26.5916 69.5175 27.2969 68.8066 28.1756 68.8066C29.0543 68.8066 29.7595 69.5175 29.7595 70.4033C29.7595 71.289 29.0427 71.9999 28.1756 71.9999Z" fill="#15A280"/>
<path d="M10.2089 71.9999C9.3302 71.9999 8.62494 71.289 8.62494 70.4033C8.62494 69.5175 9.3302 68.8066 10.2089 68.8066C11.0876 68.8066 11.7928 69.5175 11.7928 70.4033C11.7928 71.289 11.0876 71.9999 10.2089 71.9999Z" fill="#15A280"/>
<path d="M55.4609 3.18161C54.5822 3.18161 53.877 2.4707 53.877 1.58498C53.877 0.699255 54.5822 0 55.4609 0C56.3396 0 57.0449 0.71091 57.0449 1.59663C57.0449 2.48236 56.328 3.18161 55.4609 3.18161Z" fill="#15A280"/>
<path d="M37.4942 3.18161C36.6155 3.18161 35.9103 2.4707 35.9103 1.58498C35.9103 0.699255 36.6271 0 37.4942 0C38.3729 0 39.0782 0.71091 39.0782 1.59663C39.0782 2.48236 38.3729 3.18161 37.4942 3.18161Z" fill="#15A280"/>
<path d="M19.5391 3.18161C18.6604 3.18161 17.9551 2.4707 17.9551 1.58498C17.9551 0.699255 18.672 0 19.5391 0C20.4062 0 21.123 0.71091 21.123 1.59663C21.123 2.48236 20.4178 3.18161 19.5391 3.18161Z" fill="#15A280"/>
<path d="M1.58394 3.18161C0.705257 3.18161 0 2.4707 0 1.59663C0 0.722564 0.705257 0 1.58394 0C2.46262 0 3.16787 0.71091 3.16787 1.59663C3.16787 2.48236 2.46262 3.18161 1.58394 3.18161Z" fill="#15A280"/>
<path d="M55.4609 22.8886C54.5822 22.8886 53.877 22.1777 53.877 21.2919C53.877 20.4062 54.5822 19.6953 55.4609 19.6953C56.3396 19.6953 57.0449 20.4062 57.0449 21.2919C57.0449 22.1777 56.328 22.8886 55.4609 22.8886Z" fill="#15A280"/>
<path d="M37.4942 22.8886C36.6155 22.8886 35.9103 22.1777 35.9103 21.2919C35.9103 20.4062 36.6155 19.6953 37.4942 19.6953C38.3729 19.6953 39.0782 20.4062 39.0782 21.2919C39.0782 22.1777 38.3729 22.8886 37.4942 22.8886Z" fill="#15A280"/>
<path d="M19.5391 22.8886C18.6604 22.8886 17.9551 22.1777 17.9551 21.2919C17.9551 20.4062 18.6604 19.6953 19.5391 19.6953C20.4178 19.6953 21.123 20.4062 21.123 21.2919C21.123 22.1777 20.4178 22.8886 19.5391 22.8886Z" fill="#15A280"/>
<path d="M1.58394 22.8886C0.705257 22.8886 0 22.166 0 21.2919C0 20.4179 0.705257 19.6953 1.58394 19.6953C2.46262 19.6953 3.16787 20.4062 3.16787 21.2919C3.16787 22.1777 2.46262 22.8886 1.58394 22.8886Z" fill="#15A280"/>
<path d="M55.4609 42.5849C54.5822 42.5849 53.877 41.874 53.877 40.9882C53.877 40.1025 54.5822 39.3916 55.4609 39.3916C56.3396 39.3916 57.0449 40.1025 57.0449 40.9882C57.0449 41.874 56.328 42.5849 55.4609 42.5849Z" fill="#15A280"/>
<path d="M37.4942 42.5849C36.6155 42.5849 35.9103 41.874 35.9103 40.9882C35.9103 40.1025 36.6155 39.3916 37.4942 39.3916C38.3729 39.3916 39.0782 40.1025 39.0782 40.9882C39.0782 41.874 38.3729 42.5849 37.4942 42.5849Z" fill="#15A280"/>
<path d="M19.5391 42.5849C18.6604 42.5849 17.9551 41.874 17.9551 40.9882C17.9551 40.1025 18.6604 39.3916 19.5391 39.3916C20.4178 39.3916 21.123 40.1025 21.123 40.9882C21.123 41.874 20.4178 42.5849 19.5391 42.5849Z" fill="#15A280"/>
<path d="M1.58394 42.5849C0.705257 42.5849 0 41.874 0 41C0 40.1259 0.705257 39.4033 1.58394 39.4033C2.46262 39.4033 3.16787 40.1142 3.16787 41C3.16787 41.8857 2.46262 42.5849 1.58394 42.5849Z" fill="#15A280"/>
<path d="M55.4609 62.2919C54.5822 62.2919 53.877 61.581 53.877 60.6953C53.877 59.8095 54.5822 59.0986 55.4609 59.0986C56.3396 59.0986 57.0449 59.8095 57.0449 60.6953C57.0449 61.581 56.328 62.2919 55.4609 62.2919Z" fill="#15A280"/>
<path d="M37.4942 62.2919C36.6155 62.2919 35.9103 61.581 35.9103 60.6953C35.9103 59.8095 36.6155 59.0986 37.4942 59.0986C38.3729 59.0986 39.0782 59.8095 39.0782 60.6953C39.0782 61.581 38.3729 62.2919 37.4942 62.2919Z" fill="#15A280"/>
<path d="M19.5391 62.2919C20.4139 62.2919 21.123 61.5771 21.123 60.6953C21.123 59.8135 20.4139 59.0986 19.5391 59.0986C18.6643 59.0986 17.9551 59.8135 17.9551 60.6953C17.9551 61.5771 18.6643 62.2919 19.5391 62.2919Z" fill="#15A280"/>
<path d="M1.58394 62.2919C2.45872 62.2919 3.16787 61.5771 3.16787 60.6953C3.16787 59.8135 2.45872 59.0986 1.58394 59.0986C0.709153 59.0986 0 59.8135 0 60.6953C0 61.5771 0.709153 62.2919 1.58394 62.2919Z" fill="#15A280"/>
<path d="M55.4609 12.8896C54.5822 12.8896 53.877 12.1786 53.877 11.2929C53.877 10.4072 54.5822 9.69629 55.4609 9.69629C56.3396 9.69629 57.0449 10.4072 57.0449 11.2929C57.0449 12.1786 56.328 12.8896 55.4609 12.8896Z" fill="#15A280"/>
<path d="M37.4942 12.8896C36.6155 12.8896 35.9103 12.1786 35.9103 11.2929C35.9103 10.4072 36.6155 9.69629 37.4942 9.69629C38.3729 9.69629 39.0782 10.4072 39.0782 11.2929C39.0782 12.1786 38.3729 12.8896 37.4942 12.8896Z" fill="#15A280"/>
<path d="M19.5391 12.8896C18.6604 12.8896 17.9551 12.1786 17.9551 11.2929C17.9551 10.4072 18.6604 9.69629 19.5391 9.69629C20.4178 9.69629 21.123 10.4072 21.123 11.2929C21.123 12.1786 20.4178 12.8896 19.5391 12.8896Z" fill="#15A280"/>
<path d="M1.58394 12.8896C0.705257 12.8896 0 12.1787 0 11.3046C0 10.4306 0.705257 9.70801 1.58394 9.70801C2.46262 9.70801 3.16787 10.4189 3.16787 11.3046C3.16787 12.1904 2.46262 12.8896 1.58394 12.8896Z" fill="#15A280"/>
<path d="M55.4609 32.5966C54.5822 32.5966 53.877 31.8857 53.877 31C53.877 30.1142 54.5822 29.4033 55.4609 29.4033C56.3396 29.4033 57.0449 30.1142 57.0449 31C57.0449 31.8857 56.328 32.5966 55.4609 32.5966Z" fill="#15A280"/>
<path d="M37.4942 32.5966C36.6155 32.5966 35.9103 31.8857 35.9103 31C35.9103 30.1142 36.6155 29.4033 37.4942 29.4033C38.3729 29.4033 39.0782 30.1142 39.0782 31C39.0782 31.8857 38.3729 32.5966 37.4942 32.5966Z" fill="#15A280"/>
<path d="M19.5391 32.5966C20.4139 32.5966 21.123 31.8818 21.123 31C21.123 30.1182 20.4139 29.4033 19.5391 29.4033C18.6643 29.4033 17.9551 30.1182 17.9551 31C17.9551 31.8818 18.6643 32.5966 19.5391 32.5966Z" fill="#15A280"/>
<path d="M1.58394 32.5966C2.45872 32.5966 3.16787 31.8818 3.16787 31C3.16787 30.1182 2.45872 29.4033 1.58394 29.4033C0.709153 29.4033 0 30.1182 0 31C0 31.8818 0.709153 32.5966 1.58394 32.5966Z" fill="#15A280"/>
<path d="M55.4609 52.2924C54.5822 52.2924 53.877 51.5815 53.877 50.6958C53.877 49.81 54.5822 49.0991 55.4609 49.0991C56.3396 49.0991 57.0449 49.81 57.0449 50.6958C57.0449 51.5815 56.328 52.2924 55.4609 52.2924Z" fill="#15A280"/>
<path d="M37.4942 52.2924C36.6155 52.2924 35.9103 51.5815 35.9103 50.6958C35.9103 49.81 36.6155 49.0991 37.4942 49.0991C38.3729 49.0991 39.0782 49.81 39.0782 50.6958C39.0782 51.5815 38.3729 52.2924 37.4942 52.2924Z" fill="#15A280"/>
<path d="M19.5391 52.2924C18.6604 52.2924 17.9551 51.5815 17.9551 50.6958C17.9551 49.81 18.6604 49.0991 19.5391 49.0991C20.4178 49.0991 21.123 49.81 21.123 50.6958C21.123 51.5815 20.4178 52.2924 19.5391 52.2924Z" fill="#15A280"/>
<path d="M1.58394 52.2925C0.705257 52.2925 0 51.5815 0 50.7075C0 49.8334 0.705257 49.1108 1.58394 49.1108C2.46262 49.1108 3.16787 49.8217 3.16787 50.7075C3.16787 51.5932 2.46262 52.2925 1.58394 52.2925Z" fill="#15A280"/>
<path d="M55.4609 71.9999C54.5822 71.9999 53.877 71.289 53.877 70.4033C53.877 69.5175 54.5822 68.8066 55.4609 68.8066C56.3396 68.8066 57.0449 69.5175 57.0449 70.4033C57.0449 71.289 56.328 71.9999 55.4609 71.9999Z" fill="#15A280"/>
<path d="M37.4942 71.9999C36.6155 71.9999 35.9103 71.289 35.9103 70.4033C35.9103 69.5175 36.6155 68.8066 37.4942 68.8066C38.3729 68.8066 39.0782 69.5175 39.0782 70.4033C39.0782 71.289 38.3729 71.9999 37.4942 71.9999Z" fill="#15A280"/>
<path d="M19.5391 71.9999C18.6604 71.9999 17.9551 71.289 17.9551 70.4033C17.9551 69.5175 18.6604 68.8066 19.5391 68.8066C20.4178 68.8066 21.123 69.5175 21.123 70.4033C21.123 71.289 20.4178 71.9999 19.5391 71.9999Z" fill="#15A280"/>
<path d="M1.58394 71.9999C0.705257 71.9999 0 71.289 0 70.4033C0 69.5175 0.705257 68.8066 1.58394 68.8066C2.46262 68.8066 3.16787 69.5175 3.16787 70.4033C3.16787 71.289 2.46262 71.9999 1.58394 71.9999Z" fill="#15A280"/>
</g>
</g>
<defs>
<clipPath id="clip0_18_37">
<rect width="75" height="72" fill="white"/>
</clipPath>
</defs>
</svg>
