<svg width="69" height="26" viewBox="0 0 69 26" fill="none" xmlns="http://www.w3.org/2000/svg">
<g clip-path="url(#clip0_18_23)">
<path d="M38.681 26.0002L30.8747 18.0509L23.4788 25.5836L16.2197 18.1984L9.10595 25.4447L0 16.1764L2.87286 13.2692L9.10595 19.613L16.2197 12.3666L23.4788 19.7518L30.8747 12.2191L38.681 20.1684L46.7524 11.9414L54.5587 19.8907L60.9286 13.408L63.8015 16.3152L54.5587 25.7224L46.7524 17.7732L38.681 26.0002Z" fill="#F2BC00"/>
<path d="M69 7.87984L61.2535 0L53.8662 7.52403L46.6071 0.138852L39.4848 7.38518L33.2602 1.04139L30.3874 3.9486L39.4848 13.217L46.6071 5.97063L53.8662 13.3558L61.2535 5.83178L69 13.7116V7.87984Z" fill="#F2BC00"/>
</g>
<defs>
<clipPath id="clip0_18_23">
<rect width="69" height="26" fill="white"/>
</clipPath>
</defs>
</svg>
