<svg width="81" height="80" viewBox="0 0 81 80" fill="none" xmlns="http://www.w3.org/2000/svg">
<g opacity="0.4" clip-path="url(#clip0_209_480)">
<path d="M38.7274 57.4441C38.5615 57.5579 38.3868 57.6804 38.2122 57.7942C37.8018 58.048 37.5049 58.6169 36.9897 58.5557C35.9331 58.4331 34.8066 58.4506 33.8898 57.7504C33.4444 57.4178 33.0515 57.0415 33.1213 56.4113C33.6627 56.0174 33.8024 55.5973 33.7064 54.8445C33.3658 52.0524 34.3875 49.6191 36.1514 47.5097C36.7103 46.8358 37.3652 46.2231 38.0114 45.6104C39.7491 43.9736 42.3949 43.9824 43.6262 46.5819C44.2636 47.9299 43.7135 49.1727 43.3031 50.3544C42.849 51.6585 42.0194 52.8226 41.4169 54.0743C41.1462 54.6257 40.631 54.9408 40.1857 55.3259C39.522 55.8948 38.7798 56.4288 38.7274 57.4441Z" fill="#F9406C"/>
<path d="M40.4826 0.857598C41.382 -0.0351812 42.4561 -0.166472 43.6087 0.157379C43.9318 0.244906 44.2636 0.279917 44.5867 0.367445C45.5909 0.638779 46.4205 1.19895 46.9008 2.16176C46.9881 2.34556 47.0317 2.56438 47.0405 2.76569C47.0579 3.18583 47.0317 3.60596 47.0405 4.03484C47.0405 4.34994 46.9881 4.63878 46.6999 4.80508C46.3681 5.00639 46.3244 5.33025 46.2808 5.6716C46.2022 5.75913 46.1061 5.8379 46.0537 5.94294L46.0625 5.96044C44.8225 6.3018 43.8881 7.02828 43.338 8.15738C43.207 8.32368 43.5563 8.24491 43.3904 8.2099C43.338 8.20114 43.3467 8.15738 43.4079 8.08736C44.2811 7.10705 44.6653 7.02828 45.2766 7.70224C45.1107 7.83353 45.1718 8.0786 45.0233 8.2099C44.9447 8.40246 44.9273 8.67379 44.7876 8.77007C43.8707 9.43528 43.338 10.4769 42.4386 11.1596C42.2378 11.3084 42.0631 11.5009 41.7924 11.5184C41.4868 11.5447 41.2161 11.641 41.0153 11.8773C40.6747 12.2712 40.2294 12.3062 39.7578 12.2712C38.9806 12.2186 38.2821 12.0086 37.6883 11.4834C37.4438 11.1421 37.1731 10.827 36.9111 10.4944V10.5031C36.7452 10.2493 36.6055 9.9692 36.4046 9.73287C36.1776 9.339 36.3522 9.05891 36.7103 8.93637C37.1469 8.79633 37.6097 8.93637 37.8018 9.34775C38.5528 10.9583 39.8189 10.6957 40.8057 10.4418C40.3079 10.6081 39.5308 10.3543 38.9283 9.86416C37.959 9.07642 36.8325 8.35869 36.6579 6.932C36.7015 6.85322 36.7801 6.81821 36.8762 6.81821C36.8238 6.73068 36.7976 6.6344 36.7976 6.53812C36.8063 6.3193 36.7627 6.10049 36.9111 5.91668C36.8674 5.51405 36.981 5.1727 37.2866 4.90136C37.5748 4.63878 37.8193 4.31493 37.8542 3.94731C37.9328 3.05453 38.579 2.58189 39.1204 2.02171C39.3212 1.81165 39.522 1.60158 39.7142 1.39151C39.9499 1.16394 40.2381 1.04141 40.4826 0.857598Z" fill="#F9406C"/>
<path d="M9.34346 58.1706C9.46571 57.9343 9.63162 57.7505 9.89359 57.6892C10.0944 57.6455 10.3389 57.663 10.5048 57.5579C11.02 57.2341 11.544 57.3216 12.0854 57.4441C12.4085 57.5142 12.7141 57.663 13.0634 57.663C13.7096 57.6717 14.0501 58.0568 14.1636 58.6695C13.6746 58.9584 13.238 58.2494 12.7578 58.547C12.6792 58.8621 12.9062 58.9584 13.0634 59.0809C15.1678 60.7527 15.6743 63.6323 14.1724 65.9343C13.7183 66.6345 13.5437 67.6673 12.4609 67.8249C11.8933 67.8336 11.2296 68.3063 10.8716 67.3785C10.5572 66.5557 10.4263 65.838 11.3519 65.3216C11.4654 65.2603 11.5876 65.2078 11.6662 65.1115C11.7099 65.059 11.6138 64.9978 11.5178 64.9715C10.6446 64.7002 11.5003 64.14 11.3082 63.7023C10.8105 63.7549 10.6882 64.2013 10.4612 64.5164C10.304 64.7439 10.2167 65.1028 9.83246 64.9978C9.48318 64.9015 9.14262 64.5601 9.2736 64.2713C9.78007 63.0809 9.21248 62.3719 8.33052 61.7155C8.13841 61.5754 8.11222 61.2691 8.12095 61.0065C8.12968 60.884 8.16461 60.7702 8.20827 60.6564C8.28686 60.4989 8.39165 60.3501 8.50517 60.21C9.0291 59.5185 9.50937 58.7571 10.4961 58.5295C10.0857 58.1444 9.62289 58.5032 9.34346 58.1706Z" fill="#F9406C"/>
<path d="M61.9813 57.1552C61.894 57.3916 61.7193 57.5666 61.5098 57.7066C60.9946 58.3018 60.5667 58.9758 59.938 59.466C59.8419 59.536 59.7458 59.5972 59.6411 59.641C59.0909 59.8161 58.5757 60.0786 58.0518 60.3237C57.9383 60.3675 57.8248 60.3937 57.7025 60.4025C56.6284 60.2975 55.5457 60.9802 54.4803 60.3237C53.3539 59.4484 52.6029 58.3368 52.3584 56.9189C52.2711 56.3937 52.175 55.8336 52.6204 55.3872C53.188 55.3522 53.5285 55.6673 53.7992 56.1137C53.8603 56.0786 53.8603 56.0174 53.8254 55.9211C53.677 55.5097 53.1967 55.0108 53.6944 54.6957C54.1223 54.4244 54.4803 54.9933 54.8121 55.2909C54.9693 55.4309 55.0916 55.606 55.24 55.7373C55.4059 55.9036 55.3797 55.7548 55.3797 55.6323C55.764 55.2209 56.2355 54.967 56.6896 55.3872C57.2834 55.9298 56.8555 56.5163 56.3839 57.1727C57.2834 56.9189 57.7636 57.3478 58.4098 57.8817C58.3836 57.8554 58.4709 57.5228 58.3662 57.6541C58.34 57.6891 58.3225 57.6804 58.2963 57.6541C57.816 57.2253 57.5803 56.6038 57.2048 56.0874C56.6546 55.3259 57.1175 54.757 58.2264 54.6432C58.4622 54.687 58.6892 54.7482 58.7329 55.0458C58.7242 55.2471 58.4185 55.4047 58.5321 55.5447C58.6194 55.6585 58.8988 55.5535 59.0822 55.5185C59.4577 55.0108 59.9554 54.5819 60.0777 53.908C60.1213 53.7942 60.1825 53.6979 60.2698 53.6191C60.3658 53.5491 60.4794 53.5053 60.5929 53.4966C61.2478 53.7154 61.6931 54.1268 61.501 54.8533C61.3875 55.2996 61.7979 55.2646 61.894 55.4922C62.0424 55.8423 62.0424 56.1924 61.8765 56.5338C61.501 56.9539 61.2216 56.3675 60.8723 56.4288C61.0469 56.7526 61.3438 56.7614 61.632 56.7964C61.8328 56.8401 61.9376 56.9627 61.9813 57.1552Z" fill="#F9406C"/>
<path d="M51.7733 20.2976C51.7733 20.3151 51.8257 20.5602 51.8519 20.814C51.8956 21.1116 51.9043 21.4354 51.686 21.6543C51.2843 22.0656 51.1533 22.5908 50.9787 23.1072C50.8302 23.5361 50.6032 23.965 50.3412 24.3326C49.8086 25.0766 49.4331 25.9519 48.6035 26.4595C48.132 27.4223 47.2326 28.0175 46.5777 28.8315C45.9839 29.5667 45.329 30.2319 44.2549 30.1006C43.3118 30.5645 42.5259 30.1094 41.7749 29.628C40.6921 28.9365 40.3429 27.9912 40.6048 26.6871C40.6485 26.477 40.7183 26.267 40.6921 26.0656C40.6048 25.2779 40.989 24.6827 41.4344 24.1138C41.6964 23.7812 42.002 23.5011 42.0369 23.0372C42.0456 22.8796 42.1504 22.7221 42.2552 22.5908C43.1721 21.4442 44.1064 20.3238 45.1892 19.326C45.5036 19.0372 45.8267 18.7746 46.0188 18.3807C46.1847 18.0481 46.4554 17.8906 46.8047 17.8031C47.8264 17.5492 48.8568 17.3742 49.9134 17.3479C50.2801 17.3392 50.5945 17.4442 50.8128 17.7155C51.3629 18.3982 51.9043 19.0897 51.7733 20.2976Z" fill="#F9406C"/>
<path d="M38.7274 57.4442C38.3082 57.0941 38.3606 56.6827 38.675 56.3413C39.1291 55.8424 39.5919 55.3348 40.1333 54.9496C40.7096 54.547 41.0764 54.0744 41.3645 53.4179C41.8361 52.3501 42.4298 51.3348 43.0062 50.3194C43.111 50.1356 43.2769 49.9781 43.2507 49.7593C43.1896 49.1116 43.4253 48.4989 43.565 47.9037C43.7746 47.0197 43.3729 46.477 42.8665 45.9256C42.6394 45.6805 42.3513 45.4879 42.133 45.2341C41.6876 44.7177 41.1549 44.6214 40.535 44.8315C40.3778 44.884 40.2031 44.9803 40.0547 44.9628C39.2426 44.8665 38.7012 45.2866 38.2209 45.8555C38.055 46.0481 37.8629 46.2144 37.6883 46.3895C35.6362 48.4464 35.6362 48.4464 34.4486 50.9846C34.2652 51.3698 34.0993 51.7549 34.1604 52.1925C34.2478 52.8665 33.7064 53.4879 34.0207 54.1706C33.8286 54.9321 34.1168 55.5623 34.5185 56.175C34.5883 56.2801 34.632 56.4376 34.4923 56.5076C34.4049 56.5514 34.2216 56.5426 34.1604 56.4814C33.8286 56.1575 33.4968 56.175 33.1388 56.4113C32.6847 54.4332 32.4053 54.0306 32.9991 52.5164C33.3134 51.7286 33.619 50.9671 34.0993 50.2757C34.2216 50.1094 34.3438 49.9256 34.3962 49.7243C34.6669 48.7177 35.3568 47.9387 35.9331 47.1247C36.2562 46.6783 36.6928 46.2932 37.0333 45.8205C37.3739 45.3479 37.8542 44.9715 38.2733 44.5601C38.9457 43.9124 39.7403 43.6411 40.6834 43.6936C42.2115 43.7811 42.2115 43.7549 43.3031 44.8577C43.7222 45.2779 44.1938 45.6805 43.9143 46.3807C44.316 46.9321 44.3597 47.5973 44.2287 48.2013C44.0366 49.0853 44.1239 50.0569 43.5301 50.8446C43.3904 51.0372 43.3642 51.3173 43.2769 51.5536C43.1983 51.7899 43.1721 52.0962 43.0149 52.2538C42.4386 52.8052 42.2552 53.5579 41.9321 54.2319C41.7487 54.6083 41.6003 55.0197 41.1637 55.1947C41.0851 55.221 40.989 55.2822 40.9628 55.3435C40.5524 56.3938 39.522 56.7877 38.7274 57.4442Z" fill="#F9406C"/>
<path d="M58.1915 54.8708C57.9383 55.0721 57.6239 54.8796 57.362 55.0021C57.3794 55.4047 57.2135 55.8249 57.4667 56.21C57.6239 56.4551 57.7898 56.5951 58.0693 56.385C58.1741 56.315 58.305 56.2275 58.3749 56.3938C58.4186 56.4901 58.3836 56.6389 58.3312 56.7439C58.2614 56.884 58.0431 56.9627 58.1129 57.1553C58.1566 57.2866 58.1479 57.5492 58.4098 57.4266C58.5321 57.3741 58.6456 57.2778 58.6718 57.4879C58.6893 57.6104 58.6805 57.7417 58.6456 57.8643C58.5932 58.0131 58.4622 57.9956 58.34 57.9605C57.947 57.838 57.6327 57.5579 57.231 57.4091C56.9603 57.3128 56.838 57.094 56.7507 57.5229C56.7507 57.5404 56.5673 57.5492 56.5411 57.5141C56.384 57.3216 56.2355 57.1115 56.1045 56.9015C56.0347 56.7877 56.0696 56.6476 56.1744 56.5689C56.2704 56.4901 56.3927 56.4551 56.4975 56.3938C56.7856 56.2187 56.8031 56.0699 56.6459 55.6848C56.5499 55.4398 56.3578 55.361 56.1482 55.431C55.8688 55.5098 55.5893 55.6148 55.4147 55.8861C54.8646 56.0787 54.7947 56.0875 54.6724 55.5798C54.5589 55.0721 53.8603 55.3172 53.8429 54.7483C53.6595 55.1947 53.9913 55.4573 54.0787 55.7811C54.1747 56.1487 54.0525 56.4288 53.7992 56.6739C53.5111 56.5426 53.7206 56.2012 53.5198 56.0524C53.3539 55.9299 53.153 55.8599 53.0046 55.7286C52.926 55.6586 52.926 55.501 52.8823 55.3872C52.8736 55.3347 52.8736 55.2822 52.8649 55.2297C52.8561 55.1247 52.8474 55.0196 52.8561 54.9058C52.8561 54.792 52.8649 54.687 52.8649 54.5732C52.9871 54.0831 52.5854 53.8818 52.3409 53.5929C52.7426 52.6651 53.3277 51.8686 53.9913 51.1159C54.1834 50.8971 54.4105 50.6958 54.6724 50.5645C55.6068 50.1093 56.5586 49.698 57.4929 49.2428C58.2265 48.8927 58.8552 49.1378 59.4839 49.5229C59.449 49.5667 59.4053 49.6104 59.3704 49.6629C58.6281 49.8293 57.9994 50.0831 57.589 50.8533C57.1786 51.6411 56.8118 52.2538 57.6414 53.0328C58.0867 53.4791 58.4448 54.1268 58.1915 54.8708Z" fill="#F9406C"/>
<path d="M51.8432 34.9758C51.8694 34.8532 51.8694 34.5819 51.9829 34.3718C52.6291 33.1114 53.1792 31.7985 54.3493 30.8532C55.0567 30.2843 55.5981 29.4965 56.1569 28.7613C56.4101 28.4287 56.6547 28.1836 57.0738 28.2186C57.5541 28.2624 57.9819 28.1311 58.4011 27.9035C58.7591 27.7022 59.1259 27.676 59.4664 27.9386C59.7022 28.1224 59.9729 28.2186 60.2611 28.2974C60.8286 28.4462 61.1867 28.8313 61.4312 29.3652C61.7892 30.1355 61.8678 30.9933 62.1559 31.781C62.2083 31.921 62.1559 32.1136 62.1036 32.2712C61.894 32.9101 61.6407 33.5228 61.3526 34.1355C60.8636 35.1946 60.2523 36.0698 59.2481 36.7C58.7242 37.0239 58.3487 37.5753 57.9121 38.0392C57.7112 38.258 57.4929 38.4418 57.2484 38.6169C56.5761 39.107 55.8164 39.1158 55.0916 38.9057C54.1398 38.6344 53.1443 38.3893 52.533 37.479C52.2623 37.0677 51.8519 35.781 51.8432 34.9758Z" fill="#F9406C"/>
<path d="M1.4933 43.9824C1.02176 43.1947 0.40177 42.4944 0.139804 41.5841C-0.00864352 41.0765 -0.0610368 40.6038 0.131072 40.1137C0.393038 39.4485 0.628808 38.7745 0.890774 38.1093C0.9519 37.9605 1.07415 37.8292 1.17894 37.7067C1.23133 37.6454 1.33612 37.6279 1.38851 37.5666C2.41891 36.1137 4.13042 35.4135 5.27434 34.0831C5.54504 33.768 5.9118 33.5491 6.25235 33.2953C6.38334 33.199 6.54925 33.0852 6.6977 33.0852C7.38754 33.1027 8.01626 32.8489 8.65371 32.6476C8.99427 32.5426 9.30863 32.5426 9.61425 32.7526C9.75397 32.8489 9.89369 32.9715 10.0509 33.0065C10.9154 33.1815 11.3694 33.8205 11.841 34.4857C12.557 35.4922 12.5657 36.5076 12.0418 37.5754C11.9894 37.6892 11.9108 37.7942 11.841 37.8992C11.71 38.0393 11.7624 38.2669 11.6139 38.3894V38.3982C11.5353 38.4944 11.4306 38.5557 11.3782 38.6695V38.6782C11.09 38.7833 11.0201 38.582 10.959 38.3719C10.959 38.2669 10.9765 38.1618 11.0114 38.0568C11.0638 37.908 11.1337 37.7592 11.1948 37.6104C11.2384 37.5054 11.2821 37.4091 11.3258 37.3041C11.6925 36.5163 11.6052 35.7811 11.0638 35.0984C10.9939 35.0108 10.9241 34.9146 10.8542 34.827C10.0683 33.7329 8.86328 34.2494 7.85035 34.048C7.74556 34.0655 7.63204 34.0831 7.52726 34.0918C7.20416 34.1268 6.88107 34.1531 6.61911 34.3719C5.22195 35.8161 3.37946 36.7964 2.30539 38.5732C2.04343 39.0108 1.79892 39.4397 1.70287 39.9474C1.55442 40.3763 1.62428 40.8489 1.50203 41.2778C1.24006 42.2406 1.61555 42.757 2.5237 42.9933C3.92958 43.4835 5.02111 42.7045 6.16503 42.1181C6.34841 42.0305 6.54925 41.978 6.74136 41.908C6.82868 41.8642 6.90727 41.8205 6.99459 41.768C7.07318 41.7067 7.14304 41.6454 7.22163 41.5841C7.25656 41.5491 7.30022 41.5229 7.33515 41.4879C7.41374 41.4178 7.50106 41.3653 7.59711 41.3303C7.7019 41.3041 7.80669 41.3041 7.91147 41.3216C8.23456 41.4704 8.25203 41.7067 8.09485 41.9868C8.05119 42.3894 7.74556 42.5732 7.4312 42.6432C6.85488 42.757 6.49685 43.1421 6.11264 43.5185C5.75462 43.8686 5.35293 44.1662 5.02984 44.5426C4.75914 44.8577 4.44478 44.9977 4.05184 44.9977C3.5541 44.9977 3.05636 44.9715 2.55863 44.954C2.15695 44.6739 1.85132 44.2975 1.4933 43.9824Z" fill="#F9406C"/>
<path d="M33.1475 23.1071C32.8332 23.8511 32.9816 24.9364 32.2568 25.7592C31.9861 26.0743 31.8202 26.4769 31.5845 26.827C31.3662 27.1333 31.1391 27.4484 30.8684 27.711C29.6022 28.9539 28.0828 29.8379 26.5372 30.6957C25.2274 31.4309 23.8565 30.7745 23.1317 29.5578C22.5466 28.5688 22.8784 27.6498 23.1579 26.7745C23.4198 25.9605 23.7953 25.164 24.6074 24.6126C25.175 24.2274 25.568 23.571 25.9784 22.9933C26.2054 22.6782 26.4063 22.3806 26.7555 22.188C26.8953 22.1093 27.0262 21.978 27.0874 21.8379C27.4541 21.0064 28.2488 20.7789 28.9735 20.4725C29.4713 20.2624 30.0301 20.1924 30.5453 20.0174C30.9208 19.8861 31.209 19.9999 31.4622 20.2537C31.8726 20.6738 32.2568 21.1202 32.676 21.5403C33.0777 21.9167 33.1737 22.3981 33.1475 23.1071Z" fill="#F9406C"/>
<path d="M31.6456 73.4353C31.6369 73.5053 31.6194 73.5754 31.5845 73.6454C31.5146 73.7329 31.4447 73.8204 31.3662 73.8992C31.2788 73.978 31.1828 74.0568 31.1217 74.1705C31.0081 74.2318 30.9295 74.3281 30.8684 74.4506C30.851 74.5207 30.8335 74.5994 30.7986 74.6607C30.7462 74.757 30.6763 74.8358 30.589 74.9058C30.3096 75.6585 29.7944 76.1837 29.0347 76.4725C28.764 76.5776 28.5107 76.7351 28.2488 76.8664C27.3057 77.3478 26.4587 77.094 25.6815 76.4725C24.2756 75.3522 23.7342 72.4988 24.8781 71.0808C24.9305 71.0196 25.0004 70.9495 25.0091 70.8708C25.1663 70.048 25.5592 69.3303 25.926 68.5776C26.1268 68.1662 26.2229 67.7373 26.5722 67.4047C26.7468 67.2384 26.9127 67.0108 26.9826 66.7745C27.3581 65.5929 28.3448 65.2778 29.3752 65.0152C29.5761 64.9627 29.8118 64.9977 29.9865 64.8927C30.4929 64.5951 30.9295 64.6038 31.3312 65.0765C31.3836 65.1377 31.4709 65.1815 31.5495 65.1902C32.938 65.304 33.2261 66.4594 33.5929 67.466C33.8199 68.0786 33.9946 68.7701 33.6802 69.4353C33.8374 70.4331 33.2174 71.1946 32.8856 72.0436C32.6935 72.5338 32.283 72.8401 31.8814 73.1465C31.7853 73.2253 31.6805 73.304 31.6456 73.4353Z" fill="#F9406C"/>
<path d="M47.7827 78.9583C47.3286 79.4922 46.6475 79.5185 46.0537 79.7373C45.3551 79.3347 44.6216 79.6498 43.9056 79.6323C42.9625 79.606 41.871 78.6082 41.6352 77.6016C41.5392 77.1902 41.3907 76.8139 41.2335 76.4375C41.0938 75.4572 41.5741 74.5469 41.4955 73.5754C41.8099 73.0502 41.8972 72.4112 42.2639 71.9036C43.2943 71.9211 43.4777 70.722 44.316 70.4594C44.4732 70.4069 44.6391 70.3719 44.7963 70.3106C45.1281 70.188 45.4425 69.7592 45.8092 70.1355C46.176 70.5206 45.9053 70.9233 45.687 71.2821C45.4861 71.6235 45.4075 71.9736 45.5211 72.3675C45.9315 73.7767 44.8312 74.6344 44.2549 75.676C44.0453 76.0611 43.469 75.6323 43.076 75.7548C42.9625 77.8292 42.9625 77.8292 44.2985 77.6104C44.4121 77.5754 44.5256 77.5578 44.6391 77.5403C45.4163 77.5141 45.5822 77.129 45.2765 76.455C45.1718 76.2274 45.0495 75.9473 45.2853 75.7548C45.5734 75.5097 45.8354 75.7635 46.0886 75.8948C46.7436 76.2449 47.0667 76.9277 47.5731 77.4266C47.6255 77.5316 47.6517 77.6366 47.643 77.7504C47.4858 78.1705 47.5557 78.5732 47.7827 78.9583Z" fill="#F9406C"/>
<path d="M12.8451 14.5032C12.9674 14.2931 13.1333 14.1268 13.3516 14.013C14.0414 13.8642 14.5915 13.2866 15.3338 13.3041C15.8053 13.3128 16.3554 13.0765 16.7135 13.6192C16.6698 13.908 16.434 14.0481 16.207 14.0918C15.0194 14.3632 14.2684 15.2472 13.4651 16.0437C13.3603 16.1137 13.2468 16.0962 13.142 16.0349C13.1595 16.0962 13.2293 16.1225 13.2642 16.1662C13.5437 16.5338 13.5699 16.8577 13.1245 17.1203C13.0372 17.1553 12.9761 17.094 12.915 17.0415C12.915 17.129 12.9586 17.1903 13.0459 17.234C13.7271 17.7592 14.5566 17.5229 15.3076 17.6892C15.4124 17.7505 15.4735 17.8467 15.4822 17.9693C14.9583 18.7658 14.1724 18.7483 13.369 18.617C12.8975 18.5382 12.4521 18.4419 12.1203 19.0896C13.0809 19.1509 13.8406 19.5098 14.2946 20.385C14.4955 20.7702 14.9059 20.7351 15.2989 20.5601C15.6045 20.42 15.9276 20.0524 16.2943 20.4813C15.8839 22.0656 14.7051 22.9758 13.2817 23.3785C11.3257 23.9299 9.63165 21.8555 10.0159 19.8424C10.4088 17.733 11.413 16.0262 12.8451 14.5032Z" fill="#F9406C"/>
<path d="M16.6873 13.7854C15.98 13.3477 15.2464 13.4615 14.5304 13.7416C14.2597 13.8466 14.0414 14.0655 13.7794 14.1968C13.6048 14.2843 13.4651 14.153 13.3603 14.0129L13.3865 14.0217C13.5087 13.9867 13.5699 13.8729 13.6572 13.7854C13.7445 13.7066 13.8318 13.6278 13.9191 13.5578L13.9366 13.5403C13.9977 13.4528 14.0676 13.3828 14.1637 13.339C14.2422 13.304 14.3208 13.2865 14.4082 13.2777C14.4955 13.1989 14.6003 13.1902 14.6963 13.2602C14.7662 13.2515 14.8273 13.2515 14.8972 13.2602C15.2115 13.0326 15.6219 13.2777 15.9363 13.0501C16.0149 13.0239 16.0935 13.0151 16.1808 13.0151C16.2768 12.9364 16.3729 12.9364 16.4602 13.0151C16.5388 13.0151 16.6174 13.0239 16.696 13.0414C16.7833 13.1289 16.8794 13.2077 17.0016 13.2515C17.0715 13.2602 17.1413 13.269 17.2025 13.304C17.3422 13.444 17.5692 13.3915 17.7002 13.5403H17.7089C17.7963 13.6191 17.8748 13.7066 17.9709 13.7854C18.1106 13.9604 18.3464 13.9079 18.5036 14.0217C18.879 14.0655 19.1323 14.2668 19.2196 14.6344C19.6213 16.1749 19.5252 17.6541 18.3551 18.8445C17.7002 19.5097 17.054 20.1924 16.6174 20.9801C16.1459 21.8291 15.5521 22.5906 15.0805 23.4309C14.7836 23.9648 14.3645 24.2274 13.8144 24.3587C13.5699 24.4199 13.3079 24.42 13.0809 24.5162C12.0767 24.9189 11.2908 24.42 10.4961 23.9385C10.4612 23.921 10.435 23.8773 10.4001 23.851C9.54431 23.2558 9.14263 22.5469 9.29981 21.4003C9.42206 20.49 9.48319 19.5797 9.78008 18.6869C9.9198 18.2755 10.1294 17.9254 10.3739 17.5928C10.4699 17.5053 10.5572 17.4178 10.6009 17.2952C10.6009 17.2252 10.6184 17.1552 10.6358 17.0852C10.7232 16.9976 10.8105 16.9101 10.8454 16.7788C10.8454 16.7088 10.8629 16.6388 10.8978 16.5775C10.9764 16.49 11.0463 16.4024 11.1248 16.3149C11.2908 16.2011 11.2384 15.9561 11.4043 15.8335L11.413 15.816C11.4829 15.7197 11.5615 15.641 11.6488 15.5709L11.6575 15.5622C11.7361 15.4747 11.8147 15.3871 11.8933 15.3084C11.9893 15.2296 12.0679 15.1333 12.129 15.0283C12.2076 14.9495 12.2862 14.862 12.3561 14.7832C12.4696 14.7307 12.5569 14.6519 12.653 14.5731C12.7228 14.5469 12.7927 14.5294 12.8626 14.5119C13.0285 14.6344 13.0547 14.7832 12.9062 14.9232C12.3823 15.4134 11.9806 15.9998 11.5353 16.5512C10.9502 17.269 10.6795 18.0742 10.6358 18.9757C10.6184 19.4046 10.5572 19.7898 10.2953 20.1486C10.0159 20.525 10.0682 20.9539 10.4088 21.2952C10.7232 21.6103 10.8803 21.9692 10.9327 22.3981C10.9589 22.6169 11.1161 22.7919 11.3257 22.8445C11.806 22.9757 12.295 23.0895 12.784 23.1683C13.1158 23.2208 13.4301 23.1683 13.7445 22.967C14.6789 22.3718 15.4298 21.6016 16.1197 20.7526C16.1895 20.665 16.1808 20.5162 16.1983 20.3937C16.6523 19.4922 17.1064 18.5819 17.7351 17.7854C18.0058 17.4528 18.2329 17.1027 18.4424 16.7263C18.4861 16.63 18.5298 16.5337 18.5647 16.4375C18.6345 16.2186 18.5647 16.0261 18.4599 15.8335C18.4075 15.746 18.3638 15.6585 18.3289 15.5709C18.2591 15.3959 18.2241 15.2208 18.1368 15.0545C18.0844 14.9845 18.0408 14.9057 17.9884 14.8357C17.901 14.7307 17.8137 14.6344 17.7177 14.5381C17.6478 14.4768 17.5867 14.4156 17.5256 14.3456C17.4557 14.2843 17.3858 14.2318 17.3072 14.1793C17.2636 14.1617 17.2287 14.1355 17.185 14.1092C17.0453 14.048 16.9143 13.9954 16.792 13.9079C16.7484 13.8642 16.7135 13.8291 16.6873 13.7854Z" fill="#F9406C"/>
<path d="M70.6349 15.3435C70.6262 15.4135 70.6087 15.4836 70.5825 15.5536C70.5039 15.6411 70.4253 15.7374 70.3642 15.8337C70.3467 15.9037 70.3293 15.9825 70.3031 16.0525C70.242 16.1488 70.1721 16.2363 70.0935 16.3238H70.0848C69.9975 16.4114 69.9101 16.4901 69.849 16.5952C69.7442 16.6564 69.6569 16.744 69.5958 16.849C69.4823 16.9103 69.4037 17.0065 69.3513 17.1291C69.0544 17.7593 68.4082 18.0831 68.0589 18.6696C67.989 18.7921 67.7795 18.8359 67.6223 18.8971C66.4784 19.3523 65.4043 19.1247 64.3826 18.5208C64.2429 18.442 64.1207 18.3019 64.0508 18.1531C63.4134 16.8052 63.2213 15.431 63.7714 13.9956C64.0159 13.3654 64.2167 12.7265 64.4438 12.0875C64.5136 11.8949 64.5486 11.6324 64.6883 11.5186C65.4654 10.9321 65.7449 10.0219 66.2513 9.26037C66.3911 9.0503 66.5395 8.84899 66.7054 8.65643C67.1071 8.19254 67.5612 7.85993 68.2335 7.93871C68.4344 7.96497 68.6527 7.9212 68.8623 7.89494C69.7355 7.78116 70.4166 8.12251 70.9755 8.76146C71.5605 9.44418 71.936 10.2757 72.1281 11.1247C72.2678 11.7549 72.2416 12.4639 71.936 13.0941C71.8225 13.3216 71.7002 13.5405 71.5867 13.768C71.4557 13.803 71.3509 13.7768 71.2549 13.6805C70.958 13.1903 71.185 12.6914 71.2462 12.21C71.4208 10.9672 70.8532 10.0919 69.8665 9.45293C68.8361 8.78772 67.9454 8.93652 67.2381 9.94308C66.3474 11.2122 65.4305 12.4814 64.9939 14.0044C64.7669 14.6696 64.7669 15.3435 64.9153 16.0175C64.9677 16.1138 65.0201 16.2188 65.0725 16.3151C66.1989 17.7155 68.0589 17.5054 69.4037 15.8074C69.7093 15.4223 69.8839 14.8796 70.5476 15.0284C70.6174 15.0809 70.6524 15.151 70.6524 15.221C70.6611 15.3085 70.6524 15.3435 70.6349 15.3435Z" fill="#F9406C"/>
<path d="M71.1064 39.1772C71.4557 38.582 71.5867 37.9343 71.5692 37.2516C71.5605 36.7352 71.6216 36.245 71.8312 35.7724C71.8661 35.6936 71.8661 35.5798 71.9185 35.5361C72.6346 34.9934 72.9053 34.0919 73.5602 33.4967C74.1976 32.919 74.9661 32.5426 75.7258 32.2275C76.4505 31.93 77.2888 31.8862 78.0573 32.2713C78.6249 32.5514 79.1663 32.8665 79.7426 33.1291C80.5809 33.5054 80.9214 34.1882 80.9651 35.0372C81 35.6674 80.9389 36.3063 80.9302 36.9365C80.9214 37.2079 80.7468 37.4004 80.6245 37.6192C80.3451 38.1356 80.0045 38.617 79.9434 39.2385C79.8998 39.6936 79.5505 39.965 79.1575 40.1575C78.4764 39.9562 78.8956 39.4923 78.913 39.1247C78.948 39.0022 78.9916 38.8884 79.044 38.7746C79.8386 37.593 80.1443 36.3676 79.5155 34.9847C78.9043 33.6455 77.8826 33.1641 76.4593 33.5054C74.5731 33.9606 73.7261 35.4223 72.9315 36.9628C72.5647 37.4529 72.521 38.0569 72.3464 38.617C72.3202 38.7396 72.2853 38.8621 72.2416 38.9847C72.2067 39.151 72.1979 39.326 72.163 39.4836C72.0757 39.8512 72.0233 40.3501 71.5343 40.2538C70.9929 40.14 70.8357 39.7024 71.1064 39.1772Z" fill="#F9406C"/>
<path d="M44.2724 70.5994C43.8707 71.2471 43.2944 71.7373 42.7181 72.2099C42.4212 72.455 42.2989 72.1661 42.2552 71.8861L42.264 71.8686C42.3775 71.7023 42.6395 71.7548 42.7268 71.5535C42.7355 71.4834 42.753 71.4134 42.7792 71.3521C42.8403 71.2646 42.9189 71.1771 42.9975 71.1071C43.3293 70.3193 44.2375 70.1093 44.6741 69.4353C45.2417 69.304 45.7831 68.9276 46.3769 69.1202C46.7873 69.2602 47.1977 69.2777 47.6081 69.339C48.2717 69.4353 48.8044 69.7504 48.9791 70.4594C49.0489 70.7482 49.1188 71.0283 49.3633 71.2296C49.6689 71.4834 49.8086 71.8248 49.8697 72.2187C49.8959 72.3762 49.9571 72.56 50.0531 72.6826C50.8128 73.5578 50.3762 74.5206 50.2889 75.4572C50.2889 75.5009 50.2714 75.5447 50.2452 75.571C49.4506 76.3324 49.145 77.4528 48.3678 78.223C47.9137 78.3193 47.5557 78.2756 47.5644 77.6804C47.8963 76.9801 48.1146 76.2449 48.1408 75.4047C47.5644 75.6322 47.0492 75.4309 46.7785 74.8007C46.4904 74.118 46.438 73.3653 46.7523 72.7176C47.0056 72.2012 47.5382 72.2974 47.9225 72.6738C48.2455 72.9977 48.5337 73.339 49.014 73.4615C48.3416 70.2756 46.9008 69.4003 44.2724 70.5994Z" fill="#F9406C"/>
<path d="M26.0046 7.46588C25.7601 7.41336 25.5767 7.42212 25.437 7.34334C24.6948 6.92321 24.2407 6.2405 24.1272 5.42649C24.0573 4.95384 24.1796 4.40242 24.3804 3.94728C24.9305 2.67813 25.7775 1.65406 27.1048 1.12015C27.8034 0.840058 28.5107 0.612487 29.2617 0.454938C30.1 0.279883 30.7287 0.411174 31.2876 1.07638C31.6281 1.48776 31.8901 1.80286 31.6543 2.4068C31.5146 2.77441 31.5583 3.22955 31.4186 3.63218C31.3138 3.92102 31.2002 4.17485 30.9819 4.38492C30.7112 4.6475 30.5191 5.00636 30.2572 5.25144C29.0434 6.43306 27.5502 7.06325 26.0046 7.46588Z" fill="#F9406C"/>
<path d="M16.6699 46.2057C16.6699 46.1269 16.6873 46.0569 16.7135 45.9868C16.8445 45.838 16.8008 45.6192 16.9231 45.4704V45.4617C17.7177 45.6455 17.4034 46.1969 17.2724 46.6345C16.6961 48.6389 17.1501 49.7067 19.0188 50.6083C19.3419 50.5383 19.6475 50.3282 19.9968 50.4507C21.5512 51.0109 22.5903 50.372 23.3325 49.024C23.4373 48.8402 23.577 48.6827 23.708 48.5164C23.8477 48.3413 23.9525 48.1488 24.0398 47.9387C24.1272 47.7286 24.2494 47.5361 24.3891 47.361C24.459 47.2647 24.5288 47.186 24.5987 47.0984C24.6336 47.0547 24.6686 47.0109 24.7035 46.9671C25.1139 46.6958 24.8519 45.6805 25.7776 45.9868C26.153 46.5995 25.8125 47.1334 25.5505 47.6411C25.1488 48.4201 24.7908 49.2166 24.4677 50.0394C24.3455 50.3457 24.1446 50.6258 23.9613 50.9059C23.7255 51.2735 23.4199 51.5098 22.9571 51.5798C22.599 51.6323 22.2585 51.8512 21.9005 51.965C21.5075 52.0962 21.1058 52.3676 20.6954 52.2713C19.8484 52.0612 18.9402 52.1313 18.1194 51.7636C17.3772 51.4223 16.6961 51.0459 16.5913 50.1006C16.5651 49.8731 16.3555 49.663 16.242 49.4442C15.7704 48.5251 15.7879 47.5886 16.1983 46.6608C16.2245 46.5908 16.3118 46.547 16.373 46.4857C16.5127 46.4245 16.6087 46.3282 16.6699 46.2057Z" fill="#F9406C"/>
<path d="M12.8888 68.0612C12.3038 68.5513 11.675 68.8927 10.9328 69.1465C10.0945 69.4354 9.36101 69.1815 8.59257 69.0327C8.36553 68.989 8.15596 68.7877 7.97258 68.6214C7.46612 68.1575 7.13429 67.571 6.8374 66.9583C6.14755 65.5316 5.89432 64.0174 6.0253 62.4332C6.0515 62.1181 6.37459 61.908 6.39205 61.6542C6.44445 60.6651 7.04697 60.0787 7.76301 59.5535C7.79794 59.5273 7.80667 59.4835 7.83287 59.4485C8.44412 59.536 8.50525 59.9386 8.28694 60.3938C8.1385 60.7001 8.07737 60.9977 8.03371 61.3128C7.49231 62.2844 7.36133 63.3697 7.24781 64.4463C7.07317 66.0743 8.91566 67.9912 10.5486 67.9211C11.1686 67.8949 11.7973 67.9211 12.3998 67.7198C12.6618 67.7023 12.9499 67.6323 12.8888 68.0612Z" fill="#F9406C"/>
<path d="M59.4751 60.7527C59.2132 61.2954 58.7154 61.5142 58.1827 61.6805C57.9819 61.7418 57.7287 61.7943 57.5715 61.6543C57.1523 61.2604 56.7245 61.4004 56.2879 61.558C55.6242 61.8118 54.9868 61.8993 54.3842 61.4004C54.1747 61.2341 53.9214 61.1991 53.6682 61.2079C53.1967 61.2166 52.8823 60.9365 52.6203 60.5952C52.3846 60.2976 52.2099 59.9475 51.9392 59.6936C51.1533 58.9321 51.197 58.0744 51.5899 57.1553C51.8956 56.8402 51.686 56.4464 51.7471 56.0875C51.7558 55.8337 51.7122 55.5799 51.8257 55.3435C52.6291 55.116 52.4981 55.7024 52.4806 56.1225C52.4282 57.9606 53.1443 59.3785 54.7161 60.3588C55.8163 60.7352 56.8729 60.4201 57.947 60.2013C58.5495 59.965 59.1258 59.6936 59.7196 59.4398C60.2523 59.2385 60.4182 59.4135 60.2261 59.9475C60.0165 60.0788 59.8331 60.2276 59.7284 60.4639V60.4551C59.6148 60.5339 59.5362 60.6302 59.4751 60.7527Z" fill="#F9406C"/>
<path d="M25.7862 45.9954C25.533 46.0217 25.3147 46.118 25.2972 46.4068C25.271 46.7919 25.1488 47.0983 24.7733 47.2558C24.4066 46.9145 24.5201 46.4856 24.5637 46.0655C24.7908 43.4134 22.1449 42.2843 20.4334 42.967C18.914 43.5797 18.1718 44.7788 17.7963 46.3893C17.4906 47.6847 17.7788 48.6913 18.5123 49.6803C18.5647 49.7766 18.6084 49.8816 18.6608 49.9779C18.7394 50.3893 19.3506 50.5206 19.2109 51.0458C18.8703 51.0545 18.5385 51.0458 18.3115 50.7307C18.2154 50.5994 18.1194 50.4331 17.9884 50.363C16.696 49.6191 16.6087 48.4024 16.7135 47.1158C16.7309 46.8882 16.9318 46.6781 17.0366 46.4593C17.2112 46.1005 17.2898 45.7504 16.9143 45.4528C16.9318 44.7263 17.2549 44.1661 17.7963 43.711C18.1805 43.3871 18.5298 43.0107 18.9315 42.7044C19.9968 41.8816 21.2542 41.7591 22.5204 41.9167C23.4024 42.0304 24.1184 42.6169 24.817 43.1508C24.8781 43.1946 24.9392 43.2821 24.9567 43.3609C25.0877 43.9473 25.4632 44.4287 25.6465 44.9801C25.7513 45.3215 25.7426 45.6628 25.7862 45.9954Z" fill="#F9406C"/>
<path d="M71.1064 39.1772C71.1152 39.4223 71.0802 39.6936 71.2724 39.8862C71.3509 39.965 71.4732 40.0262 71.5867 40.0437C71.7352 40.0613 71.7963 39.93 71.8312 39.8074C71.9447 39.4223 71.709 38.9497 72.1194 38.6433C72.4774 38.9584 72.3464 39.4136 72.4512 39.7987C72.4774 39.8862 72.5036 39.9825 72.5211 40.0788C72.5735 40.2538 72.6433 40.4201 72.7219 40.5864C72.7656 40.6652 72.8005 40.744 72.8354 40.8227C72.8791 40.9015 72.9227 40.9715 72.9751 41.0503C73.0013 41.0853 73.0275 41.1203 73.0625 41.1553C73.1236 41.2254 73.1847 41.2954 73.2458 41.3742C73.307 41.4529 73.3681 41.5317 73.4292 41.6105C73.5602 41.7768 73.7174 41.8906 73.9095 41.9781C74.0143 42.0131 74.1103 42.0569 74.2151 42.0919C75.0097 42.1444 75.8218 42.3632 76.5204 41.768C77.1317 41.3041 77.4897 40.6302 77.97 40.0613C78.293 39.6849 78.5288 39.0897 79.2012 39.1597C79.1488 39.3523 79.1051 39.5448 79.044 39.7374C78.9916 39.9125 79.0178 40.0525 79.175 40.1575C78.9043 40.4726 78.6685 40.814 78.5725 41.2341C78.197 42.8884 76.9308 43.4311 75.4725 43.7462C74.9224 43.8599 74.3985 43.9125 73.9619 43.4398C73.8833 43.3523 73.7436 43.2648 73.6388 43.2735C73.0101 43.3173 72.6695 42.8534 72.2329 42.5295C71.8749 42.2669 71.6042 41.9693 71.7177 41.4792C71.7701 41.2429 71.6129 41.0853 71.4994 40.919C71.316 40.6389 71.1064 40.3676 70.958 40.07C70.8008 39.7462 70.7397 39.4135 71.1064 39.1772Z" fill="#F9406C"/>
<path d="M12.8888 68.0613C12.7753 67.8512 12.5919 67.8075 12.3823 67.8075C12.3212 67.7549 12.295 67.6937 12.3212 67.6412C12.3387 67.5886 12.3649 67.5536 12.3823 67.5536C12.6967 67.5536 12.9674 67.4136 13.1333 67.151C13.4913 66.5908 13.8755 66.0394 14.12 65.4355C14.4169 64.7002 14.5828 63.9125 14.8099 63.151C14.8361 63.0722 14.8623 62.9584 14.8273 62.9059C14.4082 62.2407 14.478 61.453 14.2772 60.7352C14.1462 60.2801 13.8319 59.9563 13.4214 59.6849C12.9674 59.3961 12.4609 59.1685 12.1029 58.7309C12.0243 58.6346 11.9894 58.5033 12.0854 58.3895C12.3212 58.1094 12.6967 58.1357 13.0023 58.0131C13.2381 57.9256 13.3516 58.1619 13.5175 58.2845C13.7183 58.4333 13.9454 58.5383 14.1637 58.6608C14.7924 59.4573 15.1417 60.4114 15.6394 61.2867C15.8403 61.6455 15.8665 62.0482 15.718 62.4945C15.4037 63.4486 15.1766 64.4289 14.9147 65.4005C14.9059 65.4442 14.9147 65.4967 14.8972 65.523C14.1375 66.3107 13.9279 67.5186 12.8888 68.0613Z" fill="#F9406C"/>
<path d="M36.6753 6.93213C36.6841 6.97589 36.6841 7.01966 36.7015 7.05467C36.8587 7.53607 37.4787 7.58858 37.6271 8.16626C37.7232 8.56014 38.2471 8.83147 38.544 9.18158C39.0418 9.76801 39.7403 9.94307 40.4127 10.1619C40.5612 10.2057 40.7445 10.1706 40.9017 10.1269C41.0589 10.0831 41.2073 9.99559 41.3645 9.92556C41.5304 9.84679 41.7225 9.82053 41.8011 10.0043C41.8972 10.2144 41.6614 10.2669 41.5304 10.3544C40.8581 10.8534 40.0634 11.0284 39.2775 10.9671C38.5615 10.9059 37.8891 10.5645 37.7057 9.75051C37.6271 9.4004 37.4525 9.26036 37.1381 9.18158C36.6666 9.05904 36.6491 9.05904 36.4221 9.74176C36.1165 9.51419 36.0379 9.13782 36.0815 8.83147C36.1863 8.17502 36.1951 7.4748 36.6753 6.93213Z" fill="#F9406C"/>
<path d="M60.4881 50.0305C60.9072 50.3806 61.3176 50.722 61.7368 51.0721C62.0075 52.1487 62.9069 52.9977 62.8632 54.1881C62.8458 54.3106 62.7846 54.3981 62.6798 54.4594C62.5576 54.4682 62.4528 54.4331 62.3568 54.3719C61.4661 53.9167 61.1692 52.8139 60.2174 52.4288C60.1388 52.35 60.0689 52.2537 59.9991 52.1662C59.8943 52.0349 59.7895 51.8948 59.6847 51.7636C59.5712 51.641 59.4664 51.5097 59.3529 51.3959C58.7591 50.8358 58.7242 50.4156 59.6585 50.2756C59.9379 50.2231 60.2174 50.1443 60.4881 50.0305Z" fill="#F9406C"/>
<path d="M7.82415 61.2164C7.82415 60.9276 7.81542 60.63 8.02499 60.3937C8.36555 59.9998 8.12104 59.7197 7.83288 59.4484C7.82415 59.072 8.01626 58.8269 8.33935 58.6694C8.67117 58.5031 9.003 58.3368 9.33482 58.1705C9.64918 58.0917 9.96354 57.9954 10.2866 57.9342C10.4875 57.8992 10.6883 57.9604 10.863 58.1092C11.0638 58.2755 11.0638 58.6081 10.8542 58.7482C10.7844 58.7919 10.7145 58.8707 10.6447 58.8707C9.85002 58.9145 9.39595 59.4046 9.02046 60.0436C8.92441 60.2099 8.72357 60.3149 8.57512 60.4549C8.49653 60.5425 8.40047 60.6213 8.32188 60.7088C8.11231 60.8226 8.31315 61.3652 7.82415 61.2164Z" fill="#F9406C"/>
<path d="M45.2853 7.70225C45.0757 7.42216 44.7876 7.3959 44.5081 7.51844C44.3248 7.59722 44.2025 7.81603 44.0191 7.88606C43.7048 7.99984 43.5127 8.13113 43.6175 8.51625C43.6437 8.60378 43.5563 8.75258 43.4865 8.8401C43.4166 8.92763 43.2856 9.00641 43.1808 9.01516C43.0237 9.02391 42.9887 8.86636 43.0237 8.74382C43.2682 7.77227 43.5651 6.82697 44.5343 6.30181C44.7526 6.17927 44.9797 6.07424 45.1718 5.90794C45.5036 5.61034 45.783 5.80291 46.0799 5.96045C46.0712 6.66067 45.6957 7.18584 45.2853 7.70225Z" fill="#F9406C"/>
<path d="M60.4881 50.0306C60.4444 50.2844 60.3571 50.512 60.0602 50.5383C59.8157 50.5645 59.5712 50.5558 59.3267 50.5733C59.2656 50.582 59.1783 50.652 59.1695 50.7133C59.1608 50.7746 59.1957 50.8796 59.2481 50.9234C59.4053 51.0547 59.5887 51.1422 59.7458 51.2735C59.9205 51.4135 59.9467 51.6236 59.9642 51.8249C60.0515 51.9037 60.1301 52 60.2174 52.0787C60.4619 52.4901 60.261 52.6477 59.8681 52.7002C59.3616 52.4289 58.7067 52.5251 58.2963 52.0087C57.9383 51.5623 57.7112 51.1597 57.9732 50.5295C58.2264 49.9256 58.5583 49.768 59.1346 49.9168C59.4839 50.0131 59.4053 49.7243 59.4664 49.558L59.4839 49.5229C59.8594 49.6017 60.2261 49.7155 60.4881 50.0306Z" fill="#F9406C"/>
<path d="M41.2248 76.4287C41.5217 76.63 41.6789 76.9451 41.7051 77.269C41.74 77.7154 41.9845 78.0305 42.2028 78.3893C42.36 78.6519 42.4997 78.8707 42.8665 78.8532C42.9975 78.8445 43.1634 78.9933 43.2682 79.107C43.5301 79.3784 43.8008 79.4834 44.1588 79.2909C44.2287 79.2558 44.3335 79.2208 44.3946 79.2471C44.9098 79.4221 45.0495 79.1421 45.1019 78.7044C45.1107 78.6519 45.2242 78.5906 45.294 78.5819C45.3639 78.5819 45.4512 78.6344 45.4949 78.6869C45.6695 78.8882 45.6608 79.1246 45.6259 79.3871C45.5909 79.6585 45.8529 79.6847 46.0537 79.7197C43.8096 80.5075 41.8623 79.4747 41.4693 77.514C41.3907 77.1639 41.1724 76.8226 41.2248 76.4287Z" fill="#F9406C"/>
<path d="M11.1162 38.1355C11.1162 38.3543 11.1773 38.5469 11.3869 38.6694C11.1162 39.3609 10.601 39.8073 10.0247 40.2449C9.33484 40.7613 8.54894 41.1815 8.1036 41.978C8.0774 41.6541 7.92895 41.444 7.57966 41.4353C7.47488 41.0152 7.81543 40.8401 8.05994 40.6563C8.94189 39.9736 9.78891 39.2559 10.4875 38.3718C10.6272 38.1793 10.828 38.0217 11.1162 38.1355Z" fill="#F9406C"/>
<path d="M62.7498 54.3718C62.6974 53.8029 62.7061 53.2077 62.0774 52.9013C61.9639 52.2887 61.667 51.711 61.7455 51.072C61.8591 51.1946 61.9639 51.3259 62.0948 51.4309C62.4354 51.7285 62.9681 51.921 62.9768 52.4374C62.9855 53.1727 63.2475 53.9429 62.776 54.6344C62.7061 54.5819 62.6799 54.5206 62.6974 54.4593C62.7061 54.3981 62.7236 54.3718 62.7498 54.3718Z" fill="#F9406C"/>
<path d="M60.2174 59.9473C60.2087 59.6234 60.0428 59.4484 59.7109 59.4396C60.1214 58.7569 60.8287 58.3193 61.2129 57.6103C61.274 57.4965 61.4312 57.584 61.5098 57.6978C61.5272 58.7044 61.012 59.4046 60.2174 59.9473Z" fill="#F9406C"/>
<path d="M61.9813 57.1552C61.9027 57.0677 61.8154 56.9889 61.7368 56.9014C61.6582 56.8489 61.6407 56.7876 61.6669 56.7351C61.6931 56.6826 61.7193 56.6476 61.7455 56.6476C61.7455 56.2275 61.7455 55.7986 61.7455 55.3784C61.632 54.7658 61.7892 54.3544 62.5052 54.3719C62.6624 54.5382 62.6449 54.7132 62.5227 54.897C62.4528 55.676 62.5576 56.49 61.9813 57.1552Z" fill="#F9406C"/>
<path d="M47.5644 77.698C47.7565 77.9956 48.0971 78.0656 48.3678 78.2407C48.2979 78.582 48.1145 78.8359 47.7827 78.9584C47.5295 78.9496 47.3024 78.8709 47.1715 78.6345C47.0317 78.372 47.2151 78.1706 47.3112 77.9606C47.3723 77.8555 47.4771 77.7855 47.5644 77.698Z" fill="#F9406C"/>
<path d="M52.3409 53.593C52.5418 53.6018 52.7513 53.6018 52.9522 53.628C53.1792 53.6543 53.3189 53.7681 53.2753 54.0394C53.2229 54.3195 53.1792 54.5996 53.1356 54.8797C52.6116 54.9059 52.4021 54.3808 51.9654 54.2495C51.9305 54.2057 51.8956 54.1619 51.8607 54.1094C51.9392 53.8644 52.1139 53.7068 52.3409 53.593Z" fill="#F9406C"/>
<path d="M1.49329 43.9824C2.09581 44.0262 2.51495 44.2888 2.55862 44.954C1.62427 44.9015 1.62427 44.9015 1.49329 43.9824Z" fill="#F9406C"/>
<path d="M51.8694 55.3873C51.8694 55.6411 51.8694 55.895 51.8607 56.1488C51.7821 56.2626 51.7035 56.2626 51.6249 56.1576C51.6249 55.6586 51.6161 55.1685 51.6161 54.6696C51.6161 54.4508 51.686 54.267 51.8519 54.1182L51.8868 54.1532C52.2187 54.5558 52.1837 54.9759 51.8694 55.3873Z" fill="#F9406C"/>
<path d="M36.9199 10.4944C37.339 10.7045 37.6621 10.9758 37.697 11.4834C37.2604 11.2909 36.9723 10.9845 36.9199 10.4944Z" fill="#F9406C"/>
<path d="M15.9189 13.0502C15.6307 13.3915 15.2465 13.2602 14.8798 13.2602C15.1854 12.9451 15.5609 13.0239 15.9189 13.0502Z" fill="#F9406C"/>
<path d="M40.4826 0.857666C40.3254 1.17276 40.0722 1.33907 39.7229 1.37408C39.8452 1.00646 40.1071 0.857666 40.4826 0.857666Z" fill="#F9406C"/>
<path d="M51.6336 56.1486C51.7122 56.1486 51.7908 56.1486 51.8694 56.1399C51.8345 56.49 52.0004 56.9014 51.59 57.1465C51.5987 56.8139 51.6162 56.4813 51.6336 56.1486Z" fill="#F9406C"/>
<path d="M36.4134 9.73291C36.7627 9.87295 36.9373 10.1268 36.9199 10.5032C36.623 10.3368 36.4396 10.083 36.4134 9.73291Z" fill="#F9406C"/>
<path d="M36.9286 6.94078C36.8412 6.94078 36.7539 6.94078 36.6666 6.93203C36.6666 6.57317 36.6055 6.1968 36.9198 5.90796C36.9286 6.25807 36.9286 6.59942 36.9286 6.94078Z" fill="#F9406C"/>
<path d="M59.7196 60.4639C59.7109 60.1226 59.8768 59.9563 60.2174 59.9475C60.1213 60.1926 59.9641 60.3676 59.7196 60.4639Z" fill="#F9406C"/>
<path d="M42.7355 71.5623C42.6744 71.7986 42.4823 71.8598 42.2727 71.8774C42.3513 71.6585 42.5434 71.6148 42.7355 71.5623Z" fill="#F9406C"/>
<path d="M45.032 8.21005C45.032 7.99999 45.0844 7.80743 45.2853 7.70239C45.2853 7.91246 45.2242 8.09627 45.032 8.21005Z" fill="#F9406C"/>
<path d="M17.6915 13.5316C17.4907 13.5316 17.3073 13.4878 17.1938 13.2952C17.3946 13.2865 17.578 13.3302 17.6915 13.5316Z" fill="#F9406C"/>
<path d="M18.4862 14.0217C18.2679 14.0392 18.067 14.0042 17.9535 13.7854C18.1631 13.7854 18.3552 13.8292 18.4862 14.0217Z" fill="#F9406C"/>
<path d="M71.3509 13.7854C71.4295 13.7854 71.5081 13.7766 71.5954 13.7766C71.6042 13.9867 71.5518 14.1705 71.3771 14.3105C71.3422 14.2755 71.2985 14.2405 71.2636 14.2055C71.2287 14.1092 71.2287 14.0042 71.2549 13.9079C71.2898 13.8641 71.316 13.8291 71.3509 13.7854Z" fill="#F9406C"/>
<path d="M71.3772 14.3106C71.3597 14.5119 71.2899 14.687 71.1152 14.8095C71.0803 14.7657 71.0453 14.722 71.0104 14.687C70.9755 14.4419 71.0104 14.2493 71.3335 14.2756L71.3772 14.3106Z" fill="#F9406C"/>
<path d="M11.3781 15.8335C11.3606 16.0348 11.3082 16.2186 11.0986 16.3149C11.1161 16.1136 11.1772 15.9298 11.3781 15.8335Z" fill="#F9406C"/>
<path d="M11.6139 38.3808C11.6226 38.1795 11.6576 38.0044 11.8409 37.8906C11.8584 38.0919 11.806 38.267 11.6139 38.3808Z" fill="#F9406C"/>
<path d="M16.9231 45.4792C16.9318 45.6806 16.9056 45.8731 16.7135 45.9957C16.696 45.7856 16.7397 45.6018 16.9231 45.4792Z" fill="#F9406C"/>
<path d="M62.5052 54.8882C62.4965 54.7131 62.4965 54.5381 62.4877 54.363C62.5751 54.363 62.6536 54.363 62.741 54.363C62.7497 54.4506 62.7497 54.5381 62.7584 54.6256C62.6798 54.7219 62.5925 54.8094 62.5052 54.8882Z" fill="#F9406C"/>
<path d="M16.6699 46.2056C16.6349 46.3544 16.5476 46.4506 16.3992 46.4944C16.4865 46.3981 16.5738 46.3018 16.6699 46.2056Z" fill="#F9406C"/>
<path d="M11.3782 38.6607C11.4568 38.5732 11.5354 38.4769 11.6139 38.3894C11.5354 38.4769 11.4568 38.5645 11.3782 38.6607Z" fill="#F9406C"/>
<path d="M59.4752 60.7527C59.5014 60.6127 59.5887 60.5164 59.7284 60.4639C59.6411 60.5601 59.5625 60.6564 59.4752 60.7527Z" fill="#F9406C"/>
<path d="M10.5835 17.2954C10.566 17.4355 10.4874 17.5317 10.3564 17.593C10.435 17.488 10.5049 17.3917 10.5835 17.2954Z" fill="#F9406C"/>
<path d="M69.36 17.1202C69.3862 16.9801 69.4648 16.8839 69.6045 16.8401C69.5172 16.9364 69.4386 17.0326 69.36 17.1202Z" fill="#F9406C"/>
<path d="M10.8368 16.7788C10.8193 16.9189 10.7494 17.0151 10.6272 17.0852C10.6883 16.9801 10.7582 16.8838 10.8368 16.7788Z" fill="#F9406C"/>
<path d="M69.5958 16.849C69.6831 16.7615 69.7617 16.674 69.849 16.5952C69.7704 16.674 69.6831 16.7615 69.5958 16.849Z" fill="#F9406C"/>
<path d="M69.849 16.5951C69.9276 16.5075 70.0062 16.42 70.0848 16.3237C70.0586 16.455 69.98 16.5513 69.849 16.5951Z" fill="#F9406C"/>
<path d="M70.0935 16.3238C70.1634 16.2363 70.2332 16.1488 70.3031 16.0525C70.2856 16.1925 70.2158 16.2713 70.0935 16.3238Z" fill="#F9406C"/>
<path d="M70.3642 15.8423C70.4341 15.7461 70.5126 15.6498 70.5825 15.5623C70.5039 15.6498 70.4341 15.7461 70.3642 15.8423Z" fill="#F9406C"/>
<path d="M11.6226 15.571C11.544 15.6498 11.4654 15.7373 11.3868 15.8161C11.413 15.6936 11.5004 15.6061 11.6226 15.571Z" fill="#F9406C"/>
<path d="M11.8759 15.3083C11.7973 15.3959 11.7187 15.4834 11.6401 15.5622C11.71 15.4834 11.7973 15.3959 11.8759 15.3083Z" fill="#F9406C"/>
<path d="M70.6349 15.3434C70.6262 15.2472 70.6087 15.1509 70.6 15.0546L70.696 14.9758L70.8183 14.9846L70.8881 15.0809C70.8008 15.1684 70.7135 15.2559 70.6349 15.3434Z" fill="#F9406C"/>
<path d="M12.1116 15.0283C12.033 15.1246 11.9544 15.2209 11.8759 15.3084C11.9544 15.2121 12.033 15.1158 12.1116 15.0283Z" fill="#F9406C"/>
<path d="M71.1064 14.8094C71.0279 14.9057 70.958 14.9932 70.8794 15.0895L70.8357 15.0458C70.7746 14.8444 70.8707 14.7744 71.0628 14.7744L71.1064 14.8094Z" fill="#F9406C"/>
<path d="M12.6355 14.5645C12.5395 14.6345 12.4434 14.7045 12.3386 14.7745C12.4347 14.7045 12.5395 14.6345 12.6355 14.5645Z" fill="#F9406C"/>
<path d="M13.6397 13.7854C13.5961 13.9167 13.5087 13.9955 13.369 14.0217C13.4127 13.8817 13.5087 13.8117 13.6397 13.7854Z" fill="#F9406C"/>
<path d="M13.9017 13.5579C13.8144 13.6366 13.7271 13.7067 13.6398 13.7854C13.7271 13.7067 13.8144 13.6279 13.9017 13.5579Z" fill="#F9406C"/>
<path d="M14.155 13.3391C14.0764 13.4091 13.9978 13.4792 13.928 13.5404C13.9542 13.4179 14.024 13.3479 14.155 13.3391Z" fill="#F9406C"/>
<path d="M14.6876 13.2604C14.5915 13.2691 14.4955 13.2691 14.3994 13.2779C14.4867 13.1116 14.5828 13.1116 14.6876 13.2604Z" fill="#F9406C"/>
<path d="M16.4428 13.0152C16.3468 13.0152 16.2507 13.0152 16.1634 13.0152C16.2594 12.8839 16.3468 12.8839 16.4428 13.0152Z" fill="#F9406C"/>
<path d="M43.0062 71.116C42.9364 71.1947 42.8578 71.2823 42.7879 71.361C42.8054 71.2298 42.884 71.151 43.0062 71.116Z" fill="#F9406C"/>
<path d="M46.0624 5.94297C46.141 5.84669 46.2109 5.75916 46.2895 5.67163C46.272 5.81167 46.1934 5.8992 46.0624 5.94297Z" fill="#F9406C"/>
<path d="M31.6456 73.4353C31.6718 73.2865 31.7504 73.1902 31.8901 73.1465C31.8027 73.2428 31.7242 73.339 31.6456 73.4353Z" fill="#F9406C"/>
<path d="M31.1216 74.1705C31.2002 74.083 31.2788 73.9867 31.3661 73.8992C31.2876 73.9867 31.209 74.0742 31.1216 74.1705Z" fill="#F9406C"/>
<path d="M30.8771 74.442C30.9033 74.3019 30.9907 74.2056 31.1304 74.1619C31.043 74.2581 30.9645 74.3544 30.8771 74.442Z" fill="#F9406C"/>
<path d="M30.5977 74.9057C30.6676 74.8269 30.7374 74.7394 30.8073 74.6606C30.7374 74.7394 30.6676 74.8182 30.5977 74.9057Z" fill="#F9406C"/>
<path d="M38.4305 6.31938C38.4305 6.20559 38.5003 5.96052 38.4218 5.79422C38.0899 5.1115 38.3344 4.6301 38.806 4.10494C39.3124 3.54476 39.7316 2.90581 40.1245 2.26686C40.3603 1.88174 40.6659 1.64542 41.0414 1.44411C41.6439 1.12025 42.3163 1.00647 42.9625 0.875178C43.4602 0.770145 43.9842 0.805156 44.2898 1.35658C44.4295 1.61041 44.7177 1.61041 44.9447 1.70669C45.2678 1.84673 45.4599 2.06555 45.5996 2.41566C45.7655 2.84454 45.7044 3.14214 45.3639 3.41347C45.1979 3.54476 44.9622 3.63229 44.8749 3.80734C44.543 4.4813 44.0104 4.34126 43.4777 4.20997C43.3293 4.17496 43.1983 3.9824 43.0236 4.05242C42.8752 4.11369 42.6918 4.20122 42.6307 4.33251C42.5434 4.52507 42.7267 4.6126 42.9014 4.65636C43.0673 4.70012 43.2245 4.77015 43.3904 4.77015C43.6611 4.77015 44.0104 4.49006 44.1501 4.89268C44.2549 5.18152 44.0016 5.44411 43.8357 5.68918C43.6174 5.99553 43.3816 6.29312 43.1459 6.59071C43.0149 6.76577 42.849 6.8708 42.6219 6.91457C42.2901 6.96708 42.0282 6.78327 41.9932 6.46818C41.967 6.17058 42.0282 5.8905 42.1155 5.60166C42.1853 5.37408 41.9321 5.03273 41.7225 5.07649C41.3383 5.15527 40.9017 5.16402 40.6572 5.55789C40.5961 5.66292 40.5349 5.80297 40.5524 5.908C40.5873 6.0568 40.7358 5.99553 40.8493 5.98678C41.3121 5.97802 41.3296 5.98678 41.12 6.40691C41.024 6.59947 40.9454 6.79203 40.9716 7.01085C40.9978 7.25592 41.1025 7.28218 41.2859 7.11588C41.4344 6.98459 41.609 7.00209 41.7313 7.14214C41.8011 7.22966 41.8797 7.43973 41.8535 7.45724C41.4169 7.80734 41.2772 8.35877 40.9628 8.7789C40.8493 8.92769 40.6048 8.99772 40.4214 9.08524C40.2468 9.17277 40.0896 9.1115 39.9848 8.95395C39.7927 8.66511 39.6443 8.37627 39.8014 8.00866C39.915 7.73732 39.9761 7.44848 40.0896 7.17715C40.2031 6.88831 40.0809 6.69575 39.8975 6.50319C39.7228 6.31938 39.5657 6.32813 39.4609 6.58196C39.3561 6.82704 39.2426 7.0371 38.9981 7.15089C38.8496 7.22091 38.6837 7.3522 38.5353 7.22091C38.4218 7.11588 38.3606 6.94082 38.3344 6.78327C38.3257 6.66949 38.3868 6.5382 38.4305 6.31938Z" fill="#F9406C"/>
<path d="M36.9286 6.94092C36.9635 6.95842 37.0334 6.98468 37.0246 7.00219C37.0159 7.08096 36.9722 7.06346 36.9286 6.94092Z" fill="#F9406C"/>
<path d="M7.82413 61.2166C7.99004 61.0503 8.16468 60.8753 8.3306 60.709C8.2782 61.698 8.89819 62.1007 9.71902 62.302C9.99845 62.372 10.077 62.4858 9.97225 62.7309C9.80634 63.0985 9.89366 63.5536 9.53564 63.8775C9.43085 63.9738 9.45705 64.2889 9.50944 64.4727C9.56184 64.6652 9.71902 64.8315 10.0421 64.8315C10.1207 64.2976 10.4613 63.895 10.8105 63.4836C10.9328 63.3348 10.9415 63.0197 11.2035 63.0985C11.5702 63.2123 11.8322 63.5011 11.9807 63.8687C11.9981 63.9212 11.9283 64.0263 11.8846 64.0788C11.7274 64.2713 11.4218 64.2889 11.317 64.5602C11.3869 64.8578 11.6401 64.7177 11.8147 64.7615C11.9719 64.8053 12.1466 64.8228 12.295 64.8753C12.3561 64.9015 12.4173 64.9978 12.4173 65.0678C12.4173 65.1204 12.3299 65.2341 12.295 65.2254C11.8671 65.1991 11.6314 65.5492 11.3257 65.7418C10.8891 66.0219 10.7843 66.3282 10.9241 66.7746C10.9328 66.8096 10.9503 66.8709 10.9765 66.8884C11.2821 67.0635 11.0725 67.4748 11.2995 67.6499C11.5702 67.86 11.8409 67.5011 12.1291 67.5536C12.2077 67.5711 12.295 67.5536 12.3823 67.5536C12.3823 67.6412 12.3823 67.7199 12.3823 67.8075C12.2688 67.9387 12.1378 68.035 11.9545 68.0438C11.5353 68.0788 11.1249 68.105 10.7145 68.2188C9.85 68.4639 9.0903 68.3151 8.44411 67.5624C7.88525 66.9147 7.47484 66.1882 6.9771 65.5142C6.7326 65.1816 6.76753 64.779 6.88105 64.4201C6.98584 64.0963 7.07316 63.7812 7.06443 63.4398C7.03823 62.5996 7.33512 61.8731 7.82413 61.2166Z" fill="#F9406C"/>
<path d="M11.1162 61.2165C11.1511 61.059 11.2647 60.8402 11.2035 60.7526C10.9852 60.4638 10.8979 60.0437 10.47 59.9649C10.2779 59.9299 10.0509 59.9649 9.97229 59.7023C10.5312 59.3522 11.1162 59.0634 11.8061 59.2122C12.0593 59.2647 12.2776 59.3785 12.2601 59.7023C12.2427 59.9474 12.2339 60.1837 12.1903 60.4375C12.0593 61.0502 11.6925 61.2603 11.1162 61.2165Z" fill="#F9406C"/>
<path d="M11.1161 61.2166C11.0987 61.2516 11.0725 61.3216 11.0637 61.3128C10.9764 61.2953 10.9939 61.2603 11.1161 61.2166Z" fill="#F9406C"/>
<path d="M59.449 49.5668C59.5188 49.6718 59.5887 49.7768 59.6585 49.8819C59.7284 49.9869 59.8419 50.1094 59.7459 50.2145C59.676 50.2845 59.5101 50.3107 59.4053 50.2932C59.1608 50.2495 58.925 50.1532 58.6805 50.1007C58.6107 50.0832 58.4622 50.1094 58.4535 50.1444C58.3749 50.4595 58.305 50.7659 58.0605 51.0197C57.9558 51.1335 58.0955 51.3348 58.209 51.4573C58.3225 51.5799 58.4622 51.6937 58.5408 51.8337C58.7067 52.1401 58.925 52.2013 59.2569 52.1313C59.5887 52.0613 59.676 52.3239 59.7109 52.5952C59.7022 52.6477 59.6935 52.7002 59.676 52.7527C59.5887 53.0678 59.8245 53.2341 59.9991 53.4355C60.1126 53.558 60.1912 53.698 60.2087 53.8731C60.2873 54.1532 60.3833 54.4245 60.427 54.7134C60.4706 54.9409 60.3309 55.011 60.1301 54.9147C59.9205 54.8184 59.7371 54.7221 59.7022 55.0722C59.6847 55.2385 59.6847 55.4048 59.6585 55.5711C59.6149 55.825 59.4053 55.8687 59.1957 55.9037C59.1171 55.8337 59.056 55.7549 58.9949 55.6674C58.925 55.5361 58.8464 55.3961 58.7679 55.2735C58.7417 55.2298 58.7155 55.186 58.6893 55.1422C58.5845 54.9409 58.3924 54.8972 58.1828 54.8884C58.0431 54.5383 57.9383 54.1707 57.7724 53.8381C57.5104 53.3129 57.2048 52.814 56.6983 52.4639C56.4626 52.2976 56.3578 52.07 56.7507 51.9387C56.7856 51.93 56.8555 51.895 56.8555 51.8775C56.8555 51.2998 57.0913 50.8359 57.5628 50.5033C57.7287 49.523 58.4448 49.523 59.1957 49.5755C59.2831 49.558 59.3704 49.558 59.449 49.5668Z" fill="#F9406C"/>
<path d="M51.8694 55.3872C51.8781 54.9671 51.8781 54.5557 51.8868 54.1356C52.5767 53.9168 52.8387 54.4157 53.1268 54.8796C53.1268 54.9671 53.1268 55.0459 53.1268 55.1334C53.0395 55.2122 52.9522 55.2997 52.8736 55.3872C52.437 55.8949 52.6029 56.4813 52.7077 57.0328C52.795 57.4704 52.9784 57.8993 53.1356 58.3282C53.1879 58.477 53.2403 58.6783 53.3626 58.757C53.9215 59.1247 54.1834 59.7549 54.6462 60.21C54.7074 60.2625 54.7336 60.3238 54.7074 60.3763C54.6899 60.4288 54.6637 60.4638 54.6462 60.4638C53.5285 60.14 53.0133 59.2647 52.6378 58.2669C52.5767 58.1093 52.6029 57.9168 52.5243 57.7767C52.2187 57.1991 52.044 56.6389 52.3322 55.9824C52.4719 55.6586 52.2361 55.4135 51.8694 55.3872Z" fill="#F9406C"/>
<path d="M60.2174 53.8642C60.1301 53.7767 60.0515 53.6979 59.9642 53.6104C59.8157 53.2865 59.3616 53.0415 59.7109 52.5951C60.0427 52.5863 60.2087 52.42 60.2174 52.0874C60.4881 52.2975 60.6627 52.6738 61.1517 52.4288C61.4137 52.2975 61.5534 52.5163 61.501 52.8401C61.4137 53.3303 61.4137 53.4091 61.8416 53.5841C62.2345 53.7417 62.4878 53.9342 62.4965 54.3719C62.0424 54.5557 61.9464 55.0108 61.7368 55.3872C61.5534 55.4485 61.3962 55.606 61.1954 55.5447C61.1692 55.4747 61.1255 55.4309 61.1343 55.4047C61.5098 54.5819 61.2653 53.9955 60.4706 53.6104C60.3833 53.6892 60.3047 53.7767 60.2174 53.8642Z" fill="#F9406C"/>
<path d="M54.6462 60.455C54.6462 60.3675 54.6462 60.2887 54.6462 60.2012C55.3885 60.3587 56.1394 60.3937 56.838 60.0961C57.2484 59.9211 57.5628 60.2187 57.9295 60.2012C57.685 60.525 57.3358 60.6826 56.9515 60.6913C56.2792 60.7088 55.6155 60.6913 54.9431 60.6563C54.8471 60.6563 54.751 60.525 54.6462 60.455Z" fill="#F9406C"/>
<path d="M61.7368 56.6477C61.7368 56.7352 61.7368 56.814 61.7368 56.9015C61.5098 56.989 61.2915 57.1991 61.0382 57.1028C60.6889 56.9628 60.4444 56.6739 60.2785 56.3326C60.2523 56.2713 60.2611 56.14 60.3047 56.0962C60.392 56.0175 60.5143 55.9299 60.6191 55.9299C61.1343 55.9387 61.3963 56.3588 61.7368 56.6477Z" fill="#F9406C"/>
<path d="M59.2045 55.6324C59.2045 55.7199 59.2045 55.7987 59.2045 55.8862C58.3313 55.8775 58.3312 55.8775 57.8073 55.5361C58.1217 55.3873 58.4098 55.256 58.698 55.1248C58.9425 55.221 59.056 55.4486 59.2045 55.6324Z" fill="#F9406C"/>
<path d="M59.7109 59.4396C59.2045 59.8948 58.6369 60.2011 57.9383 60.2011C58.4448 59.746 59.0124 59.4309 59.7109 59.4396Z" fill="#F9406C"/>
<path d="M55.9997 56.0962C55.9386 56.1488 55.8862 56.2363 55.8251 56.245C55.6417 56.2713 55.5369 56.14 55.467 55.9912C55.4147 55.8862 55.4496 55.8599 55.6504 55.8862C55.7901 55.9124 55.9822 55.8599 55.9997 56.0962Z" fill="#F9406C"/>
<path d="M54.5502 56.9715C54.4803 56.9978 54.393 57.0678 54.3406 57.0415C54.2882 57.0153 54.2795 56.9102 54.2533 56.8402C54.3232 56.814 54.4105 56.7439 54.4629 56.7702C54.5153 56.7965 54.524 56.9015 54.5502 56.9715Z" fill="#F9406C"/>
<path d="M50.5945 22.1531C50.2277 23.0547 49.4855 23.7374 49.1711 24.6652C49.1013 24.884 48.848 25.0415 48.6734 25.2253C48.2368 25.6805 47.8438 26.1706 47.4247 26.6345C46.7261 27.4048 45.9228 28.1137 45.067 28.7002C44.2811 29.2341 43.3642 29.1641 42.5696 28.6214C41.74 28.0525 41.3121 27.256 41.5392 26.2232C41.7575 25.2078 42.0107 24.21 42.7355 23.3873C43.1721 22.8884 43.4865 22.2757 43.8445 21.7067C44.447 20.7264 45.3028 19.965 46.1323 19.221C46.796 18.6345 47.5557 18.0218 48.5773 18.1006C48.7695 18.9059 48.8655 19.6148 47.8613 20.07C47.4072 20.2801 47.7216 21.2429 46.9619 21.4529C47.416 21.3829 47.9312 20.989 48.2019 21.6892C48.4988 22.4682 48.979 22.5995 49.6689 22.1356C49.9658 21.9343 50.2976 21.873 50.5945 22.1531Z" fill="#F9406C"/>
<path d="M50.5945 22.1532C50.0793 22.0832 49.7475 22.3895 49.3895 22.6959C49.0664 22.976 48.8131 22.941 48.49 22.6871C48.0884 22.3633 47.9574 22.1357 47.7915 21.4705C47.4072 21.523 47.1103 21.7681 46.8047 21.9782C46.6388 22.0832 46.4816 21.9869 46.3419 21.8994C46.2284 21.8294 46.176 21.7156 46.2633 21.593C46.438 21.348 46.6999 21.2342 46.9706 21.1116C47.3985 20.9191 47.4684 20.7353 47.2763 20.2276C47.1889 19.9913 47.2151 19.8337 47.3287 19.6499C47.3985 19.5361 47.512 19.4486 47.6343 19.5011C47.7827 19.5624 47.905 19.6762 48.0447 19.7725C48.1757 19.5274 48.394 19.2998 48.4202 19.046C48.4551 18.7221 48.3765 18.3895 48.5861 18.0919C48.6472 18.0394 48.7171 17.9344 48.7782 17.9431C49.3633 17.9957 49.9309 18.162 50.3849 18.5383C50.9787 19.0285 51.1621 19.7199 51.0486 20.4552C50.9438 21.0329 50.7429 21.593 50.5945 22.1532Z" fill="#F9406C"/>
<path d="M52.8736 55.3786C52.9609 55.2911 53.0395 55.2123 53.1268 55.1248C53.0482 55.2123 52.9609 55.2998 52.8736 55.3786Z" fill="#F9406C"/>
<path d="M53.1268 34.442C53.0832 33.8469 53.0919 33.1466 53.6158 32.5514C53.7905 32.3589 53.8953 32.1488 54.2009 32.1663C54.4541 32.1751 54.5327 31.965 54.62 31.7637C55.2313 30.4771 56.742 29.2779 58.0256 29.0241C59.9118 28.6477 61.763 30.6083 61.0993 32.4989C60.9771 32.8578 60.8024 33.1729 60.8723 33.5843C60.9072 33.7943 60.7501 34.0919 60.5929 34.267C59.8506 35.0635 59.283 36.0175 58.4447 36.744C57.5104 37.5405 56.48 38.0219 55.2226 37.8906C55.0567 37.8731 54.8471 37.8731 54.7423 37.7768C53.9913 37.0591 53.0744 36.4464 53.1181 35.221C53.1356 35.0022 53.1268 34.7921 53.1268 34.442Z" fill="#F9406C"/>
<path d="M11.1162 38.1357C10.8717 38.2407 10.7407 38.442 10.5922 38.6521C10.1469 39.3173 9.56182 39.8512 8.94184 40.3589C8.48776 40.7265 8.02496 41.0766 7.57088 41.4355C7.47483 41.5055 7.40497 41.6018 7.31765 41.6893C7.23032 41.7681 7.143 41.8556 7.06441 41.9431C6.9247 42.0919 6.68893 42.0307 6.55794 42.197C5.78951 42.6609 5.07347 43.2298 4.15659 43.3786C3.59772 43.4749 3.0214 43.6499 2.5062 43.2123C2.13944 42.9672 1.4758 42.7309 1.57185 42.3283C1.78142 41.4792 1.04792 40.7177 1.48453 39.9125C1.46706 39.3961 1.50199 38.9147 1.95607 38.5471C2.11325 38.4245 2.20057 38.2145 2.30536 38.0307C2.74197 37.2517 3.33576 36.6215 4.12166 36.1838C4.30503 36.0876 4.51461 35.9825 4.61939 35.825C5.1084 35.0635 5.91176 34.6609 6.54921 34.0832C6.83737 33.8118 7.27398 34.1094 7.56215 33.8293C7.64947 33.8293 7.72806 33.8293 7.81538 33.8293C8.80212 34.5296 10.1032 34.197 11.1074 34.8447C11.8584 35.7112 11.7623 36.6565 11.3607 37.6368C11.2122 37.7593 11.2559 37.9956 11.1162 38.1357Z" fill="#F9406C"/>
<path d="M11.1161 34.8357C10.6708 34.9145 10.1469 35.0808 9.82377 34.7307C9.59674 34.4769 9.52688 34.3631 9.18632 34.5206C8.32183 34.9145 8.25197 34.862 7.92015 33.8992C7.90269 33.8729 7.85903 33.8467 7.8241 33.8204C8.01621 33.5316 8.24324 33.6366 8.46155 33.7679C8.76718 33.9517 9.06407 34.013 9.36097 33.7329C9.43956 33.6628 9.6142 33.6278 9.70152 33.6716C10.1032 33.8554 10.5049 34.0655 10.8891 34.293C11.0725 34.3981 11.0987 34.6256 11.1161 34.8357Z" fill="#F9406C"/>
<path d="M1.4933 39.9036C1.52823 40.4637 1.33612 41.1027 1.99977 41.4616C2.0085 41.4703 1.9823 41.6279 1.94738 41.6454C1.44964 41.7942 1.69414 42.1005 1.83386 42.3193C2.02596 42.6344 2.2792 42.9145 2.50624 43.2033C1.82512 43.2821 1.45837 42.8357 1.10908 42.3631C1.03923 42.2756 0.986832 42.1005 1.03049 42.013C1.32739 41.4003 1.14401 40.7088 1.33612 40.0786C1.35358 40.0174 1.44091 39.9648 1.4933 39.9036Z" fill="#F9406C"/>
<path d="M11.3694 37.6278C11.3694 37.5053 11.3432 37.3652 11.3694 37.2515C11.579 36.4112 11.4567 35.6147 11.1074 34.8357C12.0767 35.7635 12.1378 36.49 11.3694 37.6278Z" fill="#F9406C"/>
<path d="M7.57092 33.8205C7.30022 34.1881 6.90727 34.0393 6.55798 34.0743C6.82868 33.7067 7.22163 33.8555 7.57092 33.8205Z" fill="#F9406C"/>
<path d="M11.1162 38.1356C11.1162 37.9255 11.1599 37.733 11.3694 37.6279C11.3607 37.838 11.3171 38.0218 11.1162 38.1356Z" fill="#F9406C"/>
<path d="M6.55798 42.1969C6.66277 41.9956 6.85488 41.9519 7.06445 41.9431C6.95967 42.1444 6.76756 42.1882 6.55798 42.1969Z" fill="#F9406C"/>
<path d="M7.06445 41.943C7.15178 41.8555 7.23037 41.7767 7.31769 41.6892C7.23037 41.768 7.15178 41.8555 7.06445 41.943Z" fill="#F9406C"/>
<path d="M7.31763 41.6891C7.40495 41.6016 7.48354 41.5228 7.57086 41.4353C7.48354 41.5141 7.40495 41.6016 7.31763 41.6891Z" fill="#F9406C"/>
<path d="M32.3529 23.4835C32.4577 24.2012 32.3005 24.7789 31.7329 25.2077C31.3574 25.4966 31.1042 25.8905 30.9208 26.3193C30.7811 26.6519 30.6152 26.9145 30.1698 26.8007C30.0388 26.7657 29.8991 26.8708 29.9253 27.0108C30.0214 27.466 29.6983 27.6585 29.4538 27.9474C28.9211 28.5863 28.2225 28.9102 27.489 29.234C27.2009 29.3565 27.0437 29.339 26.8167 29.1902C26.6333 29.0677 26.4586 29.1815 26.4324 29.3565C26.3888 29.6629 26.2665 29.7942 25.9434 29.7679C24.6074 29.6716 23.6119 28.1049 24.1271 26.792C24.3804 26.1443 24.5899 25.4003 25.4195 25.199C25.5505 25.164 25.5941 25.0677 25.6465 24.9364C26.0395 23.9298 26.7817 23.2034 27.5589 22.5032C27.9082 22.1968 28.2051 21.8467 28.4408 21.4441C28.6679 21.059 29.0346 20.8839 29.4974 20.8839C30.1349 20.8839 30.7636 20.8664 31.305 21.2778C32.0822 21.8379 32.6061 22.5032 32.3529 23.4835Z" fill="#F9406C"/>
<path d="M32.8855 68.5688C33.4357 69.5404 33.1388 70.4594 32.5625 71.2559C32.0996 71.9036 31.567 72.4726 31.2701 73.234C31.1391 73.5666 30.8073 73.8292 30.5366 74.0831C29.7943 74.7833 28.9211 75.2647 27.9518 75.5798C27.2707 75.7986 26.6245 75.6848 26.0395 75.2559C25.7251 75.0196 25.437 74.7133 25.4457 74.3281C25.4544 73.5754 25.2099 72.8489 25.2711 72.0874C25.306 71.6148 25.3496 71.1771 25.5854 70.757C25.926 70.1268 26.0919 69.4354 26.3364 68.7614C26.642 67.9124 27.0262 67.0284 28.0741 66.8008C27.978 67.3697 27.8296 67.8686 28.5806 68.245C29.2442 68.5776 29.3315 69.2866 28.9473 69.9868C28.9211 70.0393 28.2662 70.3369 28.956 70.4594C29.0696 70.4944 29.1569 70.547 29.2442 70.617C29.4538 70.6782 29.5149 71.2209 29.7681 70.9058C30.1524 70.4157 30.5191 70.2931 30.8597 70.8095C31.0867 71.1509 31.6456 71.6673 30.7723 71.9999C30.7112 72.0262 30.5802 72.0262 30.6064 72.1575C30.6763 72.1049 30.7549 72.0699 30.816 72.0174C31.794 71.0459 32.2219 69.7329 32.8855 68.5688Z" fill="#F9406C"/>
<path d="M29.0871 70.5996C28.7465 70.5646 28.5107 70.8622 28.0829 70.9759C28.3448 70.4508 28.5457 70.0569 28.7378 69.663C28.9823 69.1729 28.8688 68.6565 28.4147 68.3939C28.2051 68.2713 27.9344 68.2538 27.786 68.0175C27.7248 67.9125 27.6026 67.8425 27.5153 67.7637C27.7074 67.4311 27.8907 67.116 28.0741 66.8009C28.1614 66.7134 28.24 66.6258 28.3274 66.5471C28.4234 66.4683 28.4933 66.3808 28.5806 66.2932C28.7465 66.1444 28.9823 66.1794 29.1656 66.0919C30.0563 65.6893 30.6501 65.7856 30.5104 66.9147C31.209 67.1773 31.4098 65.9344 32.1171 66.5471C32.3616 67.011 32.4577 67.5449 32.7982 67.9738C32.903 68.1138 32.8594 68.3676 32.8856 68.5689C32.8856 68.9453 32.903 69.3217 32.8681 69.698C32.8419 70.0306 32.6498 69.7856 32.5188 69.7681C32.3791 69.7506 32.2656 69.8381 32.2656 69.9606C32.2656 70.1182 32.3442 70.2845 32.3442 70.4508C32.3704 71.0197 32.3092 71.1335 31.6893 71.2735C31.4186 71.3348 31.4098 71.4924 31.3312 71.6762C31.078 72.2713 30.5017 72.5602 30.0301 72.9453C30.0214 72.9541 29.8817 72.8578 29.8817 72.814C29.9253 72.3239 30.1873 71.8425 30.5977 71.7462C31.078 71.6236 31.0605 71.5886 30.7811 71.2648C30.6851 71.151 30.7112 70.9409 30.6327 70.8096C30.5366 70.6608 30.362 70.6171 30.1873 70.7134C30.0301 70.8009 29.9253 70.9322 30.0825 71.0985C30.231 71.2648 30.2135 71.4048 30.0214 71.4924C29.9253 71.5361 29.7594 71.5536 29.6721 71.5011C29.3403 71.2998 29.0958 71.0197 29.0871 70.5996C29.1569 70.3983 29.3752 70.3282 29.48 70.1619C29.3228 70.2845 29.1569 70.3983 29.0871 70.5996Z" fill="#F9406C"/>
<path d="M32.1171 66.5469C31.8988 66.5906 31.5932 66.4243 31.4971 66.7744C31.4011 67.1421 31.0343 67.2121 30.7986 67.4221C30.6414 67.5622 30.4056 67.5797 30.231 67.4221C30.0738 67.2821 29.9777 67.0983 29.9952 66.8795C29.9952 66.8357 30.0214 66.8007 30.0301 66.7657C30.231 66.0217 30.231 65.9954 29.5498 66.188C29.218 66.2755 28.9037 66.2843 28.5718 66.293C29.9603 65.339 31.0518 65.4178 32.1171 66.5469Z" fill="#F9406C"/>
<path d="M28.5806 66.2844C28.4932 66.372 28.4147 66.4507 28.3273 66.5382C28.4147 66.4595 28.4932 66.372 28.5806 66.2844Z" fill="#F9406C"/>
<path d="M44.2723 70.5995C44.9797 69.7243 45.9577 69.7768 46.9182 69.8643C47.3461 69.8993 47.7216 70.1181 48.0185 70.4332C48.5599 71.0197 49.0489 71.6061 49.1187 72.4814C49.1624 73.0153 49.4069 73.5317 49.2846 74.1706C48.883 74.0744 48.7956 73.4617 48.3416 73.5405C47.9224 73.6105 47.8351 73.3829 47.7914 73.0591C47.7478 72.744 47.5382 72.6477 47.25 72.6564C47.0143 72.6652 46.8222 72.7965 46.8483 73.0415C46.892 73.4092 46.9881 73.7505 46.8571 74.1444C46.6999 74.617 47.154 74.8884 47.4072 75.2035C47.4509 75.2647 47.6342 75.2297 47.7565 75.2122C48.0447 75.1685 48.3416 75.1335 48.621 75.2472C48.6559 75.2647 48.6908 75.2998 48.6996 75.3435C48.7432 75.4398 48.6996 75.5011 48.6035 75.5273C48.3503 75.5886 48.0534 75.6499 48.359 75.9825C48.621 76.2626 48.5511 76.5426 48.3678 76.779C48.1232 77.1116 47.8176 77.4004 47.5469 77.7155C47.1976 77.4529 46.8222 77.2691 46.6388 76.7702C46.4554 76.2626 45.8703 76.1138 45.163 75.6761C45.5385 76.3763 45.8616 76.779 45.8529 77.3129C45.4774 77.6367 45.1368 78.1444 44.4994 77.7155C44.2898 78.0394 43.9056 77.9868 43.6087 78.1356C43.4166 78.2407 43.1721 78.2144 43.0411 78.0219C42.8665 77.7593 42.6045 77.8205 42.3687 77.768C42.1941 77.4529 42.4211 77.1816 42.5259 76.954C42.718 76.5514 42.7791 76.245 42.5172 75.8424C42.3513 75.5886 42.5346 75.3435 42.8315 75.3698C43.076 75.3873 43.3031 75.2822 43.565 75.3785C44.1064 75.5798 44.1152 75.5448 44.2461 74.9321C44.2723 74.8184 44.3422 74.617 44.3771 74.6258C44.9884 74.6696 44.936 74.3545 44.8312 73.9168C44.7875 73.7593 44.9273 73.4442 45.067 73.3742C45.3813 73.2166 45.5385 73.0941 45.3027 72.744C45.2067 72.6039 45.1456 72.4464 45.0844 72.2888C44.936 71.9037 44.9797 71.5536 45.2591 71.2385C45.3988 71.0809 45.5385 70.9234 45.652 70.7483C45.7394 70.5995 45.7656 70.4157 45.6258 70.2844C45.4774 70.1444 45.2678 70.1794 45.198 70.337C45.0146 70.8008 44.6304 70.6345 44.2723 70.5995Z" fill="#F9406C"/>
<path d="M17.9447 17.8469C17.6478 18.3545 17.3422 18.8534 17.0715 19.3698C16.8532 19.7812 16.6174 20.1751 16.1808 20.3851C15.8752 20.5252 15.6132 20.709 15.3512 20.9366C15.0194 21.2254 14.6789 21.2079 14.3383 20.9278C14.12 20.744 13.9017 20.5339 13.7532 20.2889C13.5873 20.0175 13.5437 19.7024 13.1333 19.5799C12.7665 19.4749 12.5133 19.4661 12.2338 19.7287C12.1465 19.8075 11.9806 19.7637 11.9107 19.6412C11.7798 19.4311 11.5789 19.221 11.7361 18.9585C11.9282 18.6258 12.1902 18.3633 12.5307 18.1882C12.7316 18.0832 12.9324 18.1444 13.1333 18.2407C13.9803 18.6258 14.74 18.4683 15.4124 17.8556C15.2901 17.8556 15.1504 17.8206 15.0456 17.8644C14.2946 18.2057 13.631 17.8556 12.9586 17.6018C12.6617 17.488 12.8364 17.2779 12.8713 17.1029C13.4913 16.9016 13.1158 16.4464 13.1245 16.0876C13.4214 15.5711 13.858 15.1685 14.3208 14.8097C14.4693 14.6959 14.5915 14.6171 14.5653 14.4333C14.5217 14.1269 14.6789 14.0482 14.9321 14.1094C15.2203 14.1795 15.4735 14.302 15.7267 14.0044C15.98 13.7068 16.3467 13.8293 16.6785 13.8031C16.8794 14.0482 17.2287 13.8293 17.4382 14.0569C17.5256 14.1444 17.6041 14.2232 17.6915 14.3107C17.8225 14.5208 17.7701 14.9059 18.1979 14.8184C18.425 15.0197 18.2154 15.3786 18.4512 15.5799C18.5909 15.9037 18.9926 16.1663 18.7044 16.5952C18.5647 16.8053 18.3115 16.9541 18.2241 17.1641C18.1368 17.3742 17.3509 17.3567 17.9447 17.8469Z" fill="#F9406C"/>
<path d="M12.8888 17.0853C12.8539 17.0678 12.784 17.0416 12.7927 17.0241C12.8015 16.9453 12.8451 16.9628 12.8888 17.0853Z" fill="#F9406C"/>
<path d="M13.142 16.0699C13.107 16.0524 13.0372 16.0261 13.0459 16.0174C13.0546 15.9298 13.0983 15.9473 13.142 16.0699Z" fill="#F9406C"/>
<path d="M17.9447 17.8468C17.8399 17.6455 17.6304 17.6192 17.3684 17.4879C17.8399 17.1641 18.2678 16.8752 18.7044 16.5776C18.6608 17.1203 18.2591 17.4529 17.9447 17.8468Z" fill="#F9406C"/>
<path d="M18.198 14.8009C18.0495 14.8709 17.9011 14.9497 17.7439 15.0022C17.6304 15.0459 17.4819 15.0635 17.4121 14.9322C17.3946 14.8972 17.4819 14.8096 17.5169 14.7396C17.578 14.5908 17.6391 14.442 17.7002 14.2932C17.936 14.3895 18.1107 14.5558 18.198 14.8009Z" fill="#F9406C"/>
<path d="M18.7045 16.5776C18.6171 16.2362 18.5386 15.9036 18.4512 15.5623C19.0188 15.9911 19.045 16.0787 18.7045 16.5776Z" fill="#F9406C"/>
<path d="M17.4383 14.0392C17.1589 14.0305 16.862 14.083 16.6786 13.7854C16.958 13.7942 17.2549 13.7416 17.4383 14.0392Z" fill="#F9406C"/>
<path d="M18.46 15.5623C18.1631 15.3872 18.2155 15.0809 18.2067 14.8008C18.5036 14.9846 18.4512 15.2822 18.46 15.5623Z" fill="#F9406C"/>
<path d="M17.6915 14.2931C17.6042 14.2056 17.5256 14.1268 17.4383 14.0393C17.5256 14.1268 17.6129 14.2144 17.6915 14.2931Z" fill="#F9406C"/>
<path d="M64.7756 14.0392C64.8542 12.9451 65.5004 12.0873 66.0243 11.1946C66.2514 10.8094 66.5744 10.4593 66.7753 10.0392C66.8102 9.96042 66.8451 9.8904 66.8975 9.82038C67.8843 8.35867 69.1155 8.43745 70.4341 9.43526C70.5039 9.48778 70.5476 9.5578 70.6175 9.61031C71.6479 10.4156 71.805 11.4922 71.5169 12.6738C71.4208 13.0501 71.3684 13.409 71.3684 13.7854L71.3772 13.7766C71.089 14.0567 71.0453 14.5206 70.6699 14.7394C69.9451 15.0983 69.491 14.6694 69.0369 14.153C69.0457 14.4943 69.3076 14.6694 69.4211 14.9145C69.6394 15.3521 69.7966 15.7897 69.3338 16.1661C69.0107 16.4199 68.6789 16.7613 68.2161 16.56C67.7271 16.3499 67.6048 15.9035 67.6572 15.3959C67.7096 14.8882 67.762 14.3893 67.8231 13.8904C67.8057 13.1639 67.4389 13.3915 67.0722 13.6191C66.8451 14.0217 66.9761 14.4506 67.0547 14.8357C67.1944 15.5272 66.9412 16.0786 66.3474 16.2361C65.6314 16.4199 65.8671 15.5709 65.579 15.2646C65.6488 15.8685 66.0418 16.7088 64.7843 16.3149C64.5922 15.5622 64.6796 14.8007 64.7756 14.0392Z" fill="#F9406C"/>
<path d="M64.7756 16.3238C64.8629 16.3238 64.9415 16.3238 65.0288 16.315C65.3082 16.2888 65.544 16.1837 65.413 15.8511C65.2297 15.3785 65.282 14.9584 65.5615 14.5557C65.6051 14.4945 65.6925 14.4419 65.7623 14.4332C65.9108 14.4244 65.9981 14.547 65.9457 14.6695C65.7274 15.1859 66.1116 15.6148 66.0592 16.1925C66.3212 15.9474 66.4871 15.7724 66.6792 15.6323C66.8364 15.5185 66.8276 15.466 66.7753 15.256C66.6443 14.7483 66.6181 14.2144 66.5657 13.6892C66.5482 13.5142 66.6443 13.3741 66.7927 13.2778C67.142 13.6367 67.6485 13.5929 68.0589 13.7855C67.9978 14.4069 67.9628 15.0371 67.8842 15.6586C67.8406 15.9649 68.0065 16.1312 68.1899 16.3063C68.4256 16.5338 68.6614 16.4026 68.8797 16.28C69.0282 16.2012 69.1591 16.0875 69.2727 15.9737C69.4473 15.8161 69.491 15.6148 69.36 15.4047C69.229 15.1947 69.0806 14.9846 68.9321 14.7833C68.5741 14.3019 68.5654 14.3019 69.0282 13.5842C69.3687 14.2144 69.6918 14.8708 70.5912 14.5382C70.7397 14.7133 70.7309 14.8796 70.5825 15.0459L70.5912 15.0371C70.3293 15.1684 69.9887 15.2472 69.8927 15.536C69.491 16.7089 68.2947 16.9365 67.4738 17.6017C67.3865 17.6717 67.2206 17.7242 67.1245 17.6805C66.6181 17.4879 66.1378 17.2516 65.5615 17.3916C65.4916 17.4091 65.3432 17.2691 65.2733 17.1728C65.0987 16.9102 64.9415 16.6126 64.7756 16.3238Z" fill="#F9406C"/>
<path d="M64.7756 14.0393C65.0201 14.8008 64.7756 15.5623 64.7756 16.3238C64.7494 16.2975 64.697 16.2713 64.6883 16.2362C64.4613 15.4923 64.3477 14.757 64.7756 14.0393Z" fill="#F9406C"/>
<path d="M72.3639 40.1663C72.1892 40.035 72.1194 39.8512 72.1194 39.6324C72.1194 39.2998 72.1194 38.9759 72.1194 38.6433C72.4861 38.1094 72.4337 37.453 72.6259 36.8665C72.8529 36.4289 73.0974 35.9913 73.3157 35.5536C73.6563 34.8709 74.381 34.4945 74.7129 33.8031C74.7565 33.7068 74.9137 33.6105 75.0098 33.6105C75.5511 33.6368 75.9441 33.2342 76.4069 33.1466C77.6818 32.8928 79.0091 32.9803 79.7339 34.6171C80.188 35.6499 80.4237 36.674 79.9696 37.7681C79.7863 38.197 79.533 38.5733 79.2099 38.8972C78.5812 38.5646 77.6207 38.2757 79.0353 37.6455C79.2361 37.558 79.3584 37.3654 79.3322 37.1466C79.2973 36.8665 79.0528 36.8928 78.8432 36.9015C78.555 36.9103 78.2669 36.8928 77.9874 36.7878C76.7562 36.1838 75.7607 36.5077 75.1582 37.7768C74.9224 38.2757 74.2675 38.6258 74.5382 39.3348C74.5382 39.5186 74.4771 39.6762 74.381 39.825C74.0841 40.3239 73.761 40.7002 73.1673 40.1751C72.914 39.9475 72.6346 40.0525 72.3639 40.1663Z" fill="#F9406C"/>
<path d="M72.3639 40.1662C72.5822 39.501 72.8092 39.396 73.2371 39.7636C73.3244 39.8424 73.3768 39.9649 73.4554 40.0524C73.534 40.1312 73.6301 40.1925 73.7174 40.2538C73.9444 40.0962 73.8658 39.7549 74.1365 39.6586C74.9748 40.2275 75.5948 38.8533 76.4418 39.3785C76.4418 39.3785 76.503 39.1597 76.4942 39.0546C76.4331 38.1356 76.9483 37.6542 77.7167 37.3391C77.7255 37.2341 77.7429 37.1378 77.7517 37.0328C77.7604 36.9277 77.7866 36.8314 77.8303 36.7352C77.8652 36.7002 77.9001 36.6651 77.9438 36.6301C78.4764 36.6301 79.0178 36.6301 79.568 36.6301C79.8736 37.8555 79.7339 38.0743 78.555 38.1356C78.6249 38.5207 79.3147 38.3894 79.2099 38.9146C79.2099 38.9934 79.2012 39.0809 79.2012 39.1597C78.7297 39.6586 78.2319 40.1225 77.8914 40.7352C77.6032 41.2428 77.1841 41.6454 76.6776 41.9518C75.7956 42.547 74.8438 42.3719 73.892 42.2056C73.5777 42.0131 73.3244 41.7592 73.1323 41.4441C73.0537 41.3566 72.9664 41.2691 72.8791 41.1903C72.8005 41.1028 72.7219 41.0152 72.6259 40.9365C72.6259 40.8489 72.6259 40.7702 72.6259 40.6826C72.4687 40.5338 72.5298 40.2975 72.3639 40.1662Z" fill="#F9406C"/>
<path d="M72.6171 36.8665C72.6171 37.5054 72.6957 38.1706 72.1107 38.6433C72.1281 38.0043 72.3115 37.4179 72.6171 36.8665Z" fill="#F9406C"/>
<path d="M29.384 1.10281C29.8031 1.10281 30.1873 1.12906 30.2485 1.65423C30.2572 1.69799 30.2659 1.75051 30.2921 1.76801C30.5192 1.92556 30.8423 1.96933 30.8597 2.3632C30.8772 2.85335 30.7899 3.36976 30.493 3.67611C29.9166 4.2713 29.515 5.03278 28.7203 5.42666C28.1615 5.70674 27.5415 5.81178 26.9826 6.11812C26.6159 6.31944 26.0745 6.27567 25.6815 5.91681C25.4545 5.70675 25.2711 5.49668 25.4195 5.14657C25.5243 4.90149 25.4545 4.71769 25.1576 4.74394C24.852 4.7702 24.7559 4.62141 24.8345 4.37633C25.0965 3.56233 26.8866 1.68049 27.6899 1.46167C28.2575 1.30412 28.8076 1.05904 29.384 1.10281Z" fill="#F9406C"/>
<path d="M19.2196 51.0634C19.0974 50.9583 18.9838 50.8445 18.8529 50.757C18.5909 50.5907 18.4599 50.3544 18.4599 50.048C18.1281 49.873 18.2503 49.2778 17.7439 49.2603C17.5867 48.8139 17.3335 48.3763 17.2985 47.9124C17.2811 47.6323 17.1675 47.3434 17.2199 47.0546C17.2636 46.827 17.7089 46.8883 17.6129 46.6695C17.2112 45.7592 17.805 45.2165 18.2067 44.5163C18.6957 43.6673 19.3157 43.0984 20.1802 42.6957C20.87 42.3806 21.5511 42.3544 22.2497 42.5645C22.5291 42.652 22.7998 42.7658 23.0793 42.8358C23.6818 42.9933 24.1708 43.2559 24.3105 43.9386C24.3367 44.0524 24.4066 44.175 24.4851 44.2712C24.9567 44.8664 25.1663 45.4879 24.8344 46.2581C24.7122 46.5469 24.7908 46.9233 24.7733 47.2559C24.6772 47.3259 24.6161 47.431 24.5201 47.5097C24.4327 47.6761 24.3542 47.8511 24.2668 48.0174C24.1009 48.1487 24.1708 48.3938 24.0136 48.5251C23.7604 48.954 23.4897 49.3653 23.2452 49.803C22.9133 50.3982 22.3719 50.6432 21.7607 50.8445C21.1582 51.0371 20.5818 51.2384 20.0055 50.7483C19.6038 50.4069 19.4816 50.9496 19.2196 51.0634Z" fill="#F9406C"/>
<path d="M24.0223 48.5338C24.0311 48.3237 24.0747 48.1399 24.2756 48.0261C24.2756 48.2362 24.2232 48.42 24.0223 48.5338Z" fill="#F9406C"/>
<path d="M73.8833 42.1882C74.8176 42.1794 75.7607 42.2757 76.6689 41.9343C76.5554 42.1619 76.3982 42.372 76.1362 42.3982C75.4464 42.4595 74.7478 42.5208 74.0667 42.3457C73.9968 42.337 73.9444 42.2494 73.8833 42.1882Z" fill="#F9406C"/>
<path d="M73.1236 41.4353C73.4642 41.6016 73.7174 41.8554 73.8833 42.1968C73.403 42.1705 73.1498 41.9167 73.1236 41.4353Z" fill="#F9406C"/>
<path d="M72.3639 40.1663C72.5647 40.2713 72.6171 40.4639 72.6171 40.6739C72.4163 40.5601 72.3726 40.3763 72.3639 40.1663Z" fill="#F9406C"/>
<path d="M72.8704 41.1816C72.9577 41.2692 73.0363 41.3479 73.1236 41.4355C73.045 41.3479 72.9577 41.2604 72.8704 41.1816Z" fill="#F9406C"/>
<path d="M72.6171 40.9277C72.7044 41.0153 72.783 41.094 72.8704 41.1816C72.7918 41.094 72.7044 41.0065 72.6171 40.9277Z" fill="#F9406C"/>
<path d="M60.2174 52.0873C60.1301 51.9998 60.0515 51.921 59.9642 51.8335C60.0515 51.9123 60.1301 51.9998 60.2174 52.0873Z" fill="#F9406C"/>
<path d="M70.5912 15.0633C70.5912 14.897 70.5912 14.7219 70.6 14.5556C70.9056 14.3543 70.958 13.8992 71.3597 13.7854C71.351 13.9517 71.3422 14.1093 71.3248 14.2756C71.1588 14.3981 71.0977 14.5819 71.0628 14.7745C70.9842 14.862 70.9143 14.9583 70.8358 15.0458C70.7572 15.0545 70.6786 15.0545 70.5912 15.0633Z" fill="#F9406C"/>
<path d="M59.7109 52.5952C59.7983 52.9366 59.8769 53.2692 59.9642 53.6105C59.8245 53.5318 59.676 53.4617 59.5363 53.383C59.3529 53.2779 59.2045 53.1466 59.2569 52.9016C59.3005 52.6477 59.5101 52.6215 59.7109 52.5952Z" fill="#F9406C"/>
<path d="M59.2045 55.6322C58.96 55.5359 58.7941 55.3696 58.698 55.1246C59.187 55.002 59.187 55.002 59.2045 55.6322Z" fill="#F9406C"/>
<path d="M60.4706 53.6016L60.3658 53.5491L60.4095 53.4966L60.4706 53.6016Z" fill="#F9406C"/>
<path d="M29.0871 70.5995C29.0434 70.4507 28.9124 70.2319 29.0783 70.1531C29.3752 70.0131 29.7071 69.9606 30.0301 69.8906C30.0825 69.8818 30.1873 69.9606 30.2135 70.0219C30.231 70.0831 30.1873 70.2144 30.1437 70.2319C29.7944 70.372 29.4364 70.477 29.0871 70.5995Z" fill="#F9406C"/>
<path d="M44.3597 77.3916C44.4121 77.3566 44.4732 77.269 44.5344 77.269C44.6391 77.269 44.6653 77.3566 44.6217 77.4616C44.5867 77.5404 44.5606 77.6192 44.5344 77.6979C44.4121 77.6279 44.3161 77.5579 44.3597 77.3916Z" fill="#F9406C"/>
<path d="M15.0194 18.757C15.0893 18.8095 15.1504 18.862 15.2203 18.9058C15.3862 19.0196 15.5434 19.002 15.6132 18.8182C15.6744 18.6694 15.6656 18.4856 15.718 18.3281C15.8141 18.0392 15.9538 17.9255 16.2594 18.1443C16.3904 18.2318 16.5738 17.8905 16.8008 18.048C16.8707 18.0918 16.958 18.1355 16.9929 18.1968C17.0191 18.2493 17.0017 18.3806 16.958 18.4156C16.5214 18.7307 16.1896 19.1771 15.6656 19.3784C15.3163 19.5097 14.9932 19.7023 14.8011 20.0611C14.7487 20.1662 14.6265 20.2712 14.5042 20.1749C14.3383 20.0436 14.1724 19.6935 14.2335 19.6673C14.644 19.4922 14.6265 19.0983 14.7924 18.8007C14.8186 18.757 14.9409 18.7657 15.0194 18.757Z" fill="#F9406C"/>
<path d="M15.4211 17.8468C15.4386 17.8118 15.4648 17.7418 15.4735 17.7505C15.5609 17.7593 15.5347 17.803 15.4211 17.8468Z" fill="#F9406C"/>
<path d="M68.0676 13.7856C67.989 13.8206 67.9192 13.8643 67.8406 13.8906C67.1507 14.1094 67.0722 14.0569 66.8015 13.2779C67.1595 13.0853 67.5 12.954 67.9279 13.1991C68.2335 13.3742 68.1462 13.558 68.0676 13.7856Z" fill="#F9406C"/>
<path d="M74.3898 39.4048C73.8396 38.7921 73.8309 38.5996 74.4771 38.1707C74.7652 37.9781 74.8962 37.8031 74.8962 37.488C74.8962 37.0066 75.0971 36.6827 75.6035 36.6302C75.8655 36.6039 76.0401 36.4289 76.2497 36.2976C77.0007 35.825 77.2365 35.895 77.935 36.6302C77.7779 36.7965 77.7779 36.9628 77.935 37.1379V37.1466C78.0398 37.628 77.6556 37.6018 77.4024 37.593C76.372 37.5492 75.6647 37.9081 75.3765 38.9759C75.2542 39.4048 74.9835 39.8337 74.3898 39.4048Z" fill="#F9406C"/>
<path d="M74.3898 39.4046C74.643 39.3696 74.9486 39.5097 75.036 39.0545C75.1058 38.6694 75.4289 38.3543 75.4376 37.9079C75.4464 37.6453 75.656 37.5228 75.9528 37.4965C76.5117 37.4353 77.0531 37.1552 77.6382 37.3302C77.708 37.3477 77.8303 37.1989 77.9176 37.1289C78.1446 37.6278 77.9351 37.9692 77.3937 37.9779C77.2714 37.9779 77.1492 37.9167 77.0269 37.9167C76.9047 37.9167 76.7475 37.9867 76.8435 38.1355C77.0269 38.4156 77.0444 38.6519 76.8086 38.9057C76.6252 39.0983 76.6864 39.3784 76.6078 39.6147C76.5466 39.7897 76.3982 39.921 76.2934 39.676C76.145 39.3346 75.9354 39.3959 75.6996 39.5359C75.5948 39.5972 75.525 39.711 75.4376 39.7985C75.0185 40.2099 75.0098 40.2186 74.4946 39.9648C74.3548 39.8948 74.2413 39.7635 74.1104 39.6584C74.2239 39.5709 74.3112 39.4834 74.3898 39.4046Z" fill="#F9406C"/>
<path d="M77.935 37.1202C77.6731 36.9539 77.6818 36.7789 77.935 36.6125C77.935 36.7789 77.935 36.9452 77.935 37.1202Z" fill="#F9406C"/>
<path d="M18.46 50.0569C18.4687 49.9781 18.4687 49.8994 18.4862 49.8293C18.4949 49.7943 18.5298 49.7331 18.5473 49.7418C18.6433 49.7506 18.687 49.8206 18.6259 49.9081C18.5822 49.9606 18.5124 50.0044 18.46 50.0569Z" fill="#F9406C"/>
</g>
<defs>
<clipPath id="clip0_209_480">
<rect width="81" height="80" fill="white"/>
</clipPath>
</defs>
</svg>
